<svg width="144" height="216" viewBox="0 0 144 216" fill="none" xmlns="http://www.w3.org/2000/svg">
<path d="M69.272 21.9396V21.7441C69.2857 20.4689 69.4125 19.4542 69.6525 18.7C69.8993 17.9458 70.249 17.3356 70.7015 16.8693C71.154 16.4031 71.6991 15.978 72.3367 15.5941C72.7481 15.3335 73.1183 15.0421 73.4474 14.7199C73.7765 14.3976 74.0371 14.0274 74.2291 13.6092C74.421 13.1909 74.517 12.7281 74.517 12.2208C74.517 11.6106 74.373 11.0826 74.0851 10.637C73.7971 10.1913 73.4132 9.84851 72.9332 9.60854C72.4601 9.36171 71.9322 9.2383 71.3494 9.2383C70.8215 9.2383 70.3175 9.348 69.8376 9.5674C69.3577 9.7868 68.96 10.1296 68.6446 10.5958C68.3292 11.0552 68.1475 11.6483 68.0995 12.375H64.9731C65.0211 11.1409 65.333 10.0988 65.909 9.24859C66.4849 8.39155 67.2459 7.74363 68.1921 7.30483C69.1451 6.86603 70.1976 6.64663 71.3494 6.64663C72.611 6.64663 73.7148 6.88317 74.661 7.35625C75.6072 7.82248 76.3408 8.47726 76.8619 9.32058C77.3898 10.157 77.6538 11.1341 77.6538 12.2516C77.6538 13.0195 77.5338 13.712 77.2938 14.3291C77.0538 14.9393 76.711 15.4844 76.2654 15.9643C75.8266 16.4442 75.2986 16.8693 74.6816 17.2396C74.0988 17.603 73.6257 17.9801 73.2623 18.3709C72.9058 18.7617 72.6453 19.2245 72.4807 19.7593C72.3162 20.294 72.227 20.9557 72.2133 21.7441V21.9396H69.272ZM70.8249 28.1925C70.2627 28.1925 69.7793 27.9936 69.3748 27.596C68.9703 27.1915 68.768 26.7047 68.768 26.1356C68.768 25.5734 68.9703 25.0934 69.3748 24.6958C69.7793 24.2913 70.2627 24.089 70.8249 24.089C71.3803 24.089 71.8602 24.2913 72.2647 24.6958C72.6761 25.0934 72.8818 25.5734 72.8818 26.1356C72.8818 26.5127 72.7858 26.8589 72.5938 27.1743C72.4087 27.4828 72.1619 27.7297 71.8534 27.9148C71.5448 28.0999 71.202 28.1925 70.8249 28.1925Z" fill="#EF591E"/>
<path d="M58.0792 214.58C51.4364 214.58 48.8087 188.625 47.6412 178.519L67.5686 179.468C66.7412 189.924 64.722 214.58 58.0792 214.58Z" fill="#02517B"/>
<path d="M96.8278 216.002C91.4274 216.002 89.2363 191.802 89.2363 179.764L108.073 179.765C108.59 191.747 102.521 216.002 96.8278 216.002Z" fill="#02517B"/>
<path d="M120.167 163.832C120.167 163.832 127.879 32.5776 116.021 30.9015C104.162 29.2254 100.911 52.7883 100.911 52.7883L51.4313 52.7886C49.9461 41.3388 43.9974 30.3572 36.9103 31.2772C29.8232 32.1973 36.2707 161.503 36.2707 161.503C30.2739 162.28 18.1137 165.398 17.6178 171.222C16.4553 184.875 138.077 182.968 139.644 174.579C141.065 166.971 120.167 163.832 120.167 163.832Z" fill="#02517B"/>
<path d="M113.91 35.6992C111.795 37.3863 108.217 41.393 107.268 49.9336" stroke="#0B3954" stroke-width="1.51834" stroke-linecap="round"/>
<path d="M39.8939 36.6494C42.0092 38.3365 45.5879 43.2921 45.5879 50.8838" stroke="#0B3954" stroke-width="1.51834" stroke-linecap="round"/>
<path d="M43.6538 95.6583C41.5967 85.9694 43.591 74.0957 49.5808 69.46C62.5597 59.4153 100.416 66.1519 107.136 68.6133C115.536 71.6901 114.782 94.3681 109.873 101.161C105.172 107.666 46.8865 110.884 43.6538 95.6583Z" fill="#EF6C1E"/>
<path d="M72.4078 80.9406C72.4078 80.9406 69.452 83.6076 65.9008 83.508C62.3496 83.4083 59.5171 81.6789 59.5479 80.5798C59.5787 79.4807 62.5038 77.9128 66.055 78.0124C69.6061 78.1121 72.4078 80.9406 72.4078 80.9406Z" fill="white"/>
<path fill-rule="evenodd" clip-rule="evenodd" d="M66.0088 83.476C65.9728 83.4755 65.9369 83.4748 65.9008 83.4738C65.43 83.4606 64.9717 83.4187 64.5311 83.3535C63.4577 82.9157 62.8118 81.7643 63.0497 80.5861C63.3189 79.2527 64.6179 78.3901 65.9512 78.6593C67.2844 78.9285 68.147 80.2276 67.8778 81.561C67.6798 82.5416 66.9248 83.2676 66.0088 83.476Z" fill="#02517B"/>
<path d="M96.5312 80.0148C96.5312 80.0148 93.8056 82.9082 90.2684 83.091C86.7312 83.2738 83.7786 81.7749 83.7219 80.6768C83.6652 79.5788 86.4475 77.7834 89.9847 77.6006C93.5219 77.4178 96.5312 80.0148 96.5312 80.0148Z" fill="white"/>
<path fill-rule="evenodd" clip-rule="evenodd" d="M90.9395 83.0357C90.7202 83.0682 90.4969 83.091 90.2704 83.1027C89.9322 83.1202 89.5993 83.1223 89.2738 83.1109C88.1425 82.7624 87.3961 81.6373 87.5601 80.4256C87.7426 79.0768 88.9839 78.1314 90.3326 78.314C91.6813 78.4965 92.6267 79.7379 92.4441 81.0867C92.3219 81.9896 91.7253 82.7117 90.9395 83.0357Z" fill="#02517B"/>
<ellipse cx="90.9924" cy="87.0349" rx="4.07253" ry="0.905029" fill="#E32A2A" fill-opacity="0.6"/>
<ellipse cx="66.5549" cy="87.0349" rx="4.07253" ry="0.905029" fill="#E32A2A" fill-opacity="0.6"/>
<path d="M120.707 104.499C120.707 104.499 129.247 121.58 131.145 150.049" stroke="#02517B" stroke-width="1.89792" stroke-linecap="round"/>
<path d="M130.741 151.315C127.189 152.832 126.486 160.937 128.438 162.064C130.389 163.19 129.65 158.676 131.189 158.263C132.728 157.851 133.357 164.421 135.433 164.43C136.963 164.437 136.488 162.022 135.704 159.86C136.564 161.54 137.831 163.242 138.994 162.769C140.823 162.026 139.616 159.844 138.293 158.094C141.835 162.213 143.477 159.99 142.448 158.074C140.567 154.572 135.181 149.418 130.741 151.315Z" fill="white" stroke="#02517B" stroke-width="1.89792" stroke-linecap="round"/>
<path d="M37.1983 103.551C26.6056 103.077 20.9103 91.6893 22.808 77.4538C24.7058 63.2184 44.6345 37.5975 69.3057 46.1367" stroke="#02517B" stroke-width="1.89792" stroke-linecap="round"/>
<path d="M76.1074 92.6377H81.8011" stroke="#02517B" stroke-width="1.89792" stroke-linecap="round"/>
<path d="M85.5938 69.8645C87.4916 67.9676 92.2363 67.0182 95.0831 69.8645" stroke="#02517B" stroke-width="1.89792" stroke-linecap="round"/>
<path d="M58.8672 69.8645C60.7651 67.9676 65.5098 67.0182 68.3566 69.8645" stroke="#02517B" stroke-width="1.89792" stroke-linecap="round"/>
<path d="M84.0456 52.1845C82.5626 53.9086 79.5486 52.5415 81.575 49.8175C82.9868 49.1047 73.4686 46.5784 72.3983 47.2218C71.9287 47.5041 75.0903 48.3203 75.9529 50.5607C76.2687 51.3811 75.6943 53.2151 72.502 52.0595C68.3615 50.5606 64.566 45.8161 69.3256 42.8199C71.167 41.6607 74.991 43.1376 78.1963 43.7776C80.3884 43.4102 85.4416 43.9218 86.9111 46.9109C88.2498 49.6342 85.7136 51.8385 84.0456 52.1845Z" fill="white"/>
<path d="M84.0456 52.1845C85.4422 50.5608 86.4494 48.8591 84.4933 46.7649C83.2573 45.4417 81.1198 44.3613 78.1963 43.7776M84.0456 52.1845C82.5626 53.9086 79.5486 52.5415 81.575 49.8175C82.9868 49.1047 73.4686 46.5784 72.3983 47.2218C71.9287 47.5041 75.0903 48.3203 75.9529 50.5607C76.2687 51.3811 75.6943 53.2151 72.502 52.0595C68.3615 50.5606 64.566 45.8161 69.3256 42.8199C71.167 41.6607 74.991 43.1376 78.1963 43.7776M84.0456 52.1845C85.7136 51.8385 88.2498 49.6342 86.9111 46.9109C85.4416 43.9218 80.3884 43.4102 78.1963 43.7776" stroke="#02517B" stroke-width="1.89792" stroke-linecap="round"/>
</svg>
