<svg width="138" height="136" viewBox="0 0 138 136" fill="none" xmlns="http://www.w3.org/2000/svg">
<path d="M128.295 42.7489C129.068 42.4264 129.435 41.5375 129.095 40.7719C125.21 32.0191 119.503 24.1883 112.348 17.8055C104.816 11.0859 95.8722 6.14254 86.1754 3.3398C76.4787 0.537069 66.2765 -0.0535385 56.3211 1.61153C46.3656 3.27659 36.9109 7.15486 28.6539 12.9604C20.3968 18.766 13.5481 26.3507 8.61268 35.1555C3.67722 43.9603 0.780873 53.7605 0.137197 63.8336C-0.506479 73.9068 1.1189 83.996 4.89353 93.3573C8.479 102.25 13.9168 110.27 20.8388 116.887C21.4442 117.466 22.4047 117.422 22.9697 116.803C23.5348 116.185 23.4902 115.227 22.8854 114.648C16.2982 108.337 11.1222 100.694 7.7065 92.2231C4.10162 83.2827 2.54931 73.6472 3.16404 64.0271C3.77878 54.4069 6.54488 45.0474 11.2584 36.6385C15.9719 28.2297 22.5126 20.986 30.3984 15.4415C38.2841 9.89706 47.3137 6.19318 56.8214 4.60299C66.3291 3.01281 76.0725 3.57685 85.3333 6.25355C94.594 8.93025 103.136 13.6513 110.329 20.0687C117.145 26.1494 122.585 33.606 126.295 41.9401C126.635 42.7053 127.522 43.0713 128.295 42.7489Z" fill="url(#paint0_linear_6940_5284)"/>
<path d="M132.477 40.9917C129.615 39.3394 125.956 40.3199 124.304 43.1819C122.651 46.0439 123.632 49.7034 126.494 51.3558C129.356 53.0082 133.015 52.0276 134.668 49.1656C136.32 46.3036 135.339 42.6441 132.477 40.9917ZM128.458 47.9538C127.475 47.3862 127.138 46.1291 127.706 45.146C128.273 44.1629 129.53 43.8261 130.513 44.3937C131.496 44.9613 131.833 46.2184 131.266 47.2015C130.698 48.1846 129.441 48.5214 128.458 47.9538Z" fill="url(#paint1_linear_6940_5284)"/>
<g filter="url(#filter0_d_6940_5284)">
<path d="M98.8492 87.5969C98.6995 88.3082 97.8335 88.4186 97.3194 87.9046L94.0672 84.6523C93.3834 83.9685 92.9992 83.0411 92.9992 82.0741V71.7806C92.9992 69.7668 91.3667 68.1344 89.353 68.1344H79.0595C78.0925 68.1344 77.1651 67.7502 76.4813 67.0664L71.7737 62.3589C69.4767 60.0619 71.1036 56.1344 74.352 56.1344H89.9992C91.6561 56.1344 92.9992 54.7912 92.9992 53.1344C92.9992 51.4775 91.6561 50.1344 89.9992 50.1344H60.7919C59.9962 50.1344 59.2331 49.8183 58.6705 49.2557C56.7806 47.3658 58.1191 44.1344 60.7919 44.1344H92.9992C94.6492 44.1344 96.0617 44.7219 97.2367 45.8969C98.4117 47.0719 98.9992 48.4844 98.9992 50.1344V86.1344C98.9992 86.6344 98.9492 87.1219 98.8492 87.5969ZM61.5172 69.2023C60.8334 68.5185 59.9059 68.1344 58.9389 68.1344H48.6455C46.6317 68.1344 44.9992 69.7669 44.9992 71.7806V82.4881C44.9992 84.5019 46.6317 86.1344 48.6455 86.1344H69.6464C72.8949 86.1344 74.5217 82.2069 72.2247 79.9099L61.5172 69.2023ZM96.4867 99.8969C95.3062 101.077 93.3922 101.077 92.2117 99.8969L85.5172 93.2023C84.8334 92.5185 83.9059 92.1344 82.9389 92.1344H44.9992C43.3492 92.1344 41.9367 91.5469 40.7617 90.3719C39.5867 89.1969 38.9992 87.7844 38.9992 86.1344V50.1344C38.9992 48.4844 39.5867 47.0719 40.7617 45.8969C41.6322 45.0264 42.633 44.4784 43.7642 44.2528C44.5444 44.0971 45.3153 44.4504 45.8779 45.0131L47.9992 47.1344C49.1063 48.2414 48.3222 50.1344 46.7566 50.1344C45.786 50.1344 44.9992 50.9212 44.9992 51.8917V55.1239C44.9992 55.682 45.4516 56.1344 46.0097 56.1344C46.9099 56.1344 47.3608 55.0459 46.7242 54.4094L37.0867 44.7719C35.9062 43.5914 35.9062 41.6774 37.0867 40.4969C38.2672 39.3164 40.1812 39.3164 41.3617 40.4969L96.4867 95.6219C97.6672 96.8024 97.6672 98.7164 96.4867 99.8969Z" fill="#7B4B94"/>
</g>
<defs>
<filter id="filter0_d_6940_5284" x="36.2012" y="39.6113" width="62.7988" height="61.1709" filterUnits="userSpaceOnUse" color-interpolation-filters="sRGB">
<feFlood flood-opacity="0" result="BackgroundImageFix"/>
<feColorMatrix in="SourceAlpha" type="matrix" values="0 0 0 0 0 0 0 0 0 0 0 0 0 0 0 0 0 0 127 0" result="hardAlpha"/>
<feOffset/>
<feColorMatrix type="matrix" values="0 0 0 0 1 0 0 0 0 1 0 0 0 0 1 0 0 0 1 0"/>
<feBlend mode="normal" in2="BackgroundImageFix" result="effect1_dropShadow_6940_5284"/>
<feBlend mode="normal" in="SourceGraphic" in2="effect1_dropShadow_6940_5284" result="shape"/>
</filter>
<linearGradient id="paint0_linear_6940_5284" x1="15.7451" y1="0.687511" x2="113.293" y2="0.687507" gradientUnits="userSpaceOnUse">
<stop stop-color="#0EA5E9"/>
<stop offset="1" stop-color="#FBBF24"/>
</linearGradient>
<linearGradient id="paint1_linear_6940_5284" x1="136.961" y1="45.1933" x2="132.634" y2="52.688" gradientUnits="userSpaceOnUse">
<stop stop-color="#F59E0B"/>
<stop offset="1" stop-color="#FBBF24"/>
</linearGradient>
</defs>
</svg>
