<svg width="292" height="292" viewBox="0 0 292 292" fill="none" xmlns="http://www.w3.org/2000/svg">
<g clip-path="url(#clip0_6940_5415)">
<path d="M312.96 376.441C312.96 376.441 379.431 26.4447 348.15 17.8074C316.869 9.17005 299.92 71.3511 299.92 71.3511L161.389 56.4548C161.389 25.1709 154.804 -8.76154 135.439 -8.75977C116.074 -8.75799 88.3318 340.938 88.3318 340.938C71.9465 340.938 38.1832 345.076 34.8211 360.553C26.7716 397.609 354.417 434.106 361.551 412.109C368.021 392.161 312.96 376.441 312.96 376.441Z" fill="#02517B"/>
<path d="M132.152 177.516C126.929 152.912 131.993 122.76 147.204 110.988C180.164 85.4799 276.3 102.586 293.365 108.837C314.695 116.65 312.781 174.238 300.314 191.488C288.375 208.007 140.361 216.179 132.152 177.516Z" fill="#EF6C1E"/>
<path d="M215.126 138.63C215.126 138.63 202.964 144.638 189.083 142.929C175.203 141.221 164.496 135.401 164.86 132.444C165.224 129.487 177.022 126.436 190.903 128.145C204.784 129.853 215.126 138.63 215.126 138.63Z" fill="white"/>
<path d="M282.513 138.864C282.513 138.864 271.079 146.163 257.095 145.981C243.111 145.798 231.832 141.181 231.871 138.202C231.91 135.223 243.305 130.903 257.289 131.086C271.274 131.268 282.513 138.864 282.513 138.864Z" fill="white"/>
<mask id="mask0_6940_5415" style="mask-type:alpha" maskUnits="userSpaceOnUse" x="164" y="127" width="52" height="17">
<path d="M215.126 138.63C215.126 138.63 202.964 144.638 189.083 142.929C175.203 141.221 164.496 135.401 164.86 132.444C165.224 129.487 177.022 126.436 190.903 128.145C204.784 129.853 215.126 138.63 215.126 138.63Z" fill="white"/>
</mask>
<g mask="url(#mask0_6940_5415)">
<ellipse cx="188.021" cy="138.02" rx="5.95832" ry="5.95853" transform="rotate(11.4149 188.021 138.02)" fill="#02517B"/>
</g>
<mask id="mask1_6940_5415" style="mask-type:alpha" maskUnits="userSpaceOnUse" x="231" y="131" width="52" height="15">
<path d="M282.513 138.852C282.513 138.852 271.079 146.151 257.095 145.969C243.111 145.786 231.832 141.17 231.871 138.191C231.91 135.212 243.305 130.891 257.289 131.074C271.274 131.256 282.513 138.852 282.513 138.852Z" fill="white"/>
</mask>
<g mask="url(#mask1_6940_5415)">
<ellipse cx="257.161" cy="141.445" rx="5.95832" ry="5.95853" transform="rotate(11.4149 257.161 141.445)" fill="#02517B"/>
</g>
<path d="M264.027 175.993C256.863 169.507 237.07 160.615 215.208 176.935" stroke="#02517B" stroke-width="2.92" stroke-linecap="round"/>
<path d="M164.065 139.883C156.577 150.095 151.919 166.672 159.666 171.393C167.485 176.158 168.422 150.777 164.065 139.883Z" fill="#0EA5E9"/>
<path d="M44.5306 160.417C44.5306 194.911 57.6698 224.473 77.3802 224.473C97.0906 224.473 102.018 211.333 105.305 194.911" stroke="#02517B" stroke-width="6.92" stroke-linecap="round"/>
<g filter="url(#filter0_d_6940_5415)">
<path d="M19.457 80.6405C19.457 78.4363 21.2439 76.6494 23.4481 76.6494H68.0262C70.2304 76.6494 72.0172 78.4363 72.0172 80.6405V171.209C72.0172 173.413 70.2304 175.2 68.0262 175.2H23.4481C21.2439 175.2 19.457 173.413 19.457 171.209V80.6405Z" fill="#333333"/>
<path d="M19.5818 80.6405C19.5818 78.5052 21.3128 76.7741 23.4481 76.7741H68.0262C70.1615 76.7741 71.8925 78.5051 71.8925 80.6405V171.209C71.8925 173.344 70.1615 175.075 68.0262 175.075H23.4481C21.3128 175.075 19.5818 173.344 19.5818 171.209V80.6405Z" stroke="black" stroke-width="0.24944"/>
</g>
<rect x="22.7422" y="86.5049" width="45.9902" height="82.1253" fill="white"/>
<path d="M37.6035 81.5771H57.3136" stroke="black" stroke-width="2.92" stroke-linecap="round"/>
<ellipse cx="30.9143" cy="81.5771" rx="1.60183" ry="1.64251" fill="black"/>
<path d="M21.5363 129.21C17.5943 129.21 14.4188 132.495 13.3238 134.137C11.6809 137.422 14.9663 139.065 18.2513 137.422C19.7204 136.688 26.4638 129.21 21.5363 129.21Z" fill="white" stroke="#02517B" stroke-width="2.92" stroke-linecap="round"/>
<path d="M22.8545 143.809C19.1547 142.449 15.0406 144.436 13.4461 145.6C10.7704 148.116 13.2872 150.791 16.9372 150.384C18.5696 150.201 27.4793 145.51 22.8545 143.809Z" fill="white" stroke="#02517B" stroke-width="2.92" stroke-linecap="round"/>
<path d="M22.8545 151.905C19.1547 150.544 15.0406 152.532 13.4461 153.696C10.7704 156.212 13.2872 158.887 16.9372 158.479C18.5696 158.297 27.4793 153.605 22.8545 151.905Z" fill="white" stroke="#02517B" stroke-width="2.92" stroke-linecap="round"/>
<path d="M30.8057 136.436L33.0487 143.486H33.1348L35.3823 136.436H37.5573L34.3582 145.716H31.8298L28.6262 136.436H30.8057ZM38.6742 145.716V136.436H42.3355C43.0393 136.436 43.639 136.57 44.1344 136.839C44.6298 137.105 45.0074 137.475 45.2672 137.949C45.53 138.421 45.6614 138.964 45.6614 139.581C45.6614 140.197 45.5285 140.741 45.2627 141.212C44.9968 141.683 44.6117 142.05 44.1072 142.313C43.6057 142.576 42.9986 142.707 42.2856 142.707H39.9521V141.135H41.9685C42.3461 141.135 42.6572 141.07 42.9019 140.94C43.1496 140.807 43.3339 140.624 43.4547 140.392C43.5786 140.156 43.6405 139.886 43.6405 139.581C43.6405 139.272 43.5786 139.004 43.4547 138.774C43.3339 138.541 43.1496 138.362 42.9019 138.235C42.6542 138.105 42.34 138.04 41.9594 138.04H40.6363V145.716H38.6742ZM54.6979 136.436V145.716H53.0032L48.9658 139.875H48.8979V145.716H46.9358V136.436H48.6577L52.6633 142.272H52.7449V136.436H54.6979ZM62.0736 140.741L60.3064 140.849C60.2762 140.698 60.2113 140.562 60.1116 140.441C60.0119 140.318 59.8805 140.219 59.7174 140.147C59.5573 140.071 59.3654 140.034 59.1419 140.034C58.8428 140.034 58.5906 140.097 58.3852 140.224C58.1798 140.348 58.0771 140.514 58.0771 140.722C58.0771 140.889 58.1435 141.029 58.2764 141.144C58.4093 141.259 58.6374 141.351 58.9606 141.42L60.2203 141.674C60.897 141.813 61.4015 142.036 61.7338 142.345C62.0661 142.653 62.2322 143.057 62.2322 143.559C62.2322 144.015 62.0978 144.415 61.8289 144.76C61.5631 145.104 61.1976 145.373 60.7324 145.566C60.2702 145.757 59.737 145.852 59.1328 145.852C58.2115 145.852 57.4774 145.66 56.9306 145.276C56.3869 144.89 56.0682 144.364 55.9746 143.699L57.8731 143.6C57.9305 143.881 58.0695 144.095 58.29 144.243C58.5105 144.388 58.793 144.461 59.1374 144.461C59.4757 144.461 59.7476 144.396 59.953 144.266C60.1614 144.133 60.2672 143.962 60.2702 143.754C60.2672 143.579 60.1931 143.435 60.0481 143.323C59.9031 143.209 59.6796 143.121 59.3775 143.061L58.1722 142.82C57.4925 142.684 56.9865 142.449 56.6542 142.113C56.325 141.778 56.1603 141.351 56.1603 140.831C56.1603 140.384 56.2812 139.999 56.5228 139.676C56.7675 139.352 57.1104 139.103 57.5514 138.928C57.9955 138.753 58.5151 138.665 59.1102 138.665C59.9892 138.665 60.681 138.851 61.1855 139.223C61.693 139.594 61.989 140.1 62.0736 140.741Z" fill="#F03131"/>
<path d="M30.6618 115.414V121.785H29.3148V115.414H30.6618ZM33.0704 119.023V121.785H31.7452V117.007H33.0081V117.85H33.0641C33.1699 117.572 33.3472 117.352 33.5961 117.191C33.8449 117.027 34.1467 116.945 34.5013 116.945C34.8331 116.945 35.1224 117.017 35.3692 117.163C35.616 117.308 35.8079 117.515 35.9447 117.785C36.0816 118.052 36.15 118.372 36.15 118.743V121.785H34.8248V118.979C34.8269 118.687 34.7523 118.459 34.6009 118.295C34.4495 118.129 34.2411 118.046 33.9756 118.046C33.7972 118.046 33.6396 118.084 33.5028 118.161C33.368 118.238 33.2622 118.35 33.1855 118.497C33.1108 118.642 33.0724 118.817 33.0704 119.023ZM39.736 117.007V118.002H36.8585V117.007H39.736ZM37.5118 115.862H38.837V120.317C38.837 120.439 38.8557 120.535 38.893 120.603C38.9303 120.669 38.9822 120.716 39.0485 120.743C39.117 120.77 39.1958 120.783 39.2849 120.783C39.3472 120.783 39.4094 120.778 39.4716 120.768C39.5338 120.755 39.5815 120.746 39.6147 120.74L39.8231 121.726C39.7567 121.747 39.6634 121.771 39.5431 121.798C39.4229 121.827 39.2767 121.844 39.1045 121.85C38.7851 121.863 38.5052 121.82 38.2646 121.723C38.0261 121.625 37.8405 121.474 37.7078 121.269C37.575 121.063 37.5097 120.804 37.5118 120.491V115.862ZM42.7255 121.878C42.234 121.878 41.8109 121.779 41.4563 121.58C41.1037 121.379 40.832 121.095 40.6413 120.727C40.4505 120.358 40.3551 119.922 40.3551 119.418C40.3551 118.926 40.4505 118.495 40.6413 118.124C40.832 117.753 41.1006 117.463 41.4469 117.256C41.7954 117.048 42.2039 116.945 42.6726 116.945C42.9878 116.945 43.2813 116.996 43.553 117.097C43.8267 117.197 44.0652 117.347 44.2684 117.548C44.4738 117.749 44.6334 118.002 44.7475 118.307C44.8616 118.61 44.9186 118.965 44.9186 119.371V119.735H40.8839V118.914H43.6712C43.6712 118.723 43.6297 118.554 43.5467 118.407C43.4638 118.26 43.3487 118.144 43.2014 118.062C43.0563 117.977 42.8872 117.934 42.6944 117.934C42.4932 117.934 42.3149 117.981 42.1593 118.074C42.0059 118.165 41.8856 118.289 41.7985 118.444C41.7114 118.598 41.6668 118.769 41.6647 118.957V119.738C41.6647 119.975 41.7083 120.179 41.7954 120.351C41.8845 120.523 42.01 120.656 42.1718 120.749C42.3335 120.843 42.5254 120.889 42.7473 120.889C42.8945 120.889 43.0293 120.869 43.1517 120.827C43.274 120.786 43.3788 120.723 43.4659 120.64C43.553 120.557 43.6193 120.456 43.6649 120.336L44.8906 120.416C44.8284 120.711 44.7008 120.968 44.508 121.188C44.3172 121.406 44.0704 121.576 43.7676 121.698C43.4669 121.818 43.1195 121.878 42.7255 121.878ZM45.7834 121.785V117.007H47.0682V117.841H47.1179C47.205 117.544 47.3512 117.32 47.5566 117.169C47.7619 117.015 47.9983 116.939 48.2658 116.939C48.3322 116.939 48.4037 116.943 48.4805 116.951C48.5572 116.959 48.6246 116.971 48.6827 116.985V118.161C48.6204 118.142 48.5344 118.126 48.4245 118.111C48.3145 118.097 48.214 118.09 48.1227 118.09C47.9278 118.09 47.7536 118.132 47.6001 118.217C47.4487 118.3 47.3284 118.416 47.2392 118.565C47.1521 118.715 47.1086 118.887 47.1086 119.082V121.785H45.7834ZM50.693 119.023V121.785H49.3678V117.007H50.6308V117.85H50.6868C50.7926 117.572 50.9699 117.352 51.2187 117.191C51.4676 117.027 51.7693 116.945 52.124 116.945C52.4558 116.945 52.7451 117.017 52.9919 117.163C53.2387 117.308 53.4305 117.515 53.5674 117.785C53.7043 118.052 53.7727 118.372 53.7727 118.743V121.785H52.4475V118.979C52.4496 118.687 52.3749 118.459 52.2235 118.295C52.0721 118.129 51.8637 118.046 51.5983 118.046C51.4199 118.046 51.2623 118.084 51.1254 118.161C50.9906 118.238 50.8848 118.35 50.8081 118.497C50.7335 118.642 50.6951 118.817 50.693 119.023ZM56.9947 121.878C56.5032 121.878 56.0801 121.779 55.7255 121.58C55.3729 121.379 55.1013 121.095 54.9105 120.727C54.7197 120.358 54.6243 119.922 54.6243 119.418C54.6243 118.926 54.7197 118.495 54.9105 118.124C55.1013 117.753 55.3698 117.463 55.7162 117.256C56.0646 117.048 56.4731 116.945 56.9418 116.945C57.257 116.945 57.5505 116.996 57.8222 117.097C58.0959 117.197 58.3344 117.347 58.5377 117.548C58.743 117.749 58.9027 118.002 59.0167 118.307C59.1308 118.61 59.1878 118.965 59.1878 119.371V119.735H55.1531V118.914H57.9404C57.9404 118.723 57.8989 118.554 57.816 118.407C57.733 118.26 57.6179 118.144 57.4707 118.062C57.3255 117.977 57.1565 117.934 56.9636 117.934C56.7624 117.934 56.5841 117.981 56.4285 118.074C56.2751 118.165 56.1548 118.289 56.0677 118.444C55.9806 118.598 55.936 118.769 55.9339 118.957V119.738C55.9339 119.975 55.9775 120.179 56.0646 120.351C56.1538 120.523 56.2792 120.656 56.441 120.749C56.6027 120.843 56.7946 120.889 57.0165 120.889C57.1637 120.889 57.2985 120.869 57.4209 120.827C57.5432 120.786 57.648 120.723 57.7351 120.64C57.8222 120.557 57.8885 120.456 57.9342 120.336L59.1598 120.416C59.0976 120.711 58.9701 120.968 58.7772 121.188C58.5864 121.406 58.3396 121.576 58.0368 121.698C57.7361 121.818 57.3887 121.878 56.9947 121.878ZM62.5941 117.007V118.002H59.7167V117.007H62.5941ZM60.3699 115.862H61.6951V120.317C61.6951 120.439 61.7138 120.535 61.7511 120.603C61.7884 120.669 61.8403 120.716 61.9067 120.743C61.9751 120.77 62.0539 120.783 62.1431 120.783C62.2053 120.783 62.2675 120.778 62.3297 120.768C62.3919 120.755 62.4396 120.746 62.4728 120.74L62.6812 121.726C62.6149 121.747 62.5216 121.771 62.4013 121.798C62.281 121.827 62.1348 121.844 61.9626 121.85C61.6433 121.863 61.3633 121.82 61.1227 121.723C60.8842 121.625 60.6986 121.474 60.5659 121.269C60.4332 121.063 60.3678 120.804 60.3699 120.491V115.862Z" fill="#F03131"/>
<path d="M59.3133 109.5L33.0332 127.568" stroke="#F03131" stroke-width="1.46"/>
<path d="M57 132L34.5 150" stroke="#F03131" stroke-width="1.46"/>
<path d="M5.83984 0V292" stroke="#A9A9A9" stroke-width="17.52"/>
<path d="M73 0V292" stroke="#A9A9A9" stroke-width="17.52"/>
<path d="M146 0V292" stroke="#A9A9A9" stroke-width="17.52"/>
<path d="M219 0V292" stroke="#A9A9A9" stroke-width="17.52"/>
<path d="M286.16 0V292" stroke="#A9A9A9" stroke-width="17.52"/>
<path d="M182.446 113C186.838 117.392 193.426 119.589 202.209 119.586" stroke="#02517B" stroke-width="2.9046" stroke-linecap="round"/>
<path d="M265.42 118.576C261.679 121.067 252.631 124.273 245.048 121.746" stroke="#02517B" stroke-width="2.9046" stroke-linecap="round"/>
</g>
<defs>
<filter id="filter0_d_6940_5415" x="19.457" y="76.6494" width="52.5605" height="99.5485" filterUnits="userSpaceOnUse" color-interpolation-filters="sRGB">
<feFlood flood-opacity="0" result="BackgroundImageFix"/>
<feColorMatrix in="SourceAlpha" type="matrix" values="0 0 0 0 0 0 0 0 0 0 0 0 0 0 0 0 0 0 127 0" result="hardAlpha"/>
<feOffset dy="0.99776"/>
<feComposite in2="hardAlpha" operator="out"/>
<feColorMatrix type="matrix" values="0 0 0 0 0 0 0 0 0 0 0 0 0 0 0 0 0 0 1 0"/>
<feBlend mode="normal" in2="BackgroundImageFix" result="effect1_dropShadow_6940_5415"/>
<feBlend mode="normal" in="SourceGraphic" in2="effect1_dropShadow_6940_5415" result="shape"/>
</filter>
<clipPath id="clip0_6940_5415">
<rect width="292" height="292" fill="white"/>
</clipPath>
</defs>
</svg>
