<svg width="41" height="21" viewBox="0 0 41 21" fill="none" xmlns="http://www.w3.org/2000/svg">
<path d="M2 6.5C1.17157 6.5 0.5 7.17157 0.5 8C0.5 8.82843 1.17157 9.5 2 9.5V6.5ZM39.5801 15.3833C40.3441 15.063 40.7037 14.1839 40.3833 13.42L35.1625 0.970316C34.8422 0.206344 33.9631 -0.153264 33.1991 0.167108C32.4352 0.48748 32.0756 1.36651 32.3959 2.13049L37.0366 13.1968L25.9703 17.8375C25.2063 18.1579 24.8467 19.0369 25.1671 19.8009C25.4874 20.5649 26.3665 20.9245 27.1304 20.6041L39.5801 15.3833ZM2 9.5C11.4326 9.5 27.7014 10.9985 38.432 15.3884L39.568 12.6117C28.2986 8.00151 11.5674 6.5 2 6.5V9.5Z" fill="url(#paint0_linear_6940_6601)"/>
<defs>
<linearGradient id="paint0_linear_6940_6601" x1="2.19417" y1="7.98825" x2="39" y2="14" gradientUnits="userSpaceOnUse">
<stop stop-color="#0EA5E9"/>
<stop offset="1" stop-color="#F69F0C"/>
</linearGradient>
</defs>
</svg>
