<svg width="430" height="489" viewBox="0 0 430 489" fill="none" xmlns="http://www.w3.org/2000/svg">
<path d="M-28.0861 0.767439C-57.3596 29.9899 -79.9413 65.1982 -94.2762 103.968C-108.611 142.739 -114.359 184.149 -111.124 225.35C-107.889 266.55 -95.7474 306.561 -75.536 342.628C-55.3246 378.695 -27.5232 409.961 5.95399 434.273C39.4312 458.585 77.7889 475.366 118.386 483.461C158.983 491.555 200.855 490.77 241.12 481.161C281.384 471.551 319.084 453.345 351.623 427.795C384.163 402.246 410.769 369.96 429.61 333.161L248.858 240.939C243.367 251.665 235.612 261.075 226.127 268.522C216.643 275.969 205.654 281.276 193.918 284.077C182.182 286.878 169.977 287.107 158.144 284.747C146.311 282.388 135.131 277.497 125.373 270.411C115.615 263.324 107.512 254.211 101.621 243.698C95.7294 233.186 92.1905 221.523 91.2476 209.514C90.3046 197.506 91.9799 185.435 96.1582 174.135C100.337 162.834 106.919 152.572 115.451 144.054L-28.0861 0.767439Z" fill="#02517B"/>
</svg>
