<svg width="139" height="136" viewBox="0 0 139 136" fill="none" xmlns="http://www.w3.org/2000/svg">
<path d="M89.2 86.6V80H97.78L80.62 63.005L67.42 76.205L43 51.62L47.62 47L67.42 66.8L80.62 53.6L102.4 75.38V66.8H109V86.6H89.2Z" fill="#76B041"/>
<path d="M44.5833 93V91.1667H40V87.5H49.1667V83.8333H41.8333C41.3139 83.8333 40.8785 83.6576 40.5271 83.3063C40.1757 82.9549 40 82.5194 40 82V74.6667C40 74.1472 40.1757 73.7118 40.5271 73.3604C40.8785 73.009 41.3139 72.8333 41.8333 72.8333H44.5833V71H48.25V72.8333H52.8333V76.5H43.6667V80.1667H51C51.5194 80.1667 51.9549 80.3424 52.3062 80.6938C52.6576 81.0451 52.8333 81.4806 52.8333 82V89.3333C52.8333 89.8528 52.6576 90.2882 52.3062 90.6396C51.9549 90.991 51.5194 91.1667 51 91.1667H48.25V93H44.5833Z" fill="#76B041"/>
<path d="M128.982 42.7489C129.755 42.4264 130.122 41.5375 129.782 40.7719C125.897 32.0191 120.19 24.1883 113.036 17.8055C105.504 11.0859 96.5597 6.14254 86.8629 3.3398C77.1662 0.537069 66.964 -0.0535385 57.0086 1.61153C47.0531 3.27659 37.5984 7.15486 29.3414 12.9604C21.0843 18.766 14.2356 26.3507 9.30018 35.1555C4.36472 43.9603 1.46837 53.7605 0.824697 63.8336C0.181021 73.9068 1.8064 83.996 5.58103 93.3573C9.1665 102.25 14.6043 110.27 21.5263 116.887C22.1317 117.466 23.0922 117.422 23.6572 116.803C24.2223 116.185 24.1777 115.227 23.5729 114.648C16.9857 108.337 11.8097 100.694 8.394 92.2231C4.78912 83.2827 3.23681 73.6472 3.85154 64.0271C4.46628 54.4069 7.23238 45.0474 11.9459 36.6385C16.6594 28.2297 23.2001 20.986 31.0859 15.4415C38.9716 9.89706 48.0012 6.19318 57.5089 4.60299C67.0166 3.01281 76.76 3.57685 86.0208 6.25355C95.2815 8.93025 103.823 13.6513 111.017 20.0687C117.832 26.1494 123.273 33.606 126.982 41.9401C127.323 42.7053 128.209 43.0713 128.982 42.7489Z" fill="url(#paint0_linear_6940_5277)"/>
<path d="M133.165 40.9917C130.303 39.3394 126.643 40.3199 124.991 43.1819C123.339 46.0439 124.319 49.7034 127.181 51.3558C130.043 53.0082 133.703 52.0276 135.355 49.1656C137.007 46.3036 136.027 42.6441 133.165 40.9917ZM129.145 47.9538C128.162 47.3862 127.825 46.1291 128.393 45.146C128.961 44.1629 130.218 43.8261 131.201 44.3937C132.184 44.9613 132.521 46.2184 131.953 47.2015C131.386 48.1846 130.128 48.5214 129.145 47.9538Z" fill="url(#paint1_linear_6940_5277)"/>
<defs>
<linearGradient id="paint0_linear_6940_5277" x1="16.4326" y1="0.687511" x2="113.981" y2="0.687507" gradientUnits="userSpaceOnUse">
<stop stop-color="#0EA5E9"/>
<stop offset="1" stop-color="#FBBF24"/>
</linearGradient>
<linearGradient id="paint1_linear_6940_5277" x1="137.649" y1="45.1933" x2="133.321" y2="52.688" gradientUnits="userSpaceOnUse">
<stop stop-color="#F59E0B"/>
<stop offset="1" stop-color="#FBBF24"/>
</linearGradient>
</defs>
</svg>
