<svg width="125" height="41" viewBox="0 0 125 41" fill="none" xmlns="http://www.w3.org/2000/svg">
<g clip-path="url(#clip0_7883_961)">
<path d="M5.89571 21.5933L0.802958 24.5861C0.432057 24.8004 0.25374 25.2219 0.346465 25.6504L0.481986 26.1861C1.38071 29.3004 3.28514 32.3504 5.48915 34.5576C8.92711 37.9933 13.6775 40.4147 19.669 40.4004C24.9543 40.3933 30.097 38.2861 33.8345 34.5576C36.0385 32.3504 37.7076 29.6504 38.6776 26.7004C38.7347 26.529 38.7918 26.3647 38.8417 26.1933L38.9772 25.6576C39.0842 25.2433 38.8916 24.8076 38.5207 24.5933L33.428 21.6004C33.1498 21.4433 32.8217 21.4219 32.5364 21.5647C32.4008 21.6219 32.2083 21.8076 32.1726 22.0576C32.1369 22.2861 32.0656 22.7219 32.0157 22.9933C31.8588 23.7719 31.6876 24.4147 31.174 25.5861C29.3338 29.829 24.7974 33.0433 19.6618 33.0433C13.5705 33.0433 8.43495 28.729 7.26519 22.9861C7.18673 22.6219 7.1582 22.4219 7.09401 22.0504C7.04408 21.7504 6.92995 21.6219 6.79443 21.5576C6.49486 21.4147 6.16675 21.4361 5.89571 21.5933Z" fill="#2D1996"/>
<path d="M5.89571 19.2086L0.802958 16.2157C0.432057 16.0014 0.25374 15.58 0.346465 15.1514L0.481986 14.6157C1.38071 11.5014 3.28514 8.45143 5.48915 6.24429C8.92711 2.80857 13.6775 0.387144 19.669 0.40143C24.9543 0.408573 30.097 2.51572 33.8345 6.24429C36.0385 8.45143 37.7076 11.1514 38.6776 14.1014C38.7347 14.2729 38.7918 14.4371 38.8417 14.6086L38.9772 15.1443C39.0842 15.5586 38.8916 15.9943 38.5207 16.2086L33.428 19.2014C33.1498 19.3586 32.8217 19.38 32.5364 19.2371C32.4008 19.18 32.2083 18.9943 32.1726 18.7443C32.1369 18.5157 32.0656 18.08 32.0157 17.8086C31.8588 17.03 31.6876 16.3871 31.174 15.2157C29.3338 10.9729 24.7974 7.75857 19.6618 7.75857C13.5705 7.75857 8.43495 12.0729 7.26519 17.8157C7.18673 18.18 7.1582 18.38 7.09401 18.7514C7.04408 19.0514 6.92995 19.18 6.79443 19.2443C6.49486 19.3871 6.16675 19.3657 5.89571 19.2086Z" fill="#2D1996"/>
<path d="M13.3137 11.7021C13.1995 11.8592 13.2423 12.0592 13.4991 12.4164L19.1268 19.8021C19.3051 20.0378 19.4692 20.2164 19.4906 20.4164C19.4692 20.6092 19.3051 20.7878 19.1268 21.0307L13.4991 28.4164C13.2994 28.695 13.1995 28.9735 13.3137 29.1235C13.4634 29.3378 13.8486 29.145 14.0983 29.0092L27.8287 21.0378L28.3993 20.6878C28.706 20.4807 28.706 20.345 28.3993 20.1521L27.8287 19.8021L14.0983 11.8164C13.8343 11.6592 13.4563 11.4878 13.3137 11.7021Z" fill="#2D1996"/>
<path d="M42.8008 7.76465V19.4718H45.932V14.8575H48.4V19.4718H51.5312V7.76465H48.4V12.1932H45.932V7.76465H42.8008Z" fill="#2D1996"/>
<path d="M57.1513 15.7449C57.1513 15.8377 57.1441 15.9306 57.137 16.0163C57.1299 16.1092 57.1085 16.1949 57.0871 16.2806C56.9729 16.6163 56.7946 16.852 56.5664 17.0163C56.331 17.1663 56.0885 17.252 55.8388 17.252C55.6748 17.252 55.5107 17.202 55.3467 17.102C55.1826 17.002 55.0471 16.8377 54.933 16.6092C54.8189 16.3806 54.7547 16.0806 54.7547 15.702C54.7618 15.3092 54.8403 14.9877 54.9829 14.7377C55.1327 14.4877 55.3324 14.2949 55.5749 14.152C55.8174 14.0163 56.0742 13.9163 56.3524 13.8592C56.6306 13.8092 56.8945 13.7806 57.1584 13.7663V15.7449H57.1513ZM60.2968 19.2877C60.2254 18.8949 60.1755 18.4877 60.147 18.0377C60.1185 17.5949 60.1113 17.1449 60.1113 16.6877V12.4734C60.1185 11.8949 60.0685 11.3306 59.9687 10.7806C59.8759 10.2234 59.6834 9.71629 59.4052 9.26629C59.127 8.81629 58.7204 8.45915 58.1926 8.18772C57.6648 7.91629 56.9658 7.77344 56.1099 7.77344C55.5821 7.78058 55.097 7.82344 54.6405 7.9163C54.1912 8.00201 53.7846 8.10915 53.4351 8.24487C53.0856 8.37344 52.8074 8.50201 52.5935 8.63058L53.1498 10.6663C53.4779 10.452 53.8417 10.302 54.2197 10.1806C54.6049 10.0734 55.0114 10.0163 55.4608 10.0163C55.9886 10.0234 56.3952 10.1663 56.6591 10.452C56.923 10.7306 57.0585 11.102 57.0585 11.552V11.8092C56.4095 11.8092 55.7746 11.8949 55.1612 12.0663C54.5478 12.2234 53.9986 12.4734 53.4993 12.8163C53 13.1449 52.6149 13.5806 52.3224 14.1163C52.03 14.6449 51.8802 15.2806 51.873 16.0234C51.8802 16.702 52.0086 17.2949 52.2653 17.8163C52.5221 18.3306 52.8788 18.7377 53.321 19.0306C53.7703 19.3234 54.2768 19.4734 54.8545 19.4806C55.3609 19.4806 55.8174 19.3734 56.2454 19.1663C56.6734 18.9449 57.0443 18.6234 57.3581 18.1806H57.4009L57.5649 19.2949H60.2968V19.2877Z" fill="#2D1996"/>
<path d="M88.9359 12.9889C88.8575 12.996 88.7861 13.0032 88.7219 13.0103C88.6577 13.0103 88.5722 13.0175 88.4866 13.0175C88.1085 13.0103 87.7733 12.9389 87.488 12.7889C87.1884 12.6389 86.953 12.4318 86.7818 12.1675C86.6107 11.9103 86.5251 11.6032 86.5251 11.2603C86.5322 10.7389 86.6891 10.3389 87.003 10.0746C87.3097 9.81032 87.7448 9.68175 88.2797 9.67461C88.401 9.67461 88.5151 9.68175 88.615 9.69604C88.7291 9.70318 88.8361 9.72461 88.9431 9.74604V12.9889H88.9359ZM91.896 7.93175C91.5108 7.86032 91.0329 7.81032 90.4695 7.77461C89.906 7.73889 89.2997 7.72461 88.6506 7.72461C88.1157 7.72461 87.6021 7.75318 87.11 7.81747C86.6178 7.87461 86.1684 7.97461 85.7619 8.09604C85.3553 8.21747 85.0272 8.37461 84.7633 8.55318C84.3282 8.84604 84.0001 9.19604 83.7647 9.60318C83.5365 10.0032 83.4152 10.496 83.4081 11.0746C83.4152 11.6246 83.5436 12.096 83.7861 12.4818C84.0358 12.8746 84.3639 13.1818 84.7704 13.4175C85.177 13.6532 85.6263 13.8246 86.1114 13.9246V13.9675C85.7975 14.0603 85.5194 14.1818 85.2911 14.3175C85.0557 14.4603 84.8703 14.6032 84.7134 14.7746C84.4637 15.0603 84.2569 15.396 84.0785 15.7889C83.9002 16.1889 83.7576 16.5889 83.6363 17.0032C83.5222 17.4175 83.4152 17.796 83.3154 18.146C83.244 18.396 83.1584 18.6318 83.0586 18.846C82.9587 19.0532 82.8446 19.2532 82.7305 19.4318H85.9545C86.0258 19.3032 86.09 19.1603 86.147 19.0175C86.2041 18.8746 86.254 18.7246 86.2826 18.5746C86.3967 18.1032 86.5179 17.6389 86.6321 17.1675C86.7533 16.696 86.9031 16.2818 87.0743 15.9103C87.2597 15.546 87.488 15.2675 87.7733 15.096C87.8803 15.0318 88.0015 14.9818 88.1371 14.9318C88.2726 14.8818 88.4366 14.8603 88.6221 14.8603H88.9074V19.4246H91.896V7.93175Z" fill="#2D1996"/>
<path d="M92.6523 7.76465V19.3789H104.685L104.835 22.5789H107.175L107.296 17.1432L106.204 17.0932V7.76465H103.173V16.8361H100.969V7.76465H97.9163V16.8361H95.7051V7.76465H92.6523Z" fill="#2D1996"/>
<path d="M109.792 12.5021C109.792 12.2164 109.828 11.9092 109.878 11.6092C109.935 11.3092 110.013 11.0235 110.134 10.7592C110.241 10.5021 110.391 10.295 110.57 10.1307C110.748 9.97352 110.962 9.88781 111.212 9.88781C111.511 9.89495 111.761 10.0092 111.946 10.2378C112.139 10.4664 112.274 10.7807 112.36 11.1664C112.445 11.5592 112.495 12.0021 112.488 12.4949H109.792V12.5021ZM115.149 14.6449C115.184 14.4878 115.206 14.2878 115.22 14.0378C115.234 13.7878 115.241 13.4664 115.241 13.0592C115.234 11.3307 114.899 10.0021 114.229 9.08066C113.558 8.15923 112.617 7.68781 111.39 7.68066C110.52 7.68066 109.742 7.93066 109.065 8.41638C108.38 8.89495 107.838 9.59495 107.445 10.5021C107.046 11.4092 106.846 12.5021 106.832 13.7807C106.832 14.9735 107.017 15.9878 107.381 16.8235C107.752 17.6521 108.287 18.2949 109.008 18.7378C109.714 19.1735 110.591 19.3949 111.618 19.3949C112.21 19.3949 112.781 19.3521 113.33 19.2592C113.879 19.1664 114.357 19.0378 114.756 18.8878L114.336 16.7021C114.065 16.7949 113.751 16.8807 113.38 16.9592C113.009 17.0307 112.61 17.0735 112.174 17.0735C111.725 17.0735 111.318 16.9949 110.962 16.8307C110.598 16.6735 110.32 16.4235 110.106 16.0592C109.899 15.7021 109.778 15.2307 109.764 14.6449H115.149Z" fill="#2D1996"/>
<path d="M118.67 12.5021C118.67 12.2164 118.706 11.9092 118.756 11.6092C118.813 11.3092 118.899 11.0235 119.006 10.7664C119.12 10.5092 119.262 10.2949 119.448 10.1378C119.619 9.98066 119.833 9.90209 120.083 9.89495C120.382 9.90209 120.632 10.0164 120.817 10.245C121.01 10.4807 121.145 10.7878 121.231 11.1735C121.317 11.5664 121.359 12.0092 121.359 12.5021H118.67ZM124.034 14.6449C124.07 14.4878 124.091 14.2878 124.113 14.0378C124.127 13.7949 124.134 13.4664 124.134 13.0592C124.127 11.3307 123.785 10.0021 123.121 9.08066C122.451 8.15923 121.502 7.69495 120.275 7.68066C119.405 7.68781 118.628 7.93066 117.95 8.41638C117.272 8.89495 116.73 9.59495 116.331 10.5021C115.931 11.4092 115.732 12.5021 115.725 13.7807C115.725 14.9735 115.91 15.9807 116.281 16.8235C116.645 17.6521 117.187 18.2949 117.9 18.7307C118.606 19.1664 119.476 19.3878 120.511 19.3949C121.103 19.3878 121.673 19.345 122.215 19.2592C122.765 19.1664 123.242 19.0378 123.649 18.8878L123.228 16.7021C122.957 16.7949 122.643 16.8878 122.272 16.9592C121.902 17.0378 121.502 17.0735 121.074 17.0735C120.618 17.0735 120.211 16.9949 119.862 16.8307C119.505 16.6735 119.22 16.4235 119.006 16.0592C118.792 15.7092 118.678 15.2307 118.663 14.6449H124.034Z" fill="#2D1996"/>
<path d="M45.7338 28.1456H46.4542C46.8536 28.1456 47.2245 28.1956 47.5455 28.3028C47.8736 28.4099 48.1304 28.5742 48.3229 28.8028C48.5155 29.0313 48.6154 29.317 48.6225 29.6742C48.6154 30.0456 48.5155 30.3385 48.3087 30.5599C48.109 30.7742 47.8451 30.9313 47.5312 31.0242C47.2102 31.117 46.8679 31.1599 46.5041 31.1599C46.3686 31.1599 46.2402 31.1599 46.1047 31.1456C45.9692 31.1313 45.8479 31.117 45.7409 31.0956V28.1456H45.7338ZM45.7552 23.4956C45.9905 23.4456 46.2473 23.417 46.5255 23.417C47.0747 23.417 47.5098 23.5313 47.8308 23.7528C48.1446 23.9742 48.3087 24.3028 48.3229 24.7456C48.3158 25.0599 48.2302 25.3242 48.0662 25.5313C47.895 25.7385 47.6739 25.8956 47.3886 26.0099C47.1032 26.117 46.7965 26.1742 46.4613 26.1742H45.7552V23.4956ZM42.8379 33.0242C43.1731 33.0599 43.5797 33.0885 44.0718 33.117C44.564 33.1456 45.0776 33.1528 45.6196 33.1528C46.0904 33.1528 46.5968 33.1385 47.1389 33.0813C47.681 33.0313 48.216 32.9385 48.7509 32.7956C49.2716 32.667 49.7566 32.467 50.1917 32.2099C50.6268 31.9528 50.9763 31.617 51.2331 31.2028C51.497 30.7885 51.6325 30.2813 51.6396 29.6813C51.6396 29.2242 51.5327 28.817 51.3258 28.4456C51.119 28.067 50.8194 27.7599 50.42 27.5028C50.0205 27.2528 49.5355 27.0742 48.972 26.9813V26.9313C49.3643 26.8385 49.721 26.6742 50.0491 26.4528C50.3772 26.217 50.6411 25.9242 50.8479 25.567C51.0476 25.2028 51.1475 24.7813 51.1475 24.3028C51.1475 23.7956 51.0334 23.367 50.8194 23.017C50.6054 22.6742 50.3201 22.3956 49.9563 22.1885C49.5926 21.9813 49.2003 21.8242 48.758 21.7099C48.3229 21.6028 47.8664 21.5313 47.4171 21.4956C46.9677 21.4528 46.5326 21.4385 46.1332 21.4385C45.5483 21.4456 44.9634 21.467 44.4 21.5028C43.8293 21.5456 43.3086 21.6028 42.8379 21.6742V33.0242Z" fill="#2D1996"/>
<path d="M64.2986 26.2095C64.3058 25.9238 64.3343 25.6238 64.3914 25.3166C64.4484 25.0166 64.534 24.7309 64.641 24.4809C64.7551 24.2238 64.8978 24.0095 65.0761 23.8523C65.2544 23.6952 65.4684 23.6095 65.7181 23.6023C66.0176 23.6095 66.2673 23.7238 66.4527 23.9523C66.6453 24.1809 66.7808 24.4952 66.8664 24.8809C66.952 25.2738 66.9948 25.7166 66.9948 26.2095H64.2986ZM69.6624 28.3523C69.6981 28.1952 69.7195 27.9952 69.7409 27.7452C69.748 27.5023 69.7623 27.1738 69.7623 26.7738C69.7552 25.0381 69.4128 23.7166 68.7495 22.7952C68.079 21.8738 67.1375 21.4023 65.9035 21.4023C65.0333 21.4023 64.2559 21.6452 63.5782 22.1309C62.8935 22.6095 62.3585 23.3095 61.9591 24.2166C61.5597 25.1238 61.36 26.2095 61.3457 27.4952C61.3457 28.6881 61.5312 29.6952 61.8949 30.5309C62.2658 31.3666 62.8079 31.9952 63.514 32.4381C64.2273 32.8809 65.0975 33.1023 66.1317 33.1023C66.7238 33.1023 67.2944 33.0523 67.8365 32.9595C68.3857 32.8666 68.8636 32.7452 69.263 32.5881L68.8422 30.4023C68.5711 30.5023 68.2573 30.5881 67.8864 30.6595C67.5155 30.7381 67.1161 30.7738 66.681 30.7738C66.2316 30.7738 65.825 30.6952 65.4684 30.5381C65.1118 30.3738 64.8265 30.1166 64.6125 29.7666C64.3985 29.4095 64.2844 28.9381 64.2701 28.3523H69.6624Z" fill="#2D1996"/>
<path d="M70.5684 33.0952H73.3929L73.5142 29.0238C73.5213 28.6523 73.5284 28.2309 73.5427 27.7666C73.557 27.2952 73.5641 26.7666 73.5784 26.1595C73.5855 25.5523 73.5998 24.8523 73.6069 24.0523H73.6568C73.721 24.3523 73.7995 24.7095 73.8779 25.1238C73.9635 25.5309 74.042 25.9523 74.1276 26.4023C74.2132 26.8452 74.2988 27.2881 74.3844 27.7095C74.4628 28.1309 74.5413 28.5095 74.6126 28.8452L75.547 32.9166H78.0862L78.9921 28.8952C79.1276 28.2881 79.256 27.6738 79.3844 27.0666C79.5128 26.4595 79.6269 25.8881 79.7268 25.3595C79.8266 24.8309 79.9122 24.4023 79.9764 24.0595H80.0192C80.0406 24.8738 80.0549 25.5881 80.0691 26.1952C80.0834 26.8023 80.0977 27.3309 80.1119 27.7881C80.1191 28.2452 80.1333 28.6523 80.1476 29.0166L80.2902 33.1095H83.2075L82.4372 21.4023H78.5427L77.7296 25.1381C77.6583 25.4595 77.5941 25.7952 77.5227 26.1309C77.4514 26.4738 77.3872 26.8381 77.3016 27.2309C77.2232 27.6238 77.1376 28.0738 77.0377 28.5595H76.9664C76.8594 28.0595 76.7596 27.6095 76.6668 27.2238C76.5812 26.8309 76.4885 26.4738 76.4172 26.1381C76.3316 25.8023 76.2603 25.4666 76.1818 25.1381L75.3187 21.4023H71.4243L70.5684 33.0952Z" fill="#2D1996"/>
<path d="M89.9899 26.6581C89.9115 26.6724 89.8401 26.6796 89.7759 26.6796C89.7118 26.6867 89.6333 26.6867 89.5406 26.6867C89.1697 26.6796 88.8344 26.6081 88.5349 26.451C88.2424 26.301 88.007 26.101 87.8359 25.8296C87.6647 25.5724 87.5791 25.2653 87.5719 24.9224C87.5791 24.401 87.736 24.0081 88.0498 23.7367C88.3565 23.4724 88.7845 23.3367 89.3266 23.3367C89.4407 23.3367 89.5548 23.3439 89.669 23.3581C89.7759 23.3653 89.8829 23.3867 89.9899 23.4081V26.6581ZM92.9571 21.601C92.572 21.5296 92.0941 21.4724 91.5306 21.4367C90.96 21.401 90.3608 21.3867 89.7118 21.3867C89.1768 21.3867 88.6632 21.4153 88.1711 21.4796C87.6789 21.5367 87.2296 21.6367 86.8301 21.7581C86.4236 21.8796 86.0883 22.0367 85.8173 22.2153C85.3893 22.5081 85.0612 22.8581 84.8259 23.2653C84.5905 23.6724 84.4763 24.1653 84.4692 24.7367C84.4763 25.2939 84.6047 25.7581 84.8472 26.151C85.0898 26.5367 85.425 26.851 85.8316 27.0867C86.2381 27.3224 86.6804 27.4939 87.1725 27.5939V27.6367C86.8587 27.7296 86.5805 27.851 86.3523 27.9867C86.1169 28.1224 85.9314 28.2724 85.7745 28.4439C85.5249 28.7296 85.3109 29.0653 85.1326 29.4581C84.9614 29.851 84.8116 30.2581 84.6903 30.6724C84.5762 31.0867 84.4692 31.4724 84.3694 31.8153C84.298 32.0653 84.2124 32.301 84.1126 32.5081C84.0127 32.7224 83.8986 32.9224 83.7773 33.0939H87.0013C87.0727 32.9653 87.1368 32.8296 87.201 32.6867C87.2581 32.5439 87.308 32.401 87.3437 32.2367C87.4578 31.7724 87.5791 31.3081 87.6932 30.8367C87.8145 30.3724 87.9571 29.9581 88.1426 29.5867C88.3209 29.2153 88.5491 28.9439 88.8344 28.7724C88.9414 28.7153 89.0627 28.6581 89.2053 28.6081C89.3409 28.5581 89.5049 28.5367 89.6904 28.5367H89.9757V33.0939H92.9643V21.601H92.9571Z" fill="#2D1996"/>
<path d="M55.5597 26.6653C55.6381 26.6796 55.7095 26.6867 55.7808 26.6867C55.845 26.6867 55.9163 26.6939 56.009 26.6939C56.3871 26.6867 56.7152 26.6153 57.0148 26.4581C57.3072 26.3081 57.5426 26.1081 57.7138 25.8367C57.8849 25.5796 57.9777 25.2724 57.9777 24.9296C57.9705 24.4081 57.8136 24.0081 57.5069 23.7439C57.1931 23.4796 56.7651 23.3439 56.223 23.3439C56.1089 23.3439 55.9948 23.351 55.8878 23.3653C55.7808 23.3724 55.6738 23.3939 55.5668 23.4153V26.6653H55.5597ZM52.5996 21.6081C52.9848 21.5367 53.4627 21.4796 54.0262 21.4439C54.5896 21.4081 55.1959 21.3867 55.845 21.3867C56.3799 21.3867 56.8935 21.4224 57.3857 21.4867C57.8778 21.551 58.3272 21.6439 58.7337 21.7653C59.1403 21.8867 59.4684 22.0367 59.7394 22.2224C60.1674 22.5153 60.5026 22.8653 60.738 23.2724C60.9734 23.6796 61.0947 24.1724 61.0947 24.7439C61.0875 25.2939 60.9591 26.1296 60.7166 26.5153C59.6396 28.551 57.6068 28.6796 55.5953 28.4081V33.101H52.5996V21.6081Z" fill="#2D1996"/>
<path d="M78.6712 17.1646C77.8652 17.1646 77.0449 15.9504 77.0449 13.6218C77.0449 11.0432 78.0292 10.0789 78.6498 10.0789C79.5199 10.0789 80.1762 11.5575 80.1762 13.5218C80.1762 16.4004 79.199 17.1646 78.6712 17.1646ZM78.7567 7.76465C75.8466 7.76465 73.9707 10.0504 73.9707 13.5861C73.9707 17.2718 75.6897 19.4718 78.5713 19.4718C80.3259 19.4718 83.2789 18.6861 83.2789 13.4218C83.2789 9.87893 81.5884 7.76465 78.7567 7.76465Z" fill="#2D1996"/>
<path d="M67.3167 7.76465H66.4466H65.3552C62.9016 7.76465 60.4551 9.74322 60.4551 13.9004C60.4551 17.2718 62.2311 19.3789 65.0985 19.4718C66.311 19.5146 67.6948 18.9861 67.6948 18.9861L67.167 16.7289C67.167 16.7289 66.739 16.9432 65.9116 16.9718C64.1213 17.0289 63.5007 15.1361 63.5007 13.7432C63.5007 11.7361 64.214 10.5575 65.8474 10.4361C66.254 10.4004 67.2739 10.3718 67.2739 10.3718H68.8503V19.2789H71.9031V10.3718H74.3139V7.76465H67.3167Z" fill="#2D1996"/>
</g>
<defs>
<clipPath id="clip0_7883_961">
<rect width="123.81" height="40" fill="white" transform="translate(0.318359 0.210938)"/>
</clipPath>
</defs>
</svg>
