<svg width="74" height="41" viewBox="0 0 74 41" fill="none" xmlns="http://www.w3.org/2000/svg">
<g clip-path="url(#clip0_7883_1003)">
<g clip-path="url(#clip1_7883_1003)">
<path d="M22.5165 21.0901L20.5527 26.4785H10.2613L0.623047 -0.000200272H10.3451L14.542 15.6664L18.7389 -0.000200272H30.1909L30.1821 0.0218658C24.3436 1.5797 20.0408 6.90633 20.0408 13.2436C20.0408 16.1606 20.9543 18.8659 22.5165 21.0901ZM33.7214 6.61948C30.0674 6.61948 27.1018 9.58509 27.1018 13.2392C27.1018 16.8932 30.0674 19.8588 33.7214 19.8588C37.3755 19.8588 40.3411 16.8976 40.3411 13.2392C40.3411 9.58509 37.3755 6.61948 33.7214 6.61948ZM47.4021 13.2347C47.4021 19.5676 43.0993 24.8942 37.2608 26.4565L37.2519 26.4785H48.704L52.9009 10.8119L57.0977 26.4785H66.8198L57.1816 -0.000200272H46.8902L44.9264 5.38822C46.4886 7.61243 47.4021 10.3177 47.4021 13.2347Z" fill="#3B79B7"/>
</g>
</g>
<path d="M2.16296 32.0026L3.71449 36.8798H3.77404L5.3287 32.0026H6.83321L4.62033 38.4219H2.87134L0.655317 32.0026H2.16296ZM9.213 38.5159C8.72613 38.5159 8.30507 38.4125 7.94984 38.2056C7.5967 37.9966 7.32401 37.7062 7.13176 37.3342C6.93952 36.9602 6.8434 36.5266 6.8434 36.0335C6.8434 35.5361 6.93952 35.1015 7.13176 34.7296C7.32401 34.3555 7.5967 34.0651 7.94984 33.8582C8.30507 33.6492 8.72613 33.5448 9.213 33.5448C9.69988 33.5448 10.1199 33.6492 10.473 33.8582C10.8283 34.0651 11.102 34.3555 11.2942 34.7296C11.4865 35.1015 11.5826 35.5361 11.5826 36.0335C11.5826 36.5266 11.4865 36.9602 11.2942 37.3342C11.102 37.7062 10.8283 37.9966 10.473 38.2056C10.1199 38.4125 9.69988 38.5159 9.213 38.5159ZM9.21927 37.4816C9.44077 37.4816 9.6257 37.4189 9.77406 37.2935C9.92242 37.166 10.0342 36.9926 10.1094 36.7732C10.1868 36.5538 10.2254 36.3041 10.2254 36.0241C10.2254 35.7441 10.1868 35.4943 10.1094 35.2749C10.0342 35.0555 9.92242 34.8821 9.77406 34.7546C9.6257 34.6272 9.44077 34.5634 9.21927 34.5634C8.99568 34.5634 8.80762 34.6272 8.65508 34.7546C8.50463 34.8821 8.39075 35.0555 8.31343 35.2749C8.23821 35.4943 8.20059 35.7441 8.20059 36.0241C8.20059 36.3041 8.23821 36.5538 8.31343 36.7732C8.39075 36.9926 8.50463 37.166 8.65508 37.2935C8.80762 37.4189 8.99568 37.4816 9.21927 37.4816ZM12.4508 38.4219V33.6074H13.7861V38.4219H12.4508ZM13.1216 32.9868C12.9231 32.9868 12.7528 32.921 12.6107 32.7894C12.4707 32.6556 12.4007 32.4958 12.4007 32.3098C12.4007 32.1259 12.4707 31.9682 12.6107 31.8365C12.7528 31.7028 12.9231 31.6359 13.1216 31.6359C13.3201 31.6359 13.4894 31.7028 13.6294 31.8365C13.7715 31.9682 13.8425 32.1259 13.8425 32.3098C13.8425 32.4958 13.7715 32.6556 13.6294 32.7894C13.4894 32.921 13.3201 32.9868 13.1216 32.9868ZM17.031 38.5159C16.5378 38.5159 16.1136 38.4114 15.7584 38.2025C15.4053 37.9914 15.1336 37.6989 14.9435 37.3248C14.7554 36.9508 14.6614 36.5203 14.6614 36.0335C14.6614 35.5403 14.7564 35.1078 14.9466 34.7358C15.1388 34.3618 15.4115 34.0703 15.7647 33.8613C16.1178 33.6503 16.5378 33.5448 17.0247 33.5448C17.4447 33.5448 17.8125 33.621 18.128 33.7736C18.4435 33.9261 18.6932 34.1403 18.8771 34.4161C19.061 34.6919 19.1624 35.0158 19.1812 35.3878H17.9211C17.8856 35.1475 17.7916 34.9542 17.639 34.8079C17.4886 34.6596 17.2911 34.5854 17.0466 34.5854C16.8398 34.5854 16.659 34.6418 16.5044 34.7546C16.3519 34.8654 16.2327 35.0273 16.1471 35.2405C16.0614 35.4536 16.0186 35.7117 16.0186 36.0147C16.0186 36.3218 16.0604 36.583 16.1439 36.7983C16.2296 37.0135 16.3498 37.1775 16.5044 37.2904C16.659 37.4032 16.8398 37.4596 17.0466 37.4596C17.1992 37.4596 17.3361 37.4283 17.4572 37.3656C17.5805 37.3029 17.6819 37.212 17.7613 37.0929C17.8428 36.9717 17.8961 36.8265 17.9211 36.6572H19.1812C19.1603 37.025 19.06 37.3489 18.8803 37.6289C18.7026 37.9068 18.4571 38.1241 18.1437 38.2808C17.8302 38.4375 17.4593 38.5159 17.031 38.5159ZM22.2302 38.5159C21.7349 38.5159 21.3086 38.4156 20.9513 38.215C20.5961 38.0123 20.3223 37.726 20.1301 37.3562C19.9379 36.9842 19.8417 36.5444 19.8417 36.0366C19.8417 35.5414 19.9379 35.1067 20.1301 34.7327C20.3223 34.3587 20.593 34.0672 20.9419 33.8582C21.293 33.6492 21.7046 33.5448 22.1769 33.5448C22.4945 33.5448 22.7902 33.5959 23.0639 33.6983C23.3397 33.7986 23.58 33.9501 23.7848 34.1528C23.9917 34.3555 24.1526 34.6104 24.2675 34.9176C24.3824 35.2227 24.4399 35.58 24.4399 35.9896V36.3563H20.3746V35.5288H23.183C23.183 35.3366 23.1412 35.1663 23.0576 35.0179C22.974 34.8696 22.8581 34.7536 22.7097 34.67C22.5634 34.5843 22.3931 34.5415 22.1988 34.5415C21.9961 34.5415 21.8164 34.5885 21.6597 34.6825C21.5051 34.7745 21.3839 34.8988 21.2961 35.0555C21.2083 35.2102 21.1634 35.3826 21.1613 35.5727V36.3594C21.1613 36.5977 21.2052 36.8035 21.293 36.9769C21.3828 37.1504 21.5092 37.2841 21.6722 37.3781C21.8352 37.4722 22.0285 37.5192 22.2521 37.5192C22.4005 37.5192 22.5363 37.4983 22.6596 37.4565C22.7828 37.4147 22.8884 37.352 22.9761 37.2684C23.0639 37.1848 23.1308 37.0824 23.1767 36.9612L24.4117 37.0427C24.349 37.3395 24.2205 37.5986 24.0262 37.8201C23.8339 38.0395 23.5853 38.2108 23.2802 38.3341C22.9772 38.4553 22.6272 38.5159 22.2302 38.5159ZM29.5294 38.5159C29.0425 38.5159 28.6214 38.4125 28.2662 38.2056C27.9131 37.9966 27.6404 37.7062 27.4481 37.3342C27.2559 36.9602 27.1598 36.5266 27.1598 36.0335C27.1598 35.5361 27.2559 35.1015 27.4481 34.7296C27.6404 34.3555 27.9131 34.0651 28.2662 33.8582C28.6214 33.6492 29.0425 33.5448 29.5294 33.5448C30.0163 33.5448 30.4363 33.6492 30.7894 33.8582C31.1446 34.0651 31.4184 34.3555 31.6106 34.7296C31.8029 35.1015 31.899 35.5361 31.899 36.0335C31.899 36.5266 31.8029 36.9602 31.6106 37.3342C31.4184 37.7062 31.1446 37.9966 30.7894 38.2056C30.4363 38.4125 30.0163 38.5159 29.5294 38.5159ZM29.5356 37.4816C29.7571 37.4816 29.9421 37.4189 30.0904 37.2935C30.2388 37.166 30.3506 36.9926 30.4258 36.7732C30.5031 36.5538 30.5418 36.3041 30.5418 36.0241C30.5418 35.7441 30.5031 35.4943 30.4258 35.2749C30.3506 35.0555 30.2388 34.8821 30.0904 34.7546C29.9421 34.6272 29.7571 34.5634 29.5356 34.5634C29.3121 34.5634 29.124 34.6272 28.9715 34.7546C28.821 34.8821 28.7071 35.0555 28.6298 35.2749C28.5546 35.4943 28.517 35.7441 28.517 36.0241C28.517 36.3041 28.5546 36.5538 28.6298 36.7732C28.7071 36.9926 28.821 37.166 28.9715 37.2935C29.124 37.4189 29.3121 37.4816 29.5356 37.4816ZM35.3562 33.6074V34.6104H32.3848V33.6074H35.3562ZM33.065 38.4219V33.2595C33.065 32.9106 33.1329 32.6212 33.2687 32.3913C33.4066 32.1614 33.5947 31.989 33.8329 31.8741C34.0711 31.7592 34.3417 31.7017 34.6447 31.7017C34.8495 31.7017 35.0365 31.7174 35.2058 31.7487C35.3771 31.7801 35.5046 31.8083 35.5882 31.8334L35.3499 32.8364C35.2977 32.8197 35.2329 32.804 35.1556 32.7894C35.0804 32.7747 35.0031 32.7674 34.9237 32.7674C34.7272 32.7674 34.5904 32.8134 34.5131 32.9053C34.4358 32.9952 34.3971 33.1216 34.3971 33.2846V38.4219H33.065ZM39.3463 38.4219H37.8919L40.108 32.0026H41.857L44.0698 38.4219H42.6155L41.0075 33.4695H40.9574L39.3463 38.4219ZM39.2554 35.8987H42.6907V36.9581H39.2554V35.8987ZM44.8174 38.4219V33.6074H46.09V34.4569H46.1464C46.2467 34.1748 46.4138 33.9522 46.6479 33.7892C46.8819 33.6262 47.1619 33.5448 47.4879 33.5448C47.8181 33.5448 48.0991 33.6273 48.3311 33.7924C48.563 33.9554 48.7176 34.1769 48.7949 34.4569H48.8451C48.9433 34.181 49.1209 33.9606 49.3779 33.7955C49.6371 33.6283 49.9432 33.5448 50.2963 33.5448C50.7456 33.5448 51.1102 33.6879 51.3902 33.9742C51.6723 34.2584 51.8134 34.6616 51.8134 35.184V38.4219H50.4812V35.4473C50.4812 35.1799 50.4102 34.9793 50.2681 34.8455C50.126 34.7118 49.9484 34.6449 49.7353 34.6449C49.4929 34.6449 49.3038 34.7222 49.1679 34.8769C49.0321 35.0294 48.9642 35.2311 48.9642 35.4818V38.4219H47.6697V35.4191C47.6697 35.183 47.6018 34.9949 47.466 34.8549C47.3322 34.7149 47.1557 34.6449 46.9362 34.6449C46.7879 34.6449 46.6541 34.6825 46.535 34.7578C46.418 34.8309 46.325 34.9343 46.2561 35.0681C46.1871 35.1997 46.1526 35.3543 46.1526 35.532V38.4219H44.8174ZM55.0622 38.5159C54.5669 38.5159 54.1407 38.4156 53.7833 38.215C53.4281 38.0123 53.1544 37.726 52.9621 37.3562C52.7699 36.9842 52.6738 36.5444 52.6738 36.0366C52.6738 35.5414 52.7699 35.1067 52.9621 34.7327C53.1544 34.3587 53.425 34.0672 53.7739 33.8582C54.125 33.6492 54.5366 33.5448 55.0089 33.5448C55.3265 33.5448 55.6222 33.5959 55.8959 33.6983C56.1717 33.7986 56.412 33.9501 56.6168 34.1528C56.8237 34.3555 56.9846 34.6104 57.0995 34.9176C57.2145 35.2227 57.2719 35.58 57.2719 35.9896V36.3563H53.2066V35.5288H56.015C56.015 35.3366 55.9732 35.1663 55.8896 35.0179C55.8061 34.8696 55.6901 34.7536 55.5417 34.67C55.3955 34.5843 55.2252 34.5415 55.0308 34.5415C54.8281 34.5415 54.6484 34.5885 54.4917 34.6825C54.3371 34.7745 54.2159 34.8988 54.1281 35.0555C54.0404 35.2102 53.9954 35.3826 53.9933 35.5727V36.3594C53.9933 36.5977 54.0372 36.8035 54.125 36.9769C54.2148 37.1504 54.3413 37.2841 54.5042 37.3781C54.6672 37.4722 54.8605 37.5192 55.0841 37.5192C55.2325 37.5192 55.3683 37.4983 55.4916 37.4565C55.6149 37.4147 55.7204 37.352 55.8082 37.2684C55.8959 37.1848 55.9628 37.0824 56.0088 36.9612L57.2437 37.0427C57.181 37.3395 57.0525 37.5986 56.8582 37.8201C56.6659 38.0395 56.4173 38.2108 56.1122 38.3341C55.8092 38.4553 55.4592 38.5159 55.0622 38.5159ZM58.1433 38.4219V33.6074H59.4378V34.4475H59.4879C59.5757 34.1486 59.723 33.923 59.9299 33.7704C60.1368 33.6158 60.375 33.5385 60.6445 33.5385C60.7114 33.5385 60.7835 33.5427 60.8608 33.551C60.9381 33.5594 61.006 33.5709 61.0645 33.5855V34.7703C61.0018 34.7515 60.9151 34.7348 60.8044 34.7202C60.6936 34.7055 60.5923 34.6982 60.5003 34.6982C60.3039 34.6982 60.1284 34.741 59.9738 34.8267C59.8212 34.9103 59.7 35.0273 59.6102 35.1778C59.5224 35.3282 59.4785 35.5017 59.4785 35.6981V38.4219H58.1433ZM61.7549 38.4219V33.6074H63.0901V38.4219H61.7549ZM62.4256 32.9868C62.2271 32.9868 62.0568 32.921 61.9147 32.7894C61.7747 32.6556 61.7047 32.4958 61.7047 32.3098C61.7047 32.1259 61.7747 31.9682 61.9147 31.8365C62.0568 31.7028 62.2271 31.6359 62.4256 31.6359C62.6242 31.6359 62.7934 31.7028 62.9334 31.8365C63.0755 31.9682 63.1466 32.1259 63.1466 32.3098C63.1466 32.4958 63.0755 32.6556 62.9334 32.7894C62.7934 32.921 62.6242 32.9868 62.4256 32.9868ZM66.335 38.5159C65.8419 38.5159 65.4177 38.4114 65.0625 38.2025C64.7093 37.9914 64.4377 37.6989 64.2475 37.3248C64.0595 36.9508 63.9654 36.5203 63.9654 36.0335C63.9654 35.5403 64.0605 35.1078 64.2506 34.7358C64.4429 34.3618 64.7156 34.0703 65.0687 33.8613C65.4219 33.6503 65.8419 33.5448 66.3288 33.5448C66.7488 33.5448 67.1165 33.621 67.4321 33.7736C67.7476 33.9261 67.9973 34.1403 68.1812 34.4161C68.3651 34.6919 68.4664 35.0158 68.4852 35.3878H67.2252C67.1897 35.1475 67.0956 34.9542 66.9431 34.8079C66.7926 34.6596 66.5952 34.5854 66.3507 34.5854C66.1438 34.5854 65.9631 34.6418 65.8084 34.7546C65.6559 34.8654 65.5368 35.0273 65.4511 35.2405C65.3654 35.4536 65.3226 35.7117 65.3226 36.0147C65.3226 36.3218 65.3644 36.583 65.448 36.7983C65.5337 37.0135 65.6538 37.1775 65.8084 37.2904C65.9631 37.4032 66.1438 37.4596 66.3507 37.4596C66.5032 37.4596 66.6401 37.4283 66.7613 37.3656C66.8846 37.3029 66.9859 37.212 67.0653 37.0929C67.1468 36.9717 67.2001 36.8265 67.2252 36.6572H68.4852C68.4643 37.025 68.364 37.3489 68.1843 37.6289C68.0067 37.9068 67.7612 38.1241 67.4477 38.2808C67.1343 38.4375 66.7634 38.5159 66.335 38.5159ZM70.713 38.5128C70.4058 38.5128 70.1321 38.4595 69.8918 38.3529C69.6515 38.2443 69.4613 38.0844 69.3213 37.8734C69.1834 37.6602 69.1145 37.3948 69.1145 37.0772C69.1145 36.8098 69.1636 36.5851 69.2618 36.4033C69.36 36.2215 69.4937 36.0753 69.663 35.9645C69.8322 35.8538 70.0245 35.7702 70.2397 35.7138C70.457 35.6573 70.6848 35.6176 70.923 35.5946C71.203 35.5654 71.4287 35.5382 71.6 35.5132C71.7714 35.486 71.8957 35.4463 71.973 35.394C72.0503 35.3418 72.089 35.2645 72.089 35.1621V35.1433C72.089 34.9448 72.0263 34.7912 71.9009 34.6825C71.7776 34.5739 71.6021 34.5196 71.3744 34.5196C71.134 34.5196 70.9429 34.5728 70.8008 34.6794C70.6587 34.7839 70.5646 34.9155 70.5187 35.0743L69.2837 34.974C69.3464 34.6815 69.4697 34.4287 69.6536 34.2155C69.8375 34.0003 70.0746 33.8352 70.3651 33.7203C70.6576 33.6033 70.9961 33.5448 71.3806 33.5448C71.6481 33.5448 71.9041 33.5761 72.1485 33.6388C72.3951 33.7015 72.6135 33.7986 72.8036 33.9303C72.9959 34.0619 73.1474 34.2312 73.2581 34.4381C73.3689 34.6428 73.4242 34.8884 73.4242 35.1746V38.4219H72.158V37.7542H72.1203C72.043 37.9047 71.9396 38.0374 71.81 38.1523C71.6805 38.2652 71.5248 38.354 71.343 38.4187C71.1612 38.4814 70.9512 38.5128 70.713 38.5128ZM71.0954 37.5913C71.2918 37.5913 71.4652 37.5526 71.6157 37.4753C71.7662 37.3959 71.8842 37.2893 71.9699 37.1556C72.0556 37.0218 72.0984 36.8703 72.0984 36.7011V36.1902C72.0566 36.2173 71.9991 36.2424 71.926 36.2654C71.855 36.2863 71.7745 36.3062 71.6847 36.325C71.5948 36.3417 71.505 36.3574 71.4151 36.372C71.3252 36.3845 71.2438 36.396 71.1706 36.4065C71.0139 36.4294 70.877 36.466 70.76 36.5162C70.643 36.5663 70.5521 36.6342 70.4873 36.7199C70.4225 36.8035 70.3902 36.908 70.3902 37.0333C70.3902 37.2151 70.456 37.3541 70.5876 37.4502C70.7214 37.5442 70.8906 37.5913 71.0954 37.5913Z" fill="black"/>
<defs>
<clipPath id="clip0_7883_1003">
<rect width="66.3772" height="26.4794" fill="white" transform="translate(0.445312)"/>
</clipPath>
<clipPath id="clip1_7883_1003">
<rect width="66.1968" height="26.4787" fill="white" transform="matrix(1 0 0 -1 0.623047 26.4785)"/>
</clipPath>
</defs>
</svg>
