<svg width="416" height="485" viewBox="0 0 416 485" fill="none" xmlns="http://www.w3.org/2000/svg">
<path d="M439.911 484.543C489.091 425.913 513.521 350.443 508.026 274.115C502.531 197.787 467.544 126.594 410.472 75.6128C353.401 24.6318 278.727 -2.13406 202.265 0.983224C125.803 4.1005 53.556 36.8562 0.823958 92.3137L134.289 219.22C154.048 198.441 181.118 186.167 209.767 184.999C238.417 183.831 266.396 193.86 287.78 212.962C309.164 232.064 322.274 258.739 324.332 287.339C326.391 315.938 317.238 344.216 298.81 366.184L439.911 484.543Z" fill="url(#paint0_linear_6940_5411)"/>
<defs>
<linearGradient id="paint0_linear_6940_5411" x1="275.765" y1="-70.7065" x2="566.21" y2="240.886" gradientUnits="userSpaceOnUse">
<stop stop-color="#ED6214"/>
<stop offset="1" stop-color="#F98C37"/>
</linearGradient>
</defs>
</svg>
