<svg width="137" height="135" viewBox="0 0 137 135" fill="none" xmlns="http://www.w3.org/2000/svg">
<path d="M68 79.6875C73.1 75.0875 76.375 71.85 77.825 69.975C79.275 68.1 80 66.2375 80 64.3875C80 62.5875 79.35 61.0375 78.05 59.7375C76.75 58.4375 75.2 57.7875 73.4 57.7875C72.35 57.7875 71.3375 58 70.3625 58.425C69.3875 58.85 68.6 59.4375 68 60.1875C67.4 59.4375 66.625 58.85 65.675 58.425C64.725 58 63.7 57.7875 62.6 57.7875C60.8 57.7875 59.25 58.4375 57.95 59.7375C56.65 61.0375 56 62.5875 56 64.3875C56 65.3375 56.125 66.2125 56.375 67.0125C56.625 67.8125 57.175 68.75 58.025 69.825C58.875 70.9 60.0875 72.2125 61.6625 73.7625C63.2375 75.3125 65.35 77.2875 68 79.6875ZM68 97.6875C61.05 95.9375 55.3125 91.95 50.7875 85.725C46.2625 79.5 44 72.5875 44 64.9875V46.6875L68 37.6875L92 46.6875V64.9875C92 72.5875 89.7375 79.5 85.2125 85.725C80.6875 91.95 74.95 95.9375 68 97.6875ZM68 91.3875C73.2 89.7375 77.5 86.4375 80.9 81.4875C84.3 76.5375 86 71.0375 86 64.9875V50.8125L68 44.0625L50 50.8125V64.9875C50 71.0375 51.7 76.5375 55.1 81.4875C58.5 86.4375 62.8 89.7375 68 91.3875Z" fill="#CD2C00"/>
<path d="M128.295 42.7489C129.068 42.4264 129.435 41.5375 129.095 40.7719C125.21 32.0191 119.503 24.1883 112.348 17.8055C104.816 11.0859 95.8722 6.14254 86.1754 3.3398C76.4787 0.537069 66.2765 -0.0535385 56.3211 1.61153C46.3656 3.27659 36.9109 7.15486 28.6539 12.9604C20.3968 18.766 13.5481 26.3507 8.61268 35.1555C3.67722 43.9603 0.780873 53.7605 0.137197 63.8336C-0.506479 73.9068 1.1189 83.996 4.89353 93.3573C8.479 102.25 13.9168 110.27 20.8388 116.887C21.4442 117.466 22.4047 117.422 22.9697 116.803C23.5348 116.185 23.4902 115.227 22.8854 114.648C16.2982 108.337 11.1222 100.694 7.7065 92.2231C4.10162 83.2827 2.54931 73.6472 3.16404 64.0271C3.77878 54.4069 6.54488 45.0474 11.2584 36.6385C15.9719 28.2297 22.5126 20.986 30.3984 15.4415C38.2841 9.89706 47.3137 6.19318 56.8214 4.60299C66.3291 3.01281 76.0725 3.57685 85.3333 6.25355C94.594 8.93025 103.136 13.6513 110.329 20.0687C117.145 26.1494 122.585 33.606 126.295 41.9401C126.635 42.7053 127.522 43.0713 128.295 42.7489Z" fill="url(#paint0_linear_6940_5271)"/>
<path d="M133.059 40.9917C130.198 39.3394 126.538 40.3199 124.886 43.1819C123.233 46.0439 124.214 49.7034 127.076 51.3558C129.938 53.0082 133.597 52.0276 135.25 49.1656C136.902 46.3036 135.921 42.6441 133.059 40.9917ZM129.04 47.9538C128.057 47.3862 127.72 46.1291 128.288 45.146C128.855 44.1629 130.112 43.8261 131.095 44.3937C132.078 44.9613 132.415 46.2184 131.848 47.2015C131.28 48.1846 130.023 48.5214 129.04 47.9538Z" fill="url(#paint1_linear_6940_5271)"/>
<defs>
<linearGradient id="paint0_linear_6940_5271" x1="15.7451" y1="0.687511" x2="113.293" y2="0.687507" gradientUnits="userSpaceOnUse">
<stop stop-color="#0EA5E9"/>
<stop offset="1" stop-color="#FBBF24"/>
</linearGradient>
<linearGradient id="paint1_linear_6940_5271" x1="137.543" y1="45.1933" x2="133.216" y2="52.688" gradientUnits="userSpaceOnUse">
<stop stop-color="#F59E0B"/>
<stop offset="1" stop-color="#FBBF24"/>
</linearGradient>
</defs>
</svg>
