<svg width="38" height="36" viewBox="0 0 38 36" fill="none" xmlns="http://www.w3.org/2000/svg">
<path d="M19 0C9.06026 0 0.927734 8.11445 0.927734 18.1085C0.927734 27.1446 7.54218 34.6446 16.1807 36V23.3494H11.5904V18.1085H16.1807V14.1144C16.1807 9.5783 18.8735 7.08433 23.0121 7.08433C24.9819 7.08433 27.0422 7.4277 27.0422 7.4277V11.8916H24.7651C22.5241 11.8916 21.8193 13.2831 21.8193 14.7109V18.1085H26.8434L26.0301 23.3494H21.8193V36C26.0778 35.3274 29.9558 33.1545 32.7528 29.8735C35.5499 26.5927 37.082 22.4198 37.0723 18.1085C37.0723 8.11445 28.9398 0 19 0Z" fill="#0C4A6E"/>
</svg>
