<svg width="36" height="36" viewBox="0 0 36 36" fill="none" xmlns="http://www.w3.org/2000/svg">
<path d="M18 32.4C21.8191 32.4 25.4818 30.8829 28.1823 28.1823C30.8829 25.4818 32.4 21.8191 32.4 18C32.4 14.1809 30.8829 10.5182 28.1823 7.81766C25.4818 5.11714 21.8191 3.6 18 3.6C14.1809 3.6 10.5182 5.11714 7.81766 7.81766C5.11714 10.5182 3.6 14.1809 3.6 18C3.6 21.8191 5.11714 25.4818 7.81766 28.1823C10.5182 30.8829 14.1809 32.4 18 32.4ZM18 36C8.0586 36 0 27.9414 0 18C0 8.0586 8.0586 0 18 0C27.9414 0 36 8.0586 36 18C36 27.9414 27.9414 36 18 36Z" fill="#0C4A6E"/>
<ellipse cx="18.1363" cy="18.1042" rx="15.1304" ry="15.1042" fill="#0C4A6E"/>
<path d="M17.75 26.2528L14.4362 16.054H21.0638L17.75 26.2528ZM17.75 26.2528L9.79039 16.054H14.4344L17.75 26.2528ZM9.79039 16.054L17.75 26.2528L9.03259 19.9204C8.91518 19.8351 8.82787 19.7147 8.78323 19.5766C8.7386 19.4385 8.73893 19.2897 8.78419 19.1518L9.79219 16.0522L9.79039 16.054ZM9.79039 16.054L11.7884 9.91062C11.8105 9.84153 11.8539 9.78124 11.9125 9.73846C11.971 9.69569 12.0417 9.67263 12.1142 9.67263C12.1867 9.67263 12.2574 9.69569 12.3159 9.73846C12.3745 9.78124 12.4179 9.84153 12.44 9.91062L14.4362 16.054L9.79219 16.0522L9.79039 16.054ZM17.75 26.2528L21.0638 16.054L25.7078 16.0522L17.75 26.2528ZM25.7096 16.0522L26.7176 19.1518C26.7625 19.2901 26.7623 19.4391 26.717 19.5772C26.6717 19.7154 26.5836 19.8356 26.4656 19.9204L17.75 26.2528L25.7096 16.0522ZM25.7096 16.0522H21.0656L23.06 9.90882C23.0816 9.83905 23.125 9.77803 23.1838 9.73469C23.2425 9.69135 23.3137 9.66797 23.3867 9.66797C23.4597 9.66797 23.5308 9.69135 23.5896 9.73469C23.6484 9.77803 23.6918 9.83905 23.7134 9.90882L25.7096 16.0522Z" fill="white"/>
</svg>
