<svg width="36" height="36" viewBox="0 0 36 36" fill="none" xmlns="http://www.w3.org/2000/svg">
<path d="M18 0C8.05889 3.69128e-05 3.69128e-05 8.05889 0 18C3.79287e-05 27.9411 8.05889 36 18 36C27.9411 36 36 27.9411 36 18C36 8.05889 27.9411 3.79287e-05 18 0ZM27.3241 8.08459C28.0554 8.05793 28.609 8.7199 28.3123 9.90946L24.7459 26.7176C24.4969 27.9121 23.7747 28.1978 22.7748 27.6462L17.3412 23.6314C16.065 24.8722 14.9218 25.9835 14.7293 26.1719C14.4265 26.4676 14.1854 26.7156 13.6419 26.7156C12.9376 26.7156 13.0574 26.4491 12.8144 25.7783L10.8156 19.6509L5.59168 18.0198C4.43118 17.6643 4.42274 16.8671 5.85228 16.2935L26.7976 8.21489C26.977 8.13348 27.1553 8.09074 27.3241 8.08459ZM24.0018 11.6596C23.8443 11.6574 23.6302 11.7138 23.4098 11.8474L11.6358 19.2759L13.6194 25.359L14.0123 21.1722L24.0944 12.0756C24.3709 11.8301 24.2643 11.6632 24.0018 11.6596Z" fill="#0C4A6E"/>
</svg>
