<svg width="36" height="36" viewBox="0 0 36 36" fill="none" xmlns="http://www.w3.org/2000/svg">
<g clip-path="url(#clip0_8430_1952)">
<path d="M18 36C27.9411 36 36 27.9411 36 18C36 8.05887 27.9411 0 18 0C8.05887 0 0 8.05887 0 18C0 27.9411 8.05887 36 18 36Z" fill="#0C4A6E"/>
<path d="M26.3925 15.7535C26.3925 11.8512 23.8332 10.7051 23.8332 10.7051C22.5429 10.1109 20.3281 9.86484 18.0289 9.84375H17.9726C15.6734 9.86133 13.4586 10.1109 12.1683 10.7051C12.1683 10.7051 9.60894 11.8477 9.60894 15.7535C9.60894 16.6465 9.59136 17.7152 9.61949 18.8508C9.71089 22.6687 10.3191 26.4305 13.8488 27.3656C15.4765 27.7945 16.8722 27.8859 18.0007 27.8262C20.0433 27.7137 21.1894 27.0984 21.1894 27.0984L21.1226 25.6184C21.1226 25.6184 19.6636 26.0789 18.0253 26.0227C16.4011 25.9664 14.689 25.8469 14.4253 23.8535C14.4007 23.6672 14.3902 23.4809 14.3902 23.2945C14.3902 23.2945 15.9828 23.6848 18.0007 23.7762C19.2347 23.8324 20.3914 23.7023 21.5691 23.5652C23.8226 23.2945 25.7878 21.9059 26.0339 20.6367C26.4242 18.6363 26.3925 15.7535 26.3925 15.7535ZM23.3761 20.7844H21.5023V16.1965C21.5023 15.2297 21.0945 14.7375 20.2824 14.7375C19.3824 14.7375 18.9324 15.3211 18.9324 16.4707V18.9844H17.0691V16.4707C17.0691 15.3176 16.6191 14.7375 15.7191 14.7375C14.907 14.7375 14.4992 15.2297 14.4992 16.1965V20.7844H12.6253V16.0594C12.6253 15.0926 12.8714 14.3262 13.3671 13.7566C13.8769 13.1871 14.5449 12.8988 15.3711 12.8988C16.3308 12.8988 17.055 13.268 17.5367 14.0027L18.0007 14.7832L18.4683 14.0027C18.95 13.2645 19.6742 12.8988 20.6339 12.8988C21.4601 12.8988 22.1281 13.1906 22.6378 13.7566C23.13 14.3227 23.3761 15.0926 23.3761 16.0594V20.7844Z" fill="white"/>
</g>
<defs>
<clipPath id="clip0_8430_1952">
<rect width="36" height="36" fill="white"/>
</clipPath>
</defs>
</svg>
