<svg width="37" height="36" viewBox="0 0 37 36" fill="none" xmlns="http://www.w3.org/2000/svg">
<g clip-path="url(#clip0_8430_1941)">
<path d="M18.0723 0C8.13008 0 0.0722656 8.05781 0.0722656 18C0.0722656 27.9422 8.13008 36 18.0723 36C28.0145 36 36.0723 27.9422 36.0723 18C36.0723 8.05781 28.0145 0 18.0723 0ZM25.2582 15.2016C25.2652 15.3563 25.2652 15.518 25.2652 15.6797C25.2652 20.5664 21.5457 26.2055 14.7395 26.2055C12.6512 26.2055 10.7035 25.5938 9.07227 24.5461C9.36055 24.5813 9.65586 24.5953 9.9582 24.5953C11.6879 24.5953 13.284 24.0047 14.5496 23.0133C12.9324 22.9852 11.5613 21.9164 11.0973 20.4469C11.3223 20.4891 11.5543 20.5102 11.7934 20.5102C12.1309 20.5102 12.4613 20.468 12.7707 20.3766C11.0762 20.0391 9.80352 18.5414 9.80352 16.7484V16.7063C10.3027 16.9805 10.8723 17.1492 11.477 17.1703C10.4855 16.5094 9.83164 15.3703 9.83164 14.0906C9.83164 13.4156 10.0145 12.7758 10.3309 12.2273C12.159 14.4703 14.8801 15.9398 17.9527 16.0945C17.8895 15.8273 17.8543 15.5461 17.8543 15.2508C17.8543 13.2117 19.5137 11.5523 21.5527 11.5523C22.6145 11.5523 23.5777 12.0023 24.2527 12.7195C25.0965 12.5508 25.884 12.2484 26.6012 11.8195C26.327 12.6844 25.7363 13.4086 24.977 13.8656C25.7223 13.7742 26.4395 13.5773 27.1004 13.282C26.6082 14.0273 25.9824 14.6742 25.2582 15.2016Z" fill="#0C4A6E"/>
</g>
<defs>
<clipPath id="clip0_8430_1941">
<rect width="36" height="36" fill="white" transform="translate(0.0722656)"/>
</clipPath>
</defs>
</svg>
