<svg width="168" height="237" viewBox="0 0 168 237" fill="none" xmlns="http://www.w3.org/2000/svg">
<g clip-path="url(#clip0_7166_2029)">
<path d="M-221.058 -17.5887C-232.611 31.8402 -225.743 83.7567 -201.744 128.405C-177.745 173.053 -138.269 207.36 -90.7323 224.877C-43.1957 242.395 9.12808 241.918 56.4067 223.536C103.685 205.154 142.664 170.133 166.018 125.053L36.2053 57.8358C29.2759 71.2116 17.7105 81.6029 3.68234 87.057C-10.3458 92.5112 -25.8709 92.6527 -39.9756 87.455C-54.0802 82.2573 -65.7934 72.0782 -72.9141 58.8305C-80.0347 45.5828 -82.0726 30.1785 -78.6448 15.5124L-221.058 -17.5887Z" fill="#51C1F5"/>
<path d="M114.232 6.97363C104.243 6.97363 103.401 15.4578 102.315 26.7138C89.2533 23.9595 91.4517 32.9194 90.8575 37.5021C83.9825 34.5181 82.1493 45.3065 87.1743 46.9133H153.418C151.356 37.5021 150.898 34.7478 149.294 28.5503C147.689 22.3528 142.419 22.1231 138.065 26.7138C133.481 13.8597 127.982 6.97363 114.232 6.97363Z" fill="white"/>
</g>
<defs>
<clipPath id="clip0_7166_2029">
<rect width="168" height="236.468" fill="white"/>
</clipPath>
</defs>
</svg>
