<svg width="265" height="660" viewBox="0 0 265 660" fill="none" xmlns="http://www.w3.org/2000/svg">
<g clip-path="url(#clip0_6978_12272)">
<path d="M-364.649 253.414C-363.568 305.724 -348.298 357.87 -320.428 404.418C-292.559 450.966 -253.111 490.212 -206.195 518.067C-159.279 545.922 -106.612 561.366 -53.6819 562.789C-0.752249 564.213 50.5029 551.564 94.7423 526.161C138.982 500.758 174.586 463.531 197.846 418.358C221.106 373.185 231.169 321.72 226.988 269.327C222.806 216.933 204.532 165.528 174.071 120.468C143.61 75.4087 102.076 38.3435 53.7971 13.1352L-23.2807 175.125C-5.45462 184.433 9.88105 198.118 21.1283 214.756C32.3755 231.393 39.1227 250.374 40.6667 269.719C42.2106 289.064 38.4949 308.067 29.9068 324.746C21.3185 341.425 8.17219 355.171 -8.1624 364.55C-24.497 373.93 -43.422 378.6 -62.9652 378.075C-82.5085 377.549 -101.955 371.846 -119.278 361.562C-136.601 351.277 -151.166 336.786 -161.456 319.599C-171.747 302.412 -177.385 283.158 -177.784 263.843L-364.649 253.414Z" fill="url(#paint0_linear_6978_12272)"/>
<path d="M-348.693 259.256C-366.916 337.224 -356.082 419.116 -318.227 489.544C-280.372 559.971 -218.103 614.085 -143.119 641.717C-68.1361 669.349 14.3985 668.597 88.9749 639.602C163.551 610.606 225.035 555.364 261.874 484.256L57.1096 378.229C46.1793 399.328 27.9362 415.719 5.80848 424.322C-16.3192 432.925 -40.8082 433.148 -63.0567 424.95C-85.3051 416.751 -103.781 400.695 -115.013 379.798C-126.245 358.901 -129.46 334.603 -124.053 311.469L-348.693 259.256Z" fill="#51C1F5"/>
<path d="M180.188 84C164.433 84 163.103 97.3828 161.391 115.138C140.787 110.793 144.255 124.926 143.318 132.155C132.473 127.448 129.582 144.466 137.508 147H242C238.747 132.155 238.024 127.81 235.494 118.035C232.963 108.259 224.649 107.896 217.781 115.138C210.552 94.862 201.877 84 180.188 84Z" fill="white"/>
</g>
<defs>
<linearGradient id="paint0_linear_6978_12272" x1="180.822" y1="562.897" x2="-243.902" y2="595.886" gradientUnits="userSpaceOnUse">
<stop stop-color="#ED6214"/>
<stop offset="1" stop-color="#F98C37"/>
</linearGradient>
<clipPath id="clip0_6978_12272">
<rect width="265" height="660" fill="white"/>
</clipPath>
</defs>
</svg>
