<svg width="351" height="165" viewBox="0 0 351 165" fill="none" xmlns="http://www.w3.org/2000/svg">
<path d="M1 32C1 14.8792 14.8792 1 32 1H221C238.121 1 252 14.8792 252 32V107H32C14.8792 107 1 93.1208 1 76V32Z" stroke="#02517B" stroke-width="1.5" stroke-linecap="round"/>
<path d="M305.37 164.11C301.87 164.11 300.486 150.435 299.87 145.11L310.37 145.61C309.934 151.119 308.87 164.11 305.37 164.11Z" fill="#02517B"/>
<path d="M326.371 164.549C323.525 164.549 322.289 152.111 322.289 145.768H332.789C333.062 152.081 329.371 164.549 326.371 164.549Z" fill="#02517B"/>
<path d="M338.089 137.372C338.089 137.372 342.152 68.2158 335.904 67.3326C329.656 66.4495 327.943 78.8646 327.943 78.8646C327.943 78.8646 322.289 77.3609 315.289 77.3609C308.289 77.3609 301.871 78.8646 301.871 78.8646C301.089 72.8317 297.954 67.0456 294.22 67.5303C290.486 68.0151 293.883 136.145 293.883 136.145C290.724 136.555 285.79 138.361 286.29 141.361C287.476 148.482 343.79 147.861 345.29 142.861C346.461 138.955 338.089 137.372 338.089 137.372Z" fill="#02517B"/>
<path d="M297.769 100.453C296.685 95.3476 297.736 89.0915 300.892 86.6489C307.731 81.3564 327.678 84.9057 331.218 86.2026C335.644 87.8237 335.247 99.7725 332.66 103.352C330.183 106.779 299.472 108.475 297.769 100.453Z" fill="#EF6C1E"/>
<path d="M314.943 93.2712C314.943 93.2712 312.578 94.4395 309.879 94.1073C307.18 93.7751 305.098 92.6434 305.169 92.0684C305.24 91.4934 307.534 90.9001 310.233 91.2323C312.932 91.5645 314.943 93.2712 314.943 93.2712Z" fill="white"/>
<path fill-rule="evenodd" clip-rule="evenodd" d="M309.908 93.8602C310.535 93.9868 311.146 93.581 311.273 92.9538C311.399 92.3265 310.993 91.7153 310.366 91.5887C309.739 91.462 309.128 91.8679 309.001 92.4951C308.875 93.1224 309.28 93.7336 309.908 93.8602Z" fill="#06283C"/>
<path d="M328.047 93.3229C328.047 93.3229 325.824 94.7424 323.105 94.7068C320.385 94.6713 318.192 93.7736 318.2 93.1943C318.207 92.615 320.423 91.7749 323.143 91.8104C325.862 91.8459 328.047 93.3229 328.047 93.3229Z" fill="white"/>
<path fill-rule="evenodd" clip-rule="evenodd" d="M322.908 94.3661C323.535 94.4927 324.146 94.0869 324.273 93.4596C324.399 92.8324 323.993 92.2212 323.366 92.0945C322.739 91.9679 322.128 92.3737 322.001 93.001C321.875 93.6283 322.28 94.2394 322.908 94.3661Z" fill="#06283C"/>
<path d="M311.871 99.3467C313.871 100.847 317.371 101.847 321.134 98.6113" stroke="#02517B" stroke-linecap="round"/>
<path d="M338.369 106.111C338.369 106.111 342.869 115.111 343.869 130.111" stroke="#02517B" stroke-linecap="round"/>
<path d="M343.658 130.778C341.786 131.577 341.416 135.848 342.444 136.442C343.472 137.035 343.083 134.656 343.894 134.439C344.705 134.222 345.036 137.684 346.13 137.689C346.936 137.692 346.686 136.42 346.273 135.281C346.726 136.166 347.394 137.063 348.006 136.814C348.97 136.422 348.334 135.272 347.637 134.35C349.503 136.521 350.368 135.349 349.826 134.34C348.835 132.495 345.997 129.779 343.658 130.778Z" fill="white" stroke="#02517B" stroke-linecap="round"/>
<path d="M297.5 115.5C297.5 115.5 282 116.5 280 96" stroke="#02517B" stroke-linecap="round"/>
<path d="M279.803 95.8332C281.675 95.0338 282.045 90.7633 281.017 90.1697C279.989 89.5761 280.378 91.9548 279.567 92.1721C278.756 92.3894 278.425 88.9275 277.331 88.9227C276.525 88.9191 276.775 90.1914 277.188 91.3308C276.735 90.4457 276.067 89.5488 275.455 89.7978C274.491 90.1897 275.127 91.3394 275.824 92.2614C273.957 90.0908 273.093 91.2624 273.635 92.2718C274.626 94.1168 277.464 96.8325 279.803 95.8332Z" fill="white" stroke="#02517B" stroke-linecap="round"/>
<path d="M307.773 89.1953C308.512 88.6999 310.634 88.6492 311.757 89.5534" stroke="#02517B" stroke-width="0.8" stroke-linecap="round"/>
<path d="M323.805 89.1875C323.065 88.6949 320.942 88.6521 319.822 89.5605" stroke="#02517B" stroke-width="0.8" stroke-linecap="round"/>
<path d="M334.789 70.3613C333.675 71.2502 331.789 73.3613 331.289 77.8613" stroke="#06283C" stroke-width="0.8" stroke-linecap="round"/>
<path d="M295.789 70.8613C296.903 71.7502 298.789 74.3613 298.789 78.3613" stroke="#06283C" stroke-width="0.8" stroke-linecap="round"/>
<path d="M283 88C283.667 88.5 285 89.9 285 91.5" stroke="#02517B" stroke-linecap="round"/>
<path d="M273 97.5C272.333 97 271 95.6 271 94" stroke="#02517B" stroke-linecap="round"/>
<path d="M271 99.5C270.333 99 269 97.6 269 96" stroke="#02517B" stroke-linecap="round"/>
<path d="M285 86C285.667 86.5 287 87.9 287 89.5" stroke="#02517B" stroke-linecap="round"/>
<path d="M31.7727 30V28.9773C31.7727 28.6667 31.8277 28.3371 31.9375 27.9886C32.0511 27.6364 32.214 27.2973 32.4261 26.9716C32.642 26.642 32.9015 26.3561 33.2045 26.1136L33.9318 26.7045C33.6932 27.0455 33.4848 27.4015 33.3068 27.7727C33.1326 28.1402 33.0455 28.5341 33.0455 28.9545V30H31.7727ZM34.6818 30V28.9773C34.6818 28.6667 34.7367 28.3371 34.8466 27.9886C34.9602 27.6364 35.1231 27.2973 35.3352 26.9716C35.5511 26.642 35.8106 26.3561 36.1136 26.1136L36.8409 26.7045C36.6023 27.0455 36.3939 27.4015 36.2159 27.7727C36.0417 28.1402 35.9545 28.5341 35.9545 28.9545V30H34.6818ZM38.5028 38V26.3636H39.9119V31.5455H46.1165V26.3636H47.5256V38H46.1165V32.7955H39.9119V38H38.5028ZM50.1648 38V29.2727H51.5057V38H50.1648ZM50.8466 27.8182C50.5852 27.8182 50.3598 27.7292 50.1705 27.5511C49.9848 27.3731 49.892 27.1591 49.892 26.9091C49.892 26.6591 49.9848 26.4451 50.1705 26.267C50.3598 26.089 50.5852 26 50.8466 26C51.108 26 51.3314 26.089 51.517 26.267C51.7064 26.4451 51.8011 26.6591 51.8011 26.9091C51.8011 27.1591 51.7064 27.3731 51.517 27.5511C51.3314 27.7292 51.108 27.8182 50.8466 27.8182ZM55.9616 36.4091L55.8707 37.0227C55.8063 37.4545 55.7079 37.9167 55.5753 38.4091C55.4465 38.9015 55.312 39.3655 55.1719 39.8011C55.0317 40.2367 54.9162 40.5833 54.8253 40.8409H53.8026C53.8518 40.5985 53.9162 40.2784 53.9957 39.8807C54.0753 39.483 54.1548 39.0379 54.2344 38.5455C54.3177 38.0568 54.3859 37.5568 54.4389 37.0455L54.5071 36.4091H55.9616ZM64.5369 26.3636V38H63.1278V26.3636H64.5369ZM68.3622 26.3636V27.3864C68.3622 27.697 68.3054 28.0284 68.1918 28.3807C68.0819 28.7292 67.919 29.0682 67.7031 29.3977C67.491 29.7235 67.2334 30.0076 66.9304 30.25L66.2031 29.6591C66.4418 29.3182 66.6482 28.964 66.8224 28.5966C67.0005 28.2254 67.0895 27.8295 67.0895 27.4091V26.3636H68.3622ZM69.7898 38V29.2727H71.0852V30.6364H71.1989C71.3807 30.1705 71.6742 29.8087 72.0795 29.5511C72.4848 29.2898 72.9716 29.1591 73.5398 29.1591C74.1155 29.1591 74.5947 29.2898 74.9773 29.5511C75.3636 29.8087 75.6648 30.1705 75.8807 30.6364H75.9716C76.1951 30.1856 76.5303 29.8277 76.9773 29.5625C77.4242 29.2936 77.9602 29.1591 78.5852 29.1591C79.3655 29.1591 80.0038 29.4034 80.5 29.892C80.9962 30.3769 81.2443 31.1326 81.2443 32.1591V38H79.9034V32.1591C79.9034 31.5152 79.7273 31.0549 79.375 30.7784C79.0227 30.5019 78.608 30.3636 78.1307 30.3636C77.517 30.3636 77.0417 30.5492 76.7045 30.9205C76.3674 31.2879 76.1989 31.7538 76.1989 32.3182V38H74.8352V32.0227C74.8352 31.5265 74.6742 31.1269 74.3523 30.8239C74.0303 30.517 73.6155 30.3636 73.108 30.3636C72.7595 30.3636 72.4337 30.4564 72.1307 30.642C71.8314 30.8277 71.589 31.0852 71.4034 31.4148C71.2216 31.7405 71.1307 32.1174 71.1307 32.5455V38H69.7898ZM97.7415 30H96.3324C96.2491 29.5947 96.1032 29.2386 95.8949 28.9318C95.6903 28.625 95.4403 28.3674 95.1449 28.1591C94.8532 27.947 94.5294 27.7879 94.1733 27.6818C93.8172 27.5758 93.446 27.5227 93.0597 27.5227C92.3551 27.5227 91.7169 27.7008 91.1449 28.0568C90.5767 28.4129 90.1241 28.9375 89.7869 29.6307C89.4536 30.3239 89.2869 31.1742 89.2869 32.1818C89.2869 33.1894 89.4536 34.0398 89.7869 34.733C90.1241 35.4261 90.5767 35.9508 91.1449 36.3068C91.7169 36.6629 92.3551 36.8409 93.0597 36.8409C93.446 36.8409 93.8172 36.7879 94.1733 36.6818C94.5294 36.5758 94.8532 36.4186 95.1449 36.2102C95.4403 35.9981 95.6903 35.7386 95.8949 35.4318C96.1032 35.1212 96.2491 34.7652 96.3324 34.3636H97.7415C97.6354 34.9583 97.4422 35.4905 97.1619 35.9602C96.8816 36.4299 96.5331 36.8295 96.1165 37.1591C95.6998 37.4848 95.232 37.733 94.7131 37.9034C94.1979 38.0739 93.6468 38.1591 93.0597 38.1591C92.0672 38.1591 91.1847 37.9167 90.4119 37.4318C89.6392 36.947 89.0313 36.2576 88.5881 35.3636C88.1449 34.4697 87.9233 33.4091 87.9233 32.1818C87.9233 30.9545 88.1449 29.8939 88.5881 29C89.0313 28.1061 89.6392 27.4167 90.4119 26.9318C91.1847 26.447 92.0672 26.2045 93.0597 26.2045C93.6468 26.2045 94.1979 26.2898 94.7131 26.4602C95.232 26.6307 95.6998 26.8807 96.1165 27.2102C96.5331 27.536 96.8816 27.9337 97.1619 28.4034C97.4422 28.8693 97.6354 29.4015 97.7415 30ZM103.496 38.1818C102.655 38.1818 101.929 37.9962 101.32 37.625C100.714 37.25 100.246 36.7273 99.9162 36.0568C99.5904 35.3826 99.4276 34.5985 99.4276 33.7045C99.4276 32.8106 99.5904 32.0227 99.9162 31.3409C100.246 30.6553 100.704 30.1212 101.291 29.7386C101.882 29.3523 102.571 29.1591 103.359 29.1591C103.814 29.1591 104.263 29.2348 104.706 29.3864C105.149 29.5379 105.553 29.7841 105.916 30.125C106.28 30.4621 106.57 30.9091 106.786 31.4659C107.001 32.0227 107.109 32.7083 107.109 33.5227V34.0909H100.382V32.9318H105.746C105.746 32.4394 105.647 32 105.45 31.6136C105.257 31.2273 104.981 30.9223 104.621 30.6989C104.265 30.4754 103.844 30.3636 103.359 30.3636C102.825 30.3636 102.363 30.4962 101.973 30.7614C101.587 31.0227 101.289 31.3636 101.081 31.7841C100.873 32.2045 100.768 32.6553 100.768 33.1364V33.9091C100.768 34.5682 100.882 35.1269 101.109 35.5852C101.34 36.0398 101.661 36.3864 102.07 36.625C102.479 36.8598 102.954 36.9773 103.496 36.9773C103.848 36.9773 104.166 36.928 104.45 36.8295C104.738 36.7273 104.986 36.5758 105.195 36.375C105.403 36.1705 105.564 35.9167 105.678 35.6136L106.973 35.9773C106.837 36.4167 106.607 36.803 106.286 37.1364C105.964 37.4659 105.566 37.7235 105.092 37.9091C104.619 38.0909 104.087 38.1818 103.496 38.1818ZM110.49 32.75V38H109.149V29.2727H110.445V30.6364H110.558C110.763 30.1932 111.073 29.8371 111.49 29.5682C111.907 29.2955 112.445 29.1591 113.104 29.1591C113.695 29.1591 114.212 29.2803 114.655 29.5227C115.098 29.7614 115.443 30.125 115.689 30.6136C115.935 31.0985 116.058 31.7121 116.058 32.4545V38H114.717V32.5455C114.717 31.8598 114.539 31.3258 114.183 30.9432C113.827 30.5568 113.339 30.3636 112.717 30.3636C112.289 30.3636 111.907 30.4564 111.57 30.642C111.236 30.8277 110.973 31.0985 110.78 31.4545C110.587 31.8106 110.49 32.2424 110.49 32.75ZM122.054 38.1818C121.266 38.1818 120.575 37.9943 119.98 37.6193C119.389 37.2443 118.927 36.7197 118.594 36.0455C118.264 35.3712 118.099 34.5833 118.099 33.6818C118.099 32.7727 118.264 31.9792 118.594 31.3011C118.927 30.6231 119.389 30.0966 119.98 29.7216C120.575 29.3466 121.266 29.1591 122.054 29.1591C122.842 29.1591 123.531 29.3466 124.122 29.7216C124.717 30.0966 125.179 30.6231 125.509 31.3011C125.842 31.9792 126.009 32.7727 126.009 33.6818C126.009 34.5833 125.842 35.3712 125.509 36.0455C125.179 36.7197 124.717 37.2443 124.122 37.6193C123.531 37.9943 122.842 38.1818 122.054 38.1818ZM122.054 36.9773C122.652 36.9773 123.145 36.8239 123.531 36.517C123.918 36.2102 124.204 35.8068 124.389 35.3068C124.575 34.8068 124.668 34.2652 124.668 33.6818C124.668 33.0985 124.575 32.5549 124.389 32.0511C124.204 31.5473 123.918 31.1402 123.531 30.8295C123.145 30.5189 122.652 30.3636 122.054 30.3636C121.455 30.3636 120.963 30.5189 120.577 30.8295C120.19 31.1402 119.904 31.5473 119.719 32.0511C119.533 32.5549 119.44 33.0985 119.44 33.6818C119.44 34.2652 119.533 34.8068 119.719 35.3068C119.904 35.8068 120.19 36.2102 120.577 36.517C120.963 36.8239 121.455 36.9773 122.054 36.9773ZM128.055 38V29.2727H129.396V38H128.055ZM128.737 27.8182C128.476 27.8182 128.25 27.7292 128.061 27.5511C127.875 27.3731 127.783 27.1591 127.783 26.9091C127.783 26.6591 127.875 26.4451 128.061 26.267C128.25 26.089 128.476 26 128.737 26C128.999 26 129.222 26.089 129.408 26.267C129.597 26.4451 129.692 26.6591 129.692 26.9091C129.692 27.1591 129.597 27.3731 129.408 27.5511C129.222 27.7292 128.999 27.8182 128.737 27.8182ZM135.148 38.1818C134.42 38.1818 133.778 37.9981 133.222 37.6307C132.665 37.2595 132.229 36.7367 131.915 36.0625C131.6 35.3845 131.443 34.5833 131.443 33.6591C131.443 32.7424 131.6 31.947 131.915 31.2727C132.229 30.5985 132.667 30.0777 133.227 29.7102C133.788 29.3428 134.436 29.1591 135.17 29.1591C135.739 29.1591 136.188 29.2538 136.517 29.4432C136.85 29.6288 137.104 29.8409 137.278 30.0795C137.456 30.3144 137.595 30.5076 137.693 30.6591H137.807V26.3636H139.148V38H137.852V36.6591H137.693C137.595 36.8182 137.455 37.0189 137.273 37.2614C137.091 37.5 136.831 37.714 136.494 37.9034C136.157 38.089 135.708 38.1818 135.148 38.1818ZM135.33 36.9773C135.867 36.9773 136.322 36.8371 136.693 36.5568C137.064 36.2727 137.347 35.8807 137.54 35.3807C137.733 34.8769 137.83 34.2955 137.83 33.6364C137.83 32.9848 137.735 32.4148 137.545 31.9261C137.356 31.4337 137.076 31.0511 136.705 30.7784C136.333 30.5019 135.875 30.3636 135.33 30.3636C134.761 30.3636 134.288 30.5095 133.909 30.8011C133.534 31.089 133.252 31.4811 133.062 31.9773C132.877 32.4697 132.784 33.0227 132.784 33.6364C132.784 34.2576 132.879 34.822 133.068 35.3295C133.261 35.8333 133.545 36.2348 133.92 36.5341C134.299 36.8295 134.769 36.9773 135.33 36.9773ZM142.767 38.0909C142.487 38.0909 142.246 37.9905 142.045 37.7898C141.845 37.589 141.744 37.3485 141.744 37.0682C141.744 36.7879 141.845 36.5473 142.045 36.3466C142.246 36.1458 142.487 36.0455 142.767 36.0455C143.047 36.0455 143.288 36.1458 143.489 36.3466C143.689 36.5473 143.79 36.7879 143.79 37.0682C143.79 37.2538 143.742 37.4242 143.648 37.5795C143.557 37.7348 143.434 37.8598 143.278 37.9545C143.127 38.0455 142.956 38.0909 142.767 38.0909ZM152.287 26.3636V38H150.878V26.3636H152.287ZM154.93 38V29.2727H156.226V30.6364H156.339C156.521 30.1705 156.815 29.8087 157.22 29.5511C157.625 29.2898 158.112 29.1591 158.68 29.1591C159.256 29.1591 159.735 29.2898 160.118 29.5511C160.504 29.8087 160.805 30.1705 161.021 30.6364H161.112C161.336 30.1856 161.671 29.8277 162.118 29.5625C162.565 29.2936 163.101 29.1591 163.726 29.1591C164.506 29.1591 165.144 29.4034 165.641 29.892C166.137 30.3769 166.385 31.1326 166.385 32.1591V38H165.044V32.1591C165.044 31.5152 164.868 31.0549 164.516 30.7784C164.163 30.5019 163.749 30.3636 163.271 30.3636C162.658 30.3636 162.182 30.5492 161.845 30.9205C161.508 31.2879 161.339 31.7538 161.339 32.3182V38H159.976V32.0227C159.976 31.5265 159.815 31.1269 159.493 30.8239C159.171 30.517 158.756 30.3636 158.249 30.3636C157.9 30.3636 157.574 30.4564 157.271 30.642C156.972 30.8277 156.73 31.0852 156.544 31.4148C156.362 31.7405 156.271 32.1174 156.271 32.5455V38H154.93ZM174.678 32.75V38H173.337V26.3636H174.678V30.6364H174.791C174.996 30.1856 175.303 29.8277 175.712 29.5625C176.125 29.2936 176.674 29.1591 177.359 29.1591C177.954 29.1591 178.475 29.2784 178.922 29.517C179.369 29.7519 179.715 30.1136 179.962 30.6023C180.212 31.0871 180.337 31.7045 180.337 32.4545V38H178.996V32.5455C178.996 31.8523 178.816 31.3163 178.456 30.9375C178.1 30.5549 177.606 30.3636 176.973 30.3636C176.534 30.3636 176.14 30.4564 175.791 30.642C175.446 30.8277 175.174 31.0985 174.973 31.4545C174.776 31.8106 174.678 32.2424 174.678 32.75ZM186.449 38.1818C185.608 38.1818 184.883 37.9962 184.273 37.625C183.667 37.25 183.199 36.7273 182.869 36.0568C182.544 35.3826 182.381 34.5985 182.381 33.7045C182.381 32.8106 182.544 32.0227 182.869 31.3409C183.199 30.6553 183.657 30.1212 184.244 29.7386C184.835 29.3523 185.525 29.1591 186.312 29.1591C186.767 29.1591 187.216 29.2348 187.659 29.3864C188.102 29.5379 188.506 29.7841 188.869 30.125C189.233 30.4621 189.523 30.9091 189.739 31.4659C189.955 32.0227 190.062 32.7083 190.062 33.5227V34.0909H183.335V32.9318H188.699C188.699 32.4394 188.6 32 188.403 31.6136C188.21 31.2273 187.934 30.9223 187.574 30.6989C187.218 30.4754 186.797 30.3636 186.312 30.3636C185.778 30.3636 185.316 30.4962 184.926 30.7614C184.54 31.0227 184.242 31.3636 184.034 31.7841C183.826 32.2045 183.722 32.6553 183.722 33.1364V33.9091C183.722 34.5682 183.835 35.1269 184.062 35.5852C184.294 36.0398 184.614 36.3864 185.023 36.625C185.432 36.8598 185.907 36.9773 186.449 36.9773C186.801 36.9773 187.119 36.928 187.403 36.8295C187.691 36.7273 187.939 36.5758 188.148 36.375C188.356 36.1705 188.517 35.9167 188.631 35.6136L189.926 35.9773C189.79 36.4167 189.561 36.803 189.239 37.1364C188.917 37.4659 188.519 37.7235 188.045 37.9091C187.572 38.0909 187.04 38.1818 186.449 38.1818ZM192.102 38V29.2727H193.398V30.5909H193.489C193.648 30.1591 193.936 29.8087 194.352 29.5398C194.769 29.2708 195.239 29.1364 195.761 29.1364C195.86 29.1364 195.983 29.1383 196.131 29.142C196.278 29.1458 196.39 29.1515 196.466 29.1591V30.5227C196.42 30.5114 196.316 30.4943 196.153 30.4716C195.994 30.4451 195.826 30.4318 195.648 30.4318C195.223 30.4318 194.845 30.5208 194.511 30.6989C194.182 30.8731 193.92 31.1155 193.727 31.4261C193.538 31.733 193.443 32.0833 193.443 32.4773V38H192.102ZM201.449 38.1818C200.608 38.1818 199.883 37.9962 199.273 37.625C198.667 37.25 198.199 36.7273 197.869 36.0568C197.544 35.3826 197.381 34.5985 197.381 33.7045C197.381 32.8106 197.544 32.0227 197.869 31.3409C198.199 30.6553 198.657 30.1212 199.244 29.7386C199.835 29.3523 200.525 29.1591 201.312 29.1591C201.767 29.1591 202.216 29.2348 202.659 29.3864C203.102 29.5379 203.506 29.7841 203.869 30.125C204.233 30.4621 204.523 30.9091 204.739 31.4659C204.955 32.0227 205.062 32.7083 205.062 33.5227V34.0909H198.335V32.9318H203.699C203.699 32.4394 203.6 32 203.403 31.6136C203.21 31.2273 202.934 30.9223 202.574 30.6989C202.218 30.4754 201.797 30.3636 201.312 30.3636C200.778 30.3636 200.316 30.4962 199.926 30.7614C199.54 31.0227 199.242 31.3636 199.034 31.7841C198.826 32.2045 198.722 32.6553 198.722 33.1364V33.9091C198.722 34.5682 198.835 35.1269 199.062 35.5852C199.294 36.0398 199.614 36.3864 200.023 36.625C200.432 36.8598 200.907 36.9773 201.449 36.9773C201.801 36.9773 202.119 36.928 202.403 36.8295C202.691 36.7273 202.939 36.5758 203.148 36.375C203.356 36.1705 203.517 35.9167 203.631 35.6136L204.926 35.9773C204.79 36.4167 204.561 36.803 204.239 37.1364C203.917 37.4659 203.519 37.7235 203.045 37.9091C202.572 38.0909 202.04 38.1818 201.449 38.1818ZM36.0227 51.2727V52.4091H31.5V51.2727H36.0227ZM32.8182 49.1818H34.1591V57.5C34.1591 57.8788 34.214 58.1629 34.3239 58.3523C34.4375 58.5379 34.5814 58.6629 34.7557 58.7273C34.9337 58.7879 35.1212 58.8182 35.3182 58.8182C35.4659 58.8182 35.5871 58.8106 35.6818 58.7955C35.7765 58.7765 35.8523 58.7614 35.9091 58.75L36.1818 59.9545C36.0909 59.9886 35.964 60.0227 35.8011 60.0568C35.6383 60.0947 35.4318 60.1136 35.1818 60.1136C34.803 60.1136 34.4318 60.0322 34.0682 59.8693C33.7083 59.7064 33.4091 59.4583 33.1705 59.125C32.9356 58.7917 32.8182 58.3712 32.8182 57.8636V49.1818ZM41.4915 60.1818C40.7036 60.1818 40.0123 59.9943 39.4176 59.6193C38.8267 59.2443 38.3646 58.7197 38.0312 58.0455C37.7017 57.3712 37.5369 56.5833 37.5369 55.6818C37.5369 54.7727 37.7017 53.9792 38.0312 53.3011C38.3646 52.6231 38.8267 52.0966 39.4176 51.7216C40.0123 51.3466 40.7036 51.1591 41.4915 51.1591C42.2794 51.1591 42.9688 51.3466 43.5597 51.7216C44.1544 52.0966 44.6165 52.6231 44.946 53.3011C45.2794 53.9792 45.446 54.7727 45.446 55.6818C45.446 56.5833 45.2794 57.3712 44.946 58.0455C44.6165 58.7197 44.1544 59.2443 43.5597 59.6193C42.9688 59.9943 42.2794 60.1818 41.4915 60.1818ZM41.4915 58.9773C42.09 58.9773 42.5824 58.8239 42.9688 58.517C43.3551 58.2102 43.6411 57.8068 43.8267 57.3068C44.0123 56.8068 44.1051 56.2652 44.1051 55.6818C44.1051 55.0985 44.0123 54.5549 43.8267 54.0511C43.6411 53.5473 43.3551 53.1402 42.9688 52.8295C42.5824 52.5189 42.09 52.3636 41.4915 52.3636C40.893 52.3636 40.4006 52.5189 40.0142 52.8295C39.6278 53.1402 39.3419 53.5473 39.1562 54.0511C38.9706 54.5549 38.8778 55.0985 38.8778 55.6818C38.8778 56.2652 38.9706 56.8068 39.1562 57.3068C39.3419 57.8068 39.6278 58.2102 40.0142 58.517C40.4006 58.8239 40.893 58.9773 41.4915 58.9773ZM53.3338 54.75V60H51.9929V48.3636H53.3338V52.6364H53.4474C53.652 52.1856 53.9588 51.8277 54.3679 51.5625C54.7808 51.2936 55.33 51.1591 56.0156 51.1591C56.6103 51.1591 57.1312 51.2784 57.5781 51.517C58.0251 51.7519 58.3717 52.1136 58.6179 52.6023C58.8679 53.0871 58.9929 53.7045 58.9929 54.4545V60H57.652V54.5455C57.652 53.8523 57.4721 53.3163 57.1122 52.9375C56.7562 52.5549 56.2618 52.3636 55.6293 52.3636C55.1899 52.3636 54.7959 52.4564 54.4474 52.642C54.1027 52.8277 53.83 53.0985 53.6293 53.4545C53.4323 53.8106 53.3338 54.2424 53.3338 54.75ZM65.1051 60.1818C64.2642 60.1818 63.5388 59.9962 62.929 59.625C62.3229 59.25 61.8551 58.7273 61.5256 58.0568C61.1998 57.3826 61.0369 56.5985 61.0369 55.7045C61.0369 54.8106 61.1998 54.0227 61.5256 53.3409C61.8551 52.6553 62.3134 52.1212 62.9006 51.7386C63.4915 51.3523 64.1809 51.1591 64.9688 51.1591C65.4233 51.1591 65.8722 51.2348 66.3153 51.3864C66.7585 51.5379 67.1619 51.7841 67.5256 52.125C67.8892 52.4621 68.179 52.9091 68.3949 53.4659C68.6108 54.0227 68.7188 54.7083 68.7188 55.5227V56.0909H61.9915V54.9318H67.3551C67.3551 54.4394 67.2566 54 67.0597 53.6136C66.8665 53.2273 66.59 52.9223 66.2301 52.6989C65.8741 52.4754 65.4536 52.3636 64.9688 52.3636C64.4347 52.3636 63.9725 52.4962 63.5824 52.7614C63.196 53.0227 62.8987 53.3636 62.6903 53.7841C62.482 54.2045 62.3778 54.6553 62.3778 55.1364V55.9091C62.3778 56.5682 62.4915 57.1269 62.7188 57.5852C62.9498 58.0398 63.2699 58.3864 63.679 58.625C64.0881 58.8598 64.5634 58.9773 65.1051 58.9773C65.4574 58.9773 65.7756 58.928 66.0597 58.8295C66.3475 58.7273 66.5956 58.5758 66.804 58.375C67.0123 58.1705 67.1733 57.9167 67.2869 57.6136L68.5824 57.9773C68.446 58.4167 68.2169 58.803 67.8949 59.1364C67.5729 59.4659 67.1752 59.7235 66.7017 59.9091C66.2282 60.0909 65.696 60.1818 65.1051 60.1818ZM72.0994 48.3636V60H70.7585V48.3636H72.0994ZM74.5554 63.2727V51.2727H75.8509V52.6591H76.0099C76.1084 52.5076 76.2448 52.3144 76.419 52.0795C76.5971 51.8409 76.8509 51.6288 77.1804 51.4432C77.5137 51.2538 77.9645 51.1591 78.5327 51.1591C79.2675 51.1591 79.9152 51.3428 80.4759 51.7102C81.0365 52.0777 81.474 52.5985 81.7884 53.2727C82.1027 53.947 82.2599 54.7424 82.2599 55.6591C82.2599 56.5833 82.1027 57.3845 81.7884 58.0625C81.474 58.7367 81.0384 59.2595 80.4815 59.6307C79.9247 59.9981 79.2827 60.1818 78.5554 60.1818C77.9948 60.1818 77.5459 60.089 77.2088 59.9034C76.8717 59.714 76.6122 59.5 76.4304 59.2614C76.2486 59.0189 76.1084 58.8182 76.0099 58.6591H75.8963V63.2727H74.5554ZM75.8736 55.6364C75.8736 56.2955 75.9702 56.8769 76.1634 57.3807C76.3565 57.8807 76.6387 58.2727 77.0099 58.5568C77.3812 58.8371 77.8357 58.9773 78.3736 58.9773C78.9342 58.9773 79.402 58.8295 79.777 58.5341C80.1558 58.2348 80.4399 57.8333 80.6293 57.3295C80.8224 56.822 80.919 56.2576 80.919 55.6364C80.919 55.0227 80.8243 54.4697 80.6349 53.9773C80.4493 53.4811 80.1671 53.089 79.7884 52.8011C79.4134 52.5095 78.9418 52.3636 78.3736 52.3636C77.8281 52.3636 77.3698 52.5019 76.9986 52.7784C76.6274 53.0511 76.3471 53.4337 76.1577 53.9261C75.9683 54.4148 75.8736 54.9848 75.8736 55.6364ZM89.669 63.2727C89.4418 63.2727 89.2391 63.2538 89.0611 63.2159C88.883 63.1818 88.7599 63.1477 88.6918 63.1136L89.0327 61.9318C89.3584 62.0152 89.6463 62.0455 89.8963 62.0227C90.1463 62 90.3679 61.8883 90.5611 61.6875C90.758 61.4905 90.938 61.1705 91.1009 60.7273L91.3509 60.0455L88.1236 51.2727H89.5781L91.9872 58.2273H92.0781L94.4872 51.2727H95.9418L92.2372 61.2727C92.0705 61.7235 91.8641 62.0966 91.6179 62.392C91.3717 62.6913 91.0857 62.9129 90.7599 63.0568C90.438 63.2008 90.0743 63.2727 89.669 63.2727ZM100.945 60.1818C100.157 60.1818 99.4654 59.9943 98.8707 59.6193C98.2798 59.2443 97.8177 58.7197 97.4844 58.0455C97.1548 57.3712 96.9901 56.5833 96.9901 55.6818C96.9901 54.7727 97.1548 53.9792 97.4844 53.3011C97.8177 52.6231 98.2798 52.0966 98.8707 51.7216C99.4654 51.3466 100.157 51.1591 100.945 51.1591C101.732 51.1591 102.422 51.3466 103.013 51.7216C103.607 52.0966 104.07 52.6231 104.399 53.3011C104.732 53.9792 104.899 54.7727 104.899 55.6818C104.899 56.5833 104.732 57.3712 104.399 58.0455C104.07 58.7197 103.607 59.2443 103.013 59.6193C102.422 59.9943 101.732 60.1818 100.945 60.1818ZM100.945 58.9773C101.543 58.9773 102.036 58.8239 102.422 58.517C102.808 58.2102 103.094 57.8068 103.28 57.3068C103.465 56.8068 103.558 56.2652 103.558 55.6818C103.558 55.0985 103.465 54.5549 103.28 54.0511C103.094 53.5473 102.808 53.1402 102.422 52.8295C102.036 52.5189 101.543 52.3636 100.945 52.3636C100.346 52.3636 99.8537 52.5189 99.4673 52.8295C99.081 53.1402 98.795 53.5473 98.6094 54.0511C98.4238 54.5549 98.331 55.0985 98.331 55.6818C98.331 56.2652 98.4238 56.8068 98.6094 57.3068C98.795 57.8068 99.081 58.2102 99.4673 58.517C99.8537 58.8239 100.346 58.9773 100.945 58.9773ZM112.446 56.4318V51.2727H113.787V60H112.446V58.5227H112.355C112.151 58.9659 111.832 59.3428 111.401 59.6534C110.969 59.9602 110.423 60.1136 109.764 60.1136C109.219 60.1136 108.734 59.9943 108.31 59.7557C107.885 59.5133 107.552 59.1496 107.31 58.6648C107.067 58.1761 106.946 57.5606 106.946 56.8182V51.2727H108.287V56.7273C108.287 57.3636 108.465 57.8712 108.821 58.25C109.181 58.6288 109.639 58.8182 110.196 58.8182C110.529 58.8182 110.868 58.733 111.213 58.5625C111.562 58.392 111.853 58.1307 112.088 57.7784C112.327 57.4261 112.446 56.9773 112.446 56.4318ZM126.243 56.4318V51.2727H127.584V60H126.243V58.5227H126.152C125.947 58.9659 125.629 59.3428 125.197 59.6534C124.766 59.9602 124.22 60.1136 123.561 60.1136C123.016 60.1136 122.531 59.9943 122.107 59.7557C121.682 59.5133 121.349 59.1496 121.107 58.6648C120.864 58.1761 120.743 57.5606 120.743 56.8182V51.2727H122.084V56.7273C122.084 57.3636 122.262 57.8712 122.618 58.25C122.978 58.6288 123.436 58.8182 123.993 58.8182C124.326 58.8182 124.665 58.733 125.01 58.5625C125.358 58.392 125.65 58.1307 125.885 57.7784C126.124 57.4261 126.243 56.9773 126.243 56.4318ZM131.381 54.75V60H130.04V51.2727H131.335V52.6364H131.449C131.653 52.1932 131.964 51.8371 132.381 51.5682C132.797 51.2955 133.335 51.1591 133.994 51.1591C134.585 51.1591 135.102 51.2803 135.545 51.5227C135.989 51.7614 136.333 52.125 136.58 52.6136C136.826 53.0985 136.949 53.7121 136.949 54.4545V60H135.608V54.5455C135.608 53.8598 135.43 53.3258 135.074 52.9432C134.718 52.5568 134.229 52.3636 133.608 52.3636C133.18 52.3636 132.797 52.4564 132.46 52.642C132.127 52.8277 131.864 53.0985 131.67 53.4545C131.477 53.8106 131.381 54.2424 131.381 54.75ZM142.695 60.1818C141.967 60.1818 141.325 59.9981 140.768 59.6307C140.212 59.2595 139.776 58.7367 139.462 58.0625C139.147 57.3845 138.99 56.5833 138.99 55.6591C138.99 54.7424 139.147 53.947 139.462 53.2727C139.776 52.5985 140.214 52.0777 140.774 51.7102C141.335 51.3428 141.982 51.1591 142.717 51.1591C143.286 51.1591 143.734 51.2538 144.064 51.4432C144.397 51.6288 144.651 51.8409 144.825 52.0795C145.003 52.3144 145.142 52.5076 145.24 52.6591H145.354V48.3636H146.695V60H145.399V58.6591H145.24C145.142 58.8182 145.001 59.0189 144.82 59.2614C144.638 59.5 144.378 59.714 144.041 59.9034C143.704 60.089 143.255 60.1818 142.695 60.1818ZM142.876 58.9773C143.414 58.9773 143.869 58.8371 144.24 58.5568C144.611 58.2727 144.893 57.8807 145.087 57.3807C145.28 56.8769 145.376 56.2955 145.376 55.6364C145.376 54.9848 145.282 54.4148 145.092 53.9261C144.903 53.4337 144.623 53.0511 144.251 52.7784C143.88 52.5019 143.422 52.3636 142.876 52.3636C142.308 52.3636 141.835 52.5095 141.456 52.8011C141.081 53.089 140.799 53.4811 140.609 53.9773C140.424 54.4697 140.331 55.0227 140.331 55.6364C140.331 56.2576 140.426 56.822 140.615 57.3295C140.808 57.8333 141.092 58.2348 141.467 58.5341C141.846 58.8295 142.316 58.9773 142.876 58.9773ZM152.996 60.1818C152.155 60.1818 151.429 59.9962 150.82 59.625C150.214 59.25 149.746 58.7273 149.416 58.0568C149.09 57.3826 148.928 56.5985 148.928 55.7045C148.928 54.8106 149.09 54.0227 149.416 53.3409C149.746 52.6553 150.204 52.1212 150.791 51.7386C151.382 51.3523 152.071 51.1591 152.859 51.1591C153.314 51.1591 153.763 51.2348 154.206 51.3864C154.649 51.5379 155.053 51.7841 155.416 52.125C155.78 52.4621 156.07 52.9091 156.286 53.4659C156.501 54.0227 156.609 54.7083 156.609 55.5227V56.0909H149.882V54.9318H155.246C155.246 54.4394 155.147 54 154.95 53.6136C154.757 53.2273 154.481 52.9223 154.121 52.6989C153.765 52.4754 153.344 52.3636 152.859 52.3636C152.325 52.3636 151.863 52.4962 151.473 52.7614C151.087 53.0227 150.789 53.3636 150.581 53.7841C150.373 54.2045 150.268 54.6553 150.268 55.1364V55.9091C150.268 56.5682 150.382 57.1269 150.609 57.5852C150.84 58.0398 151.161 58.3864 151.57 58.625C151.979 58.8598 152.454 58.9773 152.996 58.9773C153.348 58.9773 153.666 58.928 153.95 58.8295C154.238 58.7273 154.486 58.5758 154.695 58.375C154.903 58.1705 155.064 57.9167 155.178 57.6136L156.473 57.9773C156.337 58.4167 156.107 58.803 155.786 59.1364C155.464 59.4659 155.066 59.7235 154.592 59.9091C154.119 60.0909 153.587 60.1818 152.996 60.1818ZM158.649 60V51.2727H159.945V52.5909H160.036C160.195 52.1591 160.482 51.8087 160.899 51.5398C161.316 51.2708 161.786 51.1364 162.308 51.1364C162.407 51.1364 162.53 51.1383 162.678 51.142C162.825 51.1458 162.937 51.1515 163.013 51.1591V52.5227C162.967 52.5114 162.863 52.4943 162.7 52.4716C162.541 52.4451 162.373 52.4318 162.195 52.4318C161.77 52.4318 161.392 52.5208 161.058 52.6989C160.729 52.8731 160.467 53.1155 160.274 53.4261C160.085 53.733 159.99 54.0833 159.99 54.4773V60H158.649ZM170.784 53.2273L169.58 53.5682C169.504 53.3674 169.392 53.1723 169.244 52.983C169.1 52.7898 168.903 52.6307 168.653 52.5057C168.403 52.3807 168.083 52.3182 167.693 52.3182C167.159 52.3182 166.714 52.4413 166.358 52.6875C166.006 52.9299 165.83 53.2386 165.83 53.6136C165.83 53.947 165.951 54.2102 166.193 54.4034C166.436 54.5966 166.814 54.7576 167.33 54.8864L168.625 55.2045C169.405 55.3939 169.987 55.6837 170.369 56.0739C170.752 56.4602 170.943 56.9583 170.943 57.5682C170.943 58.0682 170.799 58.5152 170.511 58.9091C170.227 59.303 169.83 59.6136 169.318 59.8409C168.807 60.0682 168.212 60.1818 167.534 60.1818C166.644 60.1818 165.907 59.9886 165.324 59.6023C164.741 59.2159 164.371 58.6515 164.216 57.9091L165.489 57.5909C165.61 58.0606 165.839 58.4129 166.176 58.6477C166.517 58.8826 166.962 59 167.511 59C168.136 59 168.633 58.8674 169 58.6023C169.371 58.3333 169.557 58.0114 169.557 57.6364C169.557 57.3333 169.451 57.0795 169.239 56.875C169.027 56.6667 168.701 56.5114 168.261 56.4091L166.807 56.0682C166.008 55.8788 165.42 55.5852 165.045 55.1875C164.674 54.786 164.489 54.2841 164.489 53.6818C164.489 53.1894 164.627 52.7538 164.903 52.375C165.184 51.9962 165.564 51.6989 166.045 51.483C166.53 51.267 167.08 51.1591 167.693 51.1591C168.557 51.1591 169.235 51.3485 169.727 51.7273C170.223 52.1061 170.576 52.6061 170.784 53.2273ZM176.757 51.2727V52.4091H172.234V51.2727H176.757ZM173.553 49.1818H174.893V57.5C174.893 57.8788 174.948 58.1629 175.058 58.3523C175.172 58.5379 175.316 58.6629 175.49 58.7273C175.668 58.7879 175.856 58.8182 176.053 58.8182C176.2 58.8182 176.321 58.8106 176.416 58.7955C176.511 58.7765 176.587 58.7614 176.643 58.75L176.916 59.9545C176.825 59.9886 176.698 60.0227 176.536 60.0568C176.373 60.0947 176.166 60.1136 175.916 60.1136C175.537 60.1136 175.166 60.0322 174.803 59.8693C174.443 59.7064 174.143 59.4583 173.905 59.125C173.67 58.7917 173.553 58.3712 173.553 57.8636V49.1818ZM181.342 60.2045C180.789 60.2045 180.287 60.1004 179.837 59.892C179.386 59.6799 179.028 59.375 178.763 58.9773C178.498 58.5758 178.365 58.0909 178.365 57.5227C178.365 57.0227 178.464 56.6174 178.661 56.3068C178.857 55.9924 179.121 55.7462 179.45 55.5682C179.78 55.3902 180.143 55.2576 180.541 55.1705C180.943 55.0795 181.346 55.0076 181.751 54.9545C182.282 54.8864 182.712 54.8352 183.041 54.8011C183.375 54.7633 183.617 54.7008 183.768 54.6136C183.924 54.5265 184.001 54.375 184.001 54.1591V54.1136C184.001 53.553 183.848 53.1174 183.541 52.8068C183.238 52.4962 182.778 52.3409 182.161 52.3409C181.52 52.3409 181.018 52.4811 180.655 52.7614C180.291 53.0417 180.036 53.3409 179.888 53.6591L178.615 53.2045C178.842 52.6742 179.145 52.2614 179.524 51.9659C179.907 51.6667 180.323 51.4583 180.774 51.3409C181.229 51.2197 181.676 51.1591 182.115 51.1591C182.395 51.1591 182.717 51.1932 183.081 51.2614C183.448 51.3258 183.803 51.4602 184.143 51.6648C184.488 51.8693 184.774 52.178 185.001 52.5909C185.229 53.0038 185.342 53.5568 185.342 54.25V60H184.001V58.8182H183.933C183.842 59.0076 183.691 59.2102 183.479 59.4261C183.267 59.642 182.984 59.8258 182.632 59.9773C182.28 60.1288 181.85 60.2045 181.342 60.2045ZM181.547 59C182.077 59 182.524 58.8958 182.888 58.6875C183.255 58.4792 183.532 58.2102 183.717 57.8807C183.907 57.5511 184.001 57.2045 184.001 56.8409V55.6136C183.945 55.6818 183.82 55.7443 183.626 55.8011C183.437 55.8542 183.217 55.9015 182.967 55.9432C182.721 55.9811 182.481 56.0152 182.246 56.0455C182.015 56.072 181.827 56.0947 181.683 56.1136C181.335 56.1591 181.009 56.233 180.706 56.3352C180.407 56.4337 180.164 56.5833 179.979 56.7841C179.797 56.9811 179.706 57.25 179.706 57.5909C179.706 58.0568 179.878 58.4091 180.223 58.6477C180.571 58.8826 181.013 59 181.547 59ZM189.131 54.75V60H187.79V51.2727H189.085V52.6364H189.199C189.403 52.1932 189.714 51.8371 190.131 51.5682C190.547 51.2955 191.085 51.1591 191.744 51.1591C192.335 51.1591 192.852 51.2803 193.295 51.5227C193.739 51.7614 194.083 52.125 194.33 52.6136C194.576 53.0985 194.699 53.7121 194.699 54.4545V60H193.358V54.5455C193.358 53.8598 193.18 53.3258 192.824 52.9432C192.468 52.5568 191.979 52.3636 191.358 52.3636C190.93 52.3636 190.547 52.4564 190.21 52.642C189.877 52.8277 189.614 53.0985 189.42 53.4545C189.227 53.8106 189.131 54.2424 189.131 54.75ZM200.445 60.1818C199.717 60.1818 199.075 59.9981 198.518 59.6307C197.962 59.2595 197.526 58.7367 197.212 58.0625C196.897 57.3845 196.74 56.5833 196.74 55.6591C196.74 54.7424 196.897 53.947 197.212 53.2727C197.526 52.5985 197.964 52.0777 198.524 51.7102C199.085 51.3428 199.732 51.1591 200.467 51.1591C201.036 51.1591 201.484 51.2538 201.814 51.4432C202.147 51.6288 202.401 51.8409 202.575 52.0795C202.753 52.3144 202.892 52.5076 202.99 52.6591H203.104V48.3636H204.445V60H203.149V58.6591H202.99C202.892 58.8182 202.751 59.0189 202.57 59.2614C202.388 59.5 202.128 59.714 201.791 59.9034C201.454 60.089 201.005 60.1818 200.445 60.1818ZM200.626 58.9773C201.164 58.9773 201.619 58.8371 201.99 58.5568C202.361 58.2727 202.643 57.8807 202.837 57.3807C203.03 56.8769 203.126 56.2955 203.126 55.6364C203.126 54.9848 203.032 54.4148 202.842 53.9261C202.653 53.4337 202.373 53.0511 202.001 52.7784C201.63 52.5019 201.172 52.3636 200.626 52.3636C200.058 52.3636 199.585 52.5095 199.206 52.8011C198.831 53.089 198.549 53.4811 198.359 53.9773C198.174 54.4697 198.081 55.0227 198.081 55.6364C198.081 56.2576 198.176 56.822 198.365 57.3295C198.558 57.8333 198.842 58.2348 199.217 58.5341C199.596 58.8295 200.066 58.9773 200.626 58.9773ZM34.7955 82.2045C34.2424 82.2045 33.7405 82.1004 33.2898 81.892C32.839 81.6799 32.4811 81.375 32.2159 80.9773C31.9508 80.5758 31.8182 80.0909 31.8182 79.5227C31.8182 79.0227 31.9167 78.6174 32.1136 78.3068C32.3106 77.9924 32.5739 77.7462 32.9034 77.5682C33.233 77.3902 33.5966 77.2576 33.9943 77.1705C34.3958 77.0795 34.7992 77.0076 35.2045 76.9545C35.7348 76.8864 36.1648 76.8352 36.4943 76.8011C36.8277 76.7633 37.0701 76.7008 37.2216 76.6136C37.3769 76.5265 37.4545 76.375 37.4545 76.1591V76.1136C37.4545 75.553 37.3011 75.1174 36.9943 74.8068C36.6913 74.4962 36.2311 74.3409 35.6136 74.3409C34.9735 74.3409 34.4716 74.4811 34.108 74.7614C33.7443 75.0417 33.4886 75.3409 33.3409 75.6591L32.0682 75.2045C32.2955 74.6742 32.5985 74.2614 32.9773 73.9659C33.3598 73.6667 33.7765 73.4583 34.2273 73.3409C34.6818 73.2197 35.1288 73.1591 35.5682 73.1591C35.8485 73.1591 36.1705 73.1932 36.5341 73.2614C36.9015 73.3258 37.2557 73.4602 37.5966 73.6648C37.9413 73.8693 38.2273 74.178 38.4545 74.5909C38.6818 75.0038 38.7955 75.5568 38.7955 76.25V82H37.4545V80.8182H37.3864C37.2955 81.0076 37.1439 81.2102 36.9318 81.4261C36.7197 81.642 36.4375 81.8258 36.0852 81.9773C35.733 82.1288 35.303 82.2045 34.7955 82.2045ZM35 81C35.5303 81 35.9773 80.8958 36.3409 80.6875C36.7083 80.4792 36.9848 80.2102 37.1705 79.8807C37.3598 79.5511 37.4545 79.2045 37.4545 78.8409V77.6136C37.3977 77.6818 37.2727 77.7443 37.0795 77.8011C36.8902 77.8542 36.6705 77.9015 36.4205 77.9432C36.1742 77.9811 35.9337 78.0152 35.6989 78.0455C35.4678 78.072 35.2803 78.0947 35.1364 78.1136C34.7879 78.1591 34.4621 78.233 34.1591 78.3352C33.8598 78.4337 33.6174 78.5833 33.4318 78.7841C33.25 78.9811 33.1591 79.25 33.1591 79.5909C33.1591 80.0568 33.3314 80.4091 33.6761 80.6477C34.0246 80.8826 34.4659 81 35 81ZM42.5838 76.75V82H41.2429V73.2727H42.5384V74.6364H42.652C42.8565 74.1932 43.1671 73.8371 43.5838 73.5682C44.0005 73.2955 44.5384 73.1591 45.1974 73.1591C45.7884 73.1591 46.3054 73.2803 46.7486 73.5227C47.1918 73.7614 47.5365 74.125 47.7827 74.6136C48.0289 75.0985 48.152 75.7121 48.152 76.4545V82H46.8111V76.5455C46.8111 75.8598 46.633 75.3258 46.277 74.9432C45.9209 74.5568 45.4323 74.3636 44.8111 74.3636C44.383 74.3636 44.0005 74.4564 43.6634 74.642C43.33 74.8277 43.0668 75.0985 42.8736 75.4545C42.6804 75.8106 42.5838 76.2424 42.5838 76.75ZM53.8977 82.1818C53.1705 82.1818 52.5284 81.9981 51.9716 81.6307C51.4148 81.2595 50.9792 80.7367 50.6648 80.0625C50.3504 79.3845 50.1932 78.5833 50.1932 77.6591C50.1932 76.7424 50.3504 75.947 50.6648 75.2727C50.9792 74.5985 51.4167 74.0777 51.9773 73.7102C52.5379 73.3428 53.1856 73.1591 53.9205 73.1591C54.4886 73.1591 54.9375 73.2538 55.267 73.4432C55.6004 73.6288 55.8542 73.8409 56.0284 74.0795C56.2064 74.3144 56.3447 74.5076 56.4432 74.6591H56.5568V70.3636H57.8977V82H56.6023V80.6591H56.4432C56.3447 80.8182 56.2045 81.0189 56.0227 81.2614C55.8409 81.5 55.5814 81.714 55.2443 81.9034C54.9072 82.089 54.4583 82.1818 53.8977 82.1818ZM54.0795 80.9773C54.6174 80.9773 55.072 80.8371 55.4432 80.5568C55.8144 80.2727 56.0966 79.8807 56.2898 79.3807C56.483 78.8769 56.5795 78.2955 56.5795 77.6364C56.5795 76.9848 56.4848 76.4148 56.2955 75.9261C56.1061 75.4337 55.8258 75.0511 55.4545 74.7784C55.0833 74.5019 54.625 74.3636 54.0795 74.3636C53.5114 74.3636 53.0379 74.5095 52.6591 74.8011C52.2841 75.089 52.0019 75.4811 51.8125 75.9773C51.6269 76.4697 51.5341 77.0227 51.5341 77.6364C51.5341 78.2576 51.6288 78.822 51.8182 79.3295C52.0114 79.8333 52.2955 80.2348 52.6705 80.5341C53.0492 80.8295 53.5189 80.9773 54.0795 80.9773ZM70.5398 78.4318V73.2727H71.8807V82H70.5398V80.5227H70.4489C70.2443 80.9659 69.9261 81.3428 69.4943 81.6534C69.0625 81.9602 68.517 82.1136 67.858 82.1136C67.3125 82.1136 66.8277 81.9943 66.4034 81.7557C65.9792 81.5133 65.6458 81.1496 65.4034 80.6648C65.161 80.1761 65.0398 79.5606 65.0398 78.8182V73.2727H66.3807V78.7273C66.3807 79.3636 66.5587 79.8712 66.9148 80.25C67.2746 80.6288 67.733 80.8182 68.2898 80.8182C68.6231 80.8182 68.9621 80.733 69.3068 80.5625C69.6553 80.392 69.947 80.1307 70.1818 79.7784C70.4205 79.4261 70.5398 78.9773 70.5398 78.4318ZM80.5185 75.2273L79.3139 75.5682C79.2382 75.3674 79.1264 75.1723 78.9787 74.983C78.8348 74.7898 78.6378 74.6307 78.3878 74.5057C78.1378 74.3807 77.8177 74.3182 77.4276 74.3182C76.8935 74.3182 76.4484 74.4413 76.0923 74.6875C75.7401 74.9299 75.5639 75.2386 75.5639 75.6136C75.5639 75.947 75.6851 76.2102 75.9276 76.4034C76.17 76.5966 76.5488 76.7576 77.0639 76.8864L78.3594 77.2045C79.1397 77.3939 79.7211 77.6837 80.1037 78.0739C80.4863 78.4602 80.6776 78.9583 80.6776 79.5682C80.6776 80.0682 80.5336 80.5152 80.2457 80.9091C79.9616 81.303 79.5639 81.6136 79.0526 81.8409C78.5412 82.0682 77.9465 82.1818 77.2685 82.1818C76.3783 82.1818 75.6416 81.9886 75.0582 81.6023C74.4749 81.2159 74.1056 80.6515 73.9503 79.9091L75.223 79.5909C75.3442 80.0606 75.5734 80.4129 75.9105 80.6477C76.2514 80.8826 76.6965 81 77.2457 81C77.8707 81 78.367 80.8674 78.7344 80.6023C79.1056 80.3333 79.2912 80.0114 79.2912 79.6364C79.2912 79.3333 79.1851 79.0795 78.973 78.875C78.7609 78.6667 78.4351 78.5114 77.9957 78.4091L76.5412 78.0682C75.742 77.8788 75.1548 77.5852 74.7798 77.1875C74.4086 76.786 74.223 76.2841 74.223 75.6818C74.223 75.1894 74.3613 74.7538 74.6378 74.375C74.9181 73.9962 75.2988 73.6989 75.7798 73.483C76.2647 73.267 76.8139 73.1591 77.4276 73.1591C78.2912 73.1591 78.9692 73.3485 79.4616 73.7273C79.9579 74.1061 80.3101 74.6061 80.5185 75.2273ZM86.3551 82.1818C85.5142 82.1818 84.7888 81.9962 84.179 81.625C83.5729 81.25 83.1051 80.7273 82.7756 80.0568C82.4498 79.3826 82.2869 78.5985 82.2869 77.7045C82.2869 76.8106 82.4498 76.0227 82.7756 75.3409C83.1051 74.6553 83.5634 74.1212 84.1506 73.7386C84.7415 73.3523 85.4309 73.1591 86.2188 73.1591C86.6733 73.1591 87.1222 73.2348 87.5653 73.3864C88.0085 73.5379 88.4119 73.7841 88.7756 74.125C89.1392 74.4621 89.429 74.9091 89.6449 75.4659C89.8608 76.0227 89.9688 76.7083 89.9688 77.5227V78.0909H83.2415V76.9318H88.6051C88.6051 76.4394 88.5066 76 88.3097 75.6136C88.1165 75.2273 87.84 74.9223 87.4801 74.6989C87.1241 74.4754 86.7036 74.3636 86.2188 74.3636C85.6847 74.3636 85.2225 74.4962 84.8324 74.7614C84.446 75.0227 84.1487 75.3636 83.9403 75.7841C83.732 76.2045 83.6278 76.6553 83.6278 77.1364V77.9091C83.6278 78.5682 83.7415 79.1269 83.9688 79.5852C84.1998 80.0398 84.5199 80.3864 84.929 80.625C85.3381 80.8598 85.8134 80.9773 86.3551 80.9773C86.7074 80.9773 87.0256 80.928 87.3097 80.8295C87.5975 80.7273 87.8456 80.5758 88.054 80.375C88.2623 80.1705 88.4233 79.9167 88.5369 79.6136L89.8324 79.9773C89.696 80.4167 89.4669 80.803 89.1449 81.1364C88.8229 81.4659 88.4252 81.7235 87.9517 81.9091C87.4782 82.0909 86.946 82.1818 86.3551 82.1818ZM106.054 74H104.645C104.562 73.5947 104.416 73.2386 104.207 72.9318C104.003 72.625 103.753 72.3674 103.457 72.1591C103.166 71.947 102.842 71.7879 102.486 71.6818C102.13 71.5758 101.759 71.5227 101.372 71.5227C100.668 71.5227 100.029 71.7008 99.4574 72.0568C98.8892 72.4129 98.4366 72.9375 98.0994 73.6307C97.7661 74.3239 97.5994 75.1742 97.5994 76.1818C97.5994 77.1894 97.7661 78.0398 98.0994 78.733C98.4366 79.4261 98.8892 79.9508 99.4574 80.3068C100.029 80.6629 100.668 80.8409 101.372 80.8409C101.759 80.8409 102.13 80.7879 102.486 80.6818C102.842 80.5758 103.166 80.4186 103.457 80.2102C103.753 79.9981 104.003 79.7386 104.207 79.4318C104.416 79.1212 104.562 78.7652 104.645 78.3636H106.054C105.948 78.9583 105.755 79.4905 105.474 79.9602C105.194 80.4299 104.846 80.8295 104.429 81.1591C104.012 81.4848 103.545 81.733 103.026 81.9034C102.51 82.0739 101.959 82.1591 101.372 82.1591C100.38 82.1591 99.4972 81.9167 98.7244 81.4318C97.9517 80.947 97.3438 80.2576 96.9006 79.3636C96.4574 78.4697 96.2358 77.4091 96.2358 76.1818C96.2358 74.9545 96.4574 73.8939 96.9006 73C97.3438 72.1061 97.9517 71.4167 98.7244 70.9318C99.4972 70.447 100.38 70.2045 101.372 70.2045C101.959 70.2045 102.51 70.2898 103.026 70.4602C103.545 70.6307 104.012 70.8807 104.429 71.2102C104.846 71.536 105.194 71.9337 105.474 72.4034C105.755 72.8693 105.948 73.4015 106.054 74ZM111.808 82.1818C110.967 82.1818 110.242 81.9962 109.632 81.625C109.026 81.25 108.558 80.7273 108.229 80.0568C107.903 79.3826 107.74 78.5985 107.74 77.7045C107.74 76.8106 107.903 76.0227 108.229 75.3409C108.558 74.6553 109.017 74.1212 109.604 73.7386C110.195 73.3523 110.884 73.1591 111.672 73.1591C112.126 73.1591 112.575 73.2348 113.018 73.3864C113.462 73.5379 113.865 73.7841 114.229 74.125C114.592 74.4621 114.882 74.9091 115.098 75.4659C115.314 76.0227 115.422 76.7083 115.422 77.5227V78.0909H108.695V76.9318H114.058C114.058 76.4394 113.96 76 113.763 75.6136C113.57 75.2273 113.293 74.9223 112.933 74.6989C112.577 74.4754 112.157 74.3636 111.672 74.3636C111.138 74.3636 110.676 74.4962 110.286 74.7614C109.899 75.0227 109.602 75.3636 109.393 75.7841C109.185 76.2045 109.081 76.6553 109.081 77.1364V77.9091C109.081 78.5682 109.195 79.1269 109.422 79.5852C109.653 80.0398 109.973 80.3864 110.382 80.625C110.791 80.8598 111.267 80.9773 111.808 80.9773C112.161 80.9773 112.479 80.928 112.763 80.8295C113.051 80.7273 113.299 80.5758 113.507 80.375C113.715 80.1705 113.876 79.9167 113.99 79.6136L115.286 79.9773C115.149 80.4167 114.92 80.803 114.598 81.1364C114.276 81.4659 113.878 81.7235 113.405 81.9091C112.931 82.0909 112.399 82.1818 111.808 82.1818ZM118.803 76.75V82H117.462V73.2727H118.757V74.6364H118.871C119.075 74.1932 119.386 73.8371 119.803 73.5682C120.219 73.2955 120.757 73.1591 121.416 73.1591C122.007 73.1591 122.524 73.2803 122.967 73.5227C123.411 73.7614 123.755 74.125 124.001 74.6136C124.248 75.0985 124.371 75.7121 124.371 76.4545V82H123.03V76.5455C123.03 75.8598 122.852 75.3258 122.496 74.9432C122.14 74.5568 121.651 74.3636 121.03 74.3636C120.602 74.3636 120.219 74.4564 119.882 74.642C119.549 74.8277 119.286 75.0985 119.092 75.4545C118.899 75.8106 118.803 76.2424 118.803 76.75ZM130.366 82.1818C129.579 82.1818 128.887 81.9943 128.293 81.6193C127.702 81.2443 127.24 80.7197 126.906 80.0455C126.577 79.3712 126.412 78.5833 126.412 77.6818C126.412 76.7727 126.577 75.9792 126.906 75.3011C127.24 74.6231 127.702 74.0966 128.293 73.7216C128.887 73.3466 129.579 73.1591 130.366 73.1591C131.154 73.1591 131.844 73.3466 132.435 73.7216C133.029 74.0966 133.491 74.6231 133.821 75.3011C134.154 75.9792 134.321 76.7727 134.321 77.6818C134.321 78.5833 134.154 79.3712 133.821 80.0455C133.491 80.7197 133.029 81.2443 132.435 81.6193C131.844 81.9943 131.154 82.1818 130.366 82.1818ZM130.366 80.9773C130.965 80.9773 131.457 80.8239 131.844 80.517C132.23 80.2102 132.516 79.8068 132.702 79.3068C132.887 78.8068 132.98 78.2652 132.98 77.6818C132.98 77.0985 132.887 76.5549 132.702 76.0511C132.516 75.5473 132.23 75.1402 131.844 74.8295C131.457 74.5189 130.965 74.3636 130.366 74.3636C129.768 74.3636 129.276 74.5189 128.889 74.8295C128.503 75.1402 128.217 75.5473 128.031 76.0511C127.846 76.5549 127.753 77.0985 127.753 77.6818C127.753 78.2652 127.846 78.8068 128.031 79.3068C128.217 79.8068 128.503 80.2102 128.889 80.517C129.276 80.8239 129.768 80.9773 130.366 80.9773ZM141.05 82V70.3636H142.391V74.6591H142.504C142.603 74.5076 142.739 74.3144 142.913 74.0795C143.091 73.8409 143.345 73.6288 143.675 73.4432C144.008 73.2538 144.459 73.1591 145.027 73.1591C145.762 73.1591 146.41 73.3428 146.97 73.7102C147.531 74.0777 147.968 74.5985 148.283 75.2727C148.597 75.947 148.754 76.7424 148.754 77.6591C148.754 78.5833 148.597 79.3845 148.283 80.0625C147.968 80.7367 147.533 81.2595 146.976 81.6307C146.419 81.9981 145.777 82.1818 145.05 82.1818C144.489 82.1818 144.04 82.089 143.703 81.9034C143.366 81.714 143.107 81.5 142.925 81.2614C142.743 81.0189 142.603 80.8182 142.504 80.6591H142.345V82H141.05ZM142.368 77.6364C142.368 78.2955 142.464 78.8769 142.658 79.3807C142.851 79.8807 143.133 80.2727 143.504 80.5568C143.875 80.8371 144.33 80.9773 144.868 80.9773C145.429 80.9773 145.896 80.8295 146.271 80.5341C146.65 80.2348 146.934 79.8333 147.124 79.3295C147.317 78.822 147.413 78.2576 147.413 77.6364C147.413 77.0227 147.319 76.4697 147.129 75.9773C146.944 75.4811 146.661 75.089 146.283 74.8011C145.908 74.5095 145.436 74.3636 144.868 74.3636C144.322 74.3636 143.864 74.5019 143.493 74.7784C143.122 75.0511 142.841 75.4337 142.652 75.9261C142.463 76.4148 142.368 76.9848 142.368 77.6364ZM154.464 82.1818C153.624 82.1818 152.898 81.9962 152.288 81.625C151.682 81.25 151.214 80.7273 150.885 80.0568C150.559 79.3826 150.396 78.5985 150.396 77.7045C150.396 76.8106 150.559 76.0227 150.885 75.3409C151.214 74.6553 151.673 74.1212 152.26 73.7386C152.851 73.3523 153.54 73.1591 154.328 73.1591C154.783 73.1591 155.232 73.2348 155.675 73.3864C156.118 73.5379 156.521 73.7841 156.885 74.125C157.249 74.4621 157.538 74.9091 157.754 75.4659C157.97 76.0227 158.078 76.7083 158.078 77.5227V78.0909H151.351V76.9318H156.714C156.714 76.4394 156.616 76 156.419 75.6136C156.226 75.2273 155.949 74.9223 155.589 74.6989C155.233 74.4754 154.813 74.3636 154.328 74.3636C153.794 74.3636 153.332 74.4962 152.942 74.7614C152.555 75.0227 152.258 75.3636 152.05 75.7841C151.841 76.2045 151.737 76.6553 151.737 77.1364V77.9091C151.737 78.5682 151.851 79.1269 152.078 79.5852C152.309 80.0398 152.629 80.3864 153.038 80.625C153.447 80.8598 153.923 80.9773 154.464 80.9773C154.817 80.9773 155.135 80.928 155.419 80.8295C155.707 80.7273 155.955 80.5758 156.163 80.375C156.372 80.1705 156.533 79.9167 156.646 79.6136L157.942 79.9773C157.805 80.4167 157.576 80.803 157.254 81.1364C156.932 81.4659 156.535 81.7235 156.061 81.9091C155.588 82.0909 155.055 82.1818 154.464 82.1818ZM163.913 73.2727V74.4091H159.391V73.2727H163.913ZM160.709 71.1818H162.05V79.5C162.05 79.8788 162.105 80.1629 162.214 80.3523C162.328 80.5379 162.472 80.6629 162.646 80.7273C162.824 80.7879 163.012 80.8182 163.209 80.8182C163.357 80.8182 163.478 80.8106 163.572 80.7955C163.667 80.7765 163.743 80.7614 163.8 80.75L164.072 81.9545C163.982 81.9886 163.855 82.0227 163.692 82.0568C163.529 82.0947 163.322 82.1136 163.072 82.1136C162.694 82.1136 162.322 82.0322 161.959 81.8693C161.599 81.7064 161.3 81.4583 161.061 81.125C160.826 80.7917 160.709 80.3712 160.709 79.8636V71.1818ZM169.726 73.2727V74.4091H165.203V73.2727H169.726ZM166.521 71.1818H167.862V79.5C167.862 79.8788 167.917 80.1629 168.027 80.3523C168.141 80.5379 168.285 80.6629 168.459 80.7273C168.637 80.7879 168.824 80.8182 169.021 80.8182C169.169 80.8182 169.29 80.8106 169.385 80.7955C169.48 80.7765 169.555 80.7614 169.612 80.75L169.885 81.9545C169.794 81.9886 169.667 82.0227 169.504 82.0568C169.341 82.0947 169.135 82.1136 168.885 82.1136C168.506 82.1136 168.135 82.0322 167.771 81.8693C167.411 81.7064 167.112 81.4583 166.874 81.125C166.639 80.7917 166.521 80.3712 166.521 79.8636V71.1818ZM175.308 82.1818C174.467 82.1818 173.742 81.9962 173.132 81.625C172.526 81.25 172.058 80.7273 171.729 80.0568C171.403 79.3826 171.24 78.5985 171.24 77.7045C171.24 76.8106 171.403 76.0227 171.729 75.3409C172.058 74.6553 172.517 74.1212 173.104 73.7386C173.695 73.3523 174.384 73.1591 175.172 73.1591C175.626 73.1591 176.075 73.2348 176.518 73.3864C176.962 73.5379 177.365 73.7841 177.729 74.125C178.092 74.4621 178.382 74.9091 178.598 75.4659C178.814 76.0227 178.922 76.7083 178.922 77.5227V78.0909H172.195V76.9318H177.558C177.558 76.4394 177.46 76 177.263 75.6136C177.07 75.2273 176.793 74.9223 176.433 74.6989C176.077 74.4754 175.657 74.3636 175.172 74.3636C174.638 74.3636 174.176 74.4962 173.786 74.7614C173.399 75.0227 173.102 75.3636 172.893 75.7841C172.685 76.2045 172.581 76.6553 172.581 77.1364V77.9091C172.581 78.5682 172.695 79.1269 172.922 79.5852C173.153 80.0398 173.473 80.3864 173.882 80.625C174.291 80.8598 174.767 80.9773 175.308 80.9773C175.661 80.9773 175.979 80.928 176.263 80.8295C176.551 80.7273 176.799 80.5758 177.007 80.375C177.215 80.1705 177.376 79.9167 177.49 79.6136L178.786 79.9773C178.649 80.4167 178.42 80.803 178.098 81.1364C177.776 81.4659 177.378 81.7235 176.905 81.9091C176.431 82.0909 175.899 82.1818 175.308 82.1818ZM180.962 82V73.2727H182.257V74.5909H182.348C182.507 74.1591 182.795 73.8087 183.212 73.5398C183.628 73.2708 184.098 73.1364 184.621 73.1364C184.719 73.1364 184.842 73.1383 184.99 73.142C185.138 73.1458 185.25 73.1515 185.325 73.1591V74.5227C185.28 74.5114 185.176 74.4943 185.013 74.4716C184.854 74.4451 184.685 74.4318 184.507 74.4318C184.083 74.4318 183.704 74.5208 183.371 74.6989C183.041 74.8731 182.78 75.1155 182.587 75.4261C182.397 75.733 182.303 76.0833 182.303 76.4773V82H180.962ZM186.892 82.0909C186.612 82.0909 186.371 81.9905 186.17 81.7898C185.97 81.589 185.869 81.3485 185.869 81.0682C185.869 80.7879 185.97 80.5473 186.17 80.3466C186.371 80.1458 186.612 80.0455 186.892 80.0455C187.172 80.0455 187.413 80.1458 187.614 80.3466C187.814 80.5473 187.915 80.7879 187.915 81.0682C187.915 81.2538 187.867 81.4242 187.773 81.5795C187.682 81.7348 187.559 81.8598 187.403 81.9545C187.252 82.0455 187.081 82.0909 186.892 82.0909ZM190.597 70.3636V71.3864C190.597 71.697 190.54 72.0284 190.426 72.3807C190.316 72.7292 190.153 73.0682 189.938 73.3977C189.725 73.7235 189.468 74.0076 189.165 74.25L188.438 73.6591C188.676 73.3182 188.883 72.964 189.057 72.5966C189.235 72.2254 189.324 71.8295 189.324 71.4091V70.3636H190.597ZM193.506 70.3636V71.3864C193.506 71.697 193.449 72.0284 193.335 72.3807C193.225 72.7292 193.062 73.0682 192.847 73.3977C192.634 73.7235 192.377 74.0076 192.074 74.25L191.347 73.6591C191.585 73.3182 191.792 72.964 191.966 72.5966C192.144 72.2254 192.233 71.8295 192.233 71.4091V70.3636H193.506Z" fill="#0B3954"/>
</svg>
