<svg width="126" height="185" viewBox="0 0 126 185" fill="none" xmlns="http://www.w3.org/2000/svg">
<path d="M50.4541 183.402C44.1907 183.402 41.7132 158.93 40.6124 149.402L59.4016 150.296C58.6214 160.155 56.7174 183.402 50.4541 183.402Z" fill="#0EA5E9"/>
<path d="M88.0343 184.187C82.9424 184.187 80.7305 161.929 80.7305 150.578H99.5199C100.008 161.876 93.4027 184.187 88.0343 184.187Z" fill="#0EA5E9"/>
<path d="M109.004 135.556C109.004 135.556 116.275 11.8017 105.094 10.2213C93.9127 8.64094 90.8471 30.8574 90.8471 30.8574C90.8471 30.8574 80.731 28.1667 68.2047 28.1667C55.6784 28.1667 44.1931 30.8574 44.1931 30.8574C42.7927 20.0618 37.1837 9.70767 30.5013 10.5751C23.8188 11.4426 29.899 133.359 29.899 133.359C24.2446 134.093 15.4154 137.325 16.3101 142.694C18.4339 155.437 119.205 154.325 121.889 145.378C123.986 138.389 109.004 135.556 109.004 135.556Z" fill="#0EA5E9"/>
<path d="M36.8515 69.488C34.9119 60.3527 36.7924 49.1575 42.4401 44.7867C54.6778 35.3158 90.3722 41.6672 96.708 43.988C104.628 46.8889 103.917 68.271 99.2883 74.6755C94.8555 80.8089 39.8994 83.8433 36.8515 69.488Z" fill="#EF6C1E"/>
<path d="M55.1563 47.4561C56.4773 46.5696 60.2748 46.4788 62.2854 48.0968" stroke="#02517B" stroke-width="1.43158" stroke-linecap="round"/>
<path d="M83.8437 47.4424C82.5194 46.5608 78.7216 46.4842 76.717 48.1098" stroke="#02517B" stroke-width="1.43158" stroke-linecap="round"/>
<path d="M62 69.3714C66.5 75 73.5 75.5 79 68L62 69.3714Z" fill="#06283C" stroke="#06283C" stroke-width="1.78947" stroke-linecap="round" stroke-linejoin="round"/>
<path d="M57.8419 62.6314L52.528 57.3842C52.1041 56.9656 51.8215 56.479 51.6802 55.9244C51.5424 55.3697 51.5441 54.8184 51.6854 54.2706C51.8267 53.7193 52.1076 53.2395 52.528 52.8312C52.9588 52.4126 53.4498 52.1353 54.0012 51.9992C54.556 51.8597 55.1091 51.8597 55.6605 51.9992C56.2154 52.1387 56.7082 52.416 57.1389 52.8312L57.8419 53.5049L58.545 52.8312C58.9792 52.416 59.472 52.1387 60.0233 51.9992C60.5747 51.8597 61.1261 51.8597 61.6775 51.9992C62.2323 52.1353 62.7251 52.4126 63.1559 52.8312C63.5763 53.2395 63.8572 53.7193 63.9985 54.2706C64.1398 54.8184 64.1398 55.3697 63.9985 55.9244C63.8606 56.479 63.5798 56.9656 63.1559 57.3842L57.8419 62.6314Z" fill="#E20000"/>
<path d="M81.1076 62.6314L75.7936 57.3842C75.3697 56.9656 75.0871 56.479 74.9459 55.9244C74.808 55.3697 74.8097 54.8184 74.951 54.2706C75.0923 53.7193 75.3732 53.2395 75.7936 52.8312C76.2244 52.4126 76.7155 52.1353 77.2668 51.9992C77.8217 51.8597 78.3748 51.8597 78.9262 51.9992C79.481 52.1387 79.9738 52.416 80.4045 52.8312L81.1076 53.5049L81.8106 52.8312C82.2448 52.416 82.7376 52.1387 83.289 51.9992C83.8404 51.8597 84.3917 51.8597 84.9431 51.9992C85.4979 52.1353 85.9907 52.4126 86.4215 52.8312C86.8419 53.2395 87.1228 53.7193 87.2641 54.2706C87.4054 54.8184 87.4054 55.3697 87.2641 55.9244C87.1263 56.479 86.8454 56.9656 86.4215 57.3842L81.1076 62.6314Z" fill="#E20000"/>
<path d="M81.0598 99.7476C84.6925 99.4922 87.8207 92.4883 86.4299 90.8823C85.0392 89.2762 84.3036 93.5264 82.8053 93.4188C81.3071 93.3112 82.7743 87.2632 80.9277 86.6144C79.5672 86.1364 79.2451 88.4343 79.2754 90.6026C79.0281 88.8407 78.4243 86.9329 77.243 86.9951C75.3837 87.0931 75.7858 89.4098 76.4237 91.377C74.5395 86.6134 72.391 88.0879 72.7163 90.1121C73.311 93.8123 76.5189 100.067 81.0598 99.7476Z" fill="white" stroke="#02517B" stroke-width="1.78947" stroke-linecap="round"/>
<path d="M82.0945 98.795C78.6215 97.6998 77.2122 90.1595 78.9391 88.922C80.6659 87.6844 80.3904 91.989 81.8724 92.2336C83.3545 92.4782 83.3376 86.2549 85.2846 86.0544C86.719 85.9067 86.4965 88.2164 85.9616 90.3179C86.6128 88.6622 87.6448 86.9478 88.779 87.2837C90.5643 87.8124 89.6331 89.9715 88.5543 91.7358C91.4971 87.5427 93.2426 89.4775 92.4544 91.3701C91.0134 94.8297 86.4358 100.164 82.0945 98.795Z" fill="white" stroke="#02517B" stroke-width="1.78947" stroke-linecap="round"/>
<path d="M29.8753 84.7461C29.8753 84.7461 55 151 82.5 99.5" stroke="#02517B" stroke-width="1.78947" stroke-linecap="round"/>
<path d="M109.275 84.6211C109.275 84.6211 108.5 151 81 99.5" stroke="#02517B" stroke-width="1.78947" stroke-linecap="round"/>
<path d="M103.099 15.6406C101.105 17.2313 97.7307 21.009 96.8359 29.0617" stroke="#02517B" stroke-width="1.43158" stroke-linecap="round"/>
<path d="M33.3109 16.5361C35.3054 18.1268 38.6797 22.7993 38.6797 29.9572" stroke="#02517B" stroke-width="1.43158" stroke-linecap="round"/>
</svg>
