<svg width="127" height="183" viewBox="0 0 127 183" fill="none" xmlns="http://www.w3.org/2000/svg">
<path d="M50.8101 182.217C44.564 182.217 42.0934 157.813 40.9957 148.311L59.7328 149.203C58.9548 159.035 57.0561 182.217 50.8101 182.217Z" fill="#0EA5E9"/>
<path d="M88.2875 183C83.2097 183 81.0039 160.804 81.0039 149.484H99.7413C100.228 160.751 93.641 183 88.2875 183Z" fill="#0EA5E9"/>
<path d="M109.197 134.503C109.197 134.503 116.448 11.0921 105.298 9.51614C94.1476 7.94017 91.0905 30.0951 91.0905 30.0951C91.0905 30.0951 81.0024 27.4118 68.5108 27.4118C56.0192 27.4118 44.5658 30.0951 44.5658 30.0951C43.1693 19.3294 37.5758 9.00393 30.9119 9.86898C24.248 10.734 30.3113 132.313 30.3113 132.313C24.6726 133.044 15.8678 136.268 16.76 141.621C18.878 154.329 119.37 153.221 122.046 144.298C124.137 137.328 109.197 134.503 109.197 134.503Z" fill="#0EA5E9"/>
<path d="M37.2486 68.6187C35.3143 59.5087 37.1897 48.3445 42.8217 43.9858C55.0255 34.5412 90.621 40.875 96.9392 43.1893C104.837 46.0822 104.128 67.4051 99.5124 73.7918C95.0918 79.9082 40.288 82.9342 37.2486 68.6187Z" fill="#EF6C1E"/>
<path d="M67.9243 55.8036C67.9243 55.8036 63.7038 57.8883 58.887 57.2956C54.0703 56.7028 50.3549 54.6831 50.4812 53.657C50.6075 52.6309 54.7016 51.5723 59.5184 52.1651C64.3352 52.7578 67.9243 55.8036 67.9243 55.8036Z" fill="white"/>
<path fill-rule="evenodd" clip-rule="evenodd" d="M58.9387 56.8544C60.0581 57.0804 61.1487 56.3562 61.3747 55.2368C61.6007 54.1174 60.8765 53.0268 59.7572 52.8008C58.6379 52.5748 57.5473 53.299 57.3212 54.4184C57.0952 55.5377 57.8194 56.6284 58.9387 56.8544Z" fill="#02517B"/>
<path d="M91.3089 55.891C91.3089 55.891 87.3413 58.424 82.4886 58.3606C77.6359 58.2973 73.7222 56.6953 73.7358 55.6615C73.7493 54.6278 77.7034 53.1285 82.5561 53.1919C87.4088 53.2553 91.3089 55.891 91.3089 55.891Z" fill="white"/>
<path fill-rule="evenodd" clip-rule="evenodd" d="M82.138 57.7528C83.2573 57.9788 84.3479 57.2546 84.5739 56.1352C84.7999 55.0159 84.0757 53.9252 82.9564 53.6992C81.8371 53.4732 80.7465 54.1975 80.5205 55.3168C80.2945 56.4362 81.0186 57.5268 82.138 57.7528Z" fill="#02517B"/>
<path d="M62.4141 66.6453C65.9831 69.322 72.2289 71.1065 78.9443 65.333" stroke="#02517B" stroke-width="1.78451" stroke-linecap="round"/>
<path d="M55.1016 48.5303C56.4189 47.6462 60.2059 47.5557 62.211 49.1693" stroke="#02517B" stroke-width="1.42761" stroke-linecap="round"/>
<path d="M83.707 48.5166C82.3864 47.6375 78.599 47.5611 76.6001 49.1822" stroke="#02517B" stroke-width="1.42761" stroke-linecap="round"/>
<path d="M103.308 14.9209C101.319 16.5071 97.9548 20.2744 97.0625 28.3048" stroke="#02517B" stroke-width="1.42761" stroke-linecap="round"/>
<path d="M33.7125 15.8135C35.7015 17.3997 39.0664 22.0593 39.0664 29.1973" stroke="#02517B" stroke-width="1.42761" stroke-linecap="round"/>
<ellipse cx="71.1726" cy="85.0247" rx="16.9383" ry="3.02469" stroke="white" stroke-width="2.15904" stroke-linecap="round"/>
<path d="M54.8395 85.0244V91.6787C53.2263 92.4853 50 94.3405 50 95.3084C50 96.1684 50 114.603 50 126.765C50 128.291 50.2129 128.793 51.2099 129.79C52.2068 130.787 54.2346 131 54.2346 131C54.2346 131 63 132 72 132C81 132 89.321 131 89.321 131C89.321 131 91.1358 131 92.3457 129.79C93.5555 128.58 93.5555 126.765 93.5555 126.765V95.3084C92.3457 93.4936 87.5062 91.6787 87.5062 91.6787C87.5062 91.6787 87.5062 86.8392 87.5062 85.0244" stroke="white" stroke-width="2.15904" stroke-linecap="round"/>
<path d="M52.8569 127.74C52.616 126.769 53.0509 125.631 53.0509 125.631L62.318 126.421C62.318 126.421 62.4384 126.907 61.7089 128.118C60.9793 129.33 58.3251 129.438 56.8562 129.323C55.3874 129.207 53.0979 128.71 52.8569 127.74Z" fill="#F59E0B"/>
<ellipse cx="57.624" cy="126.212" rx="4.6916" ry="1.87664" transform="rotate(1.97876 57.624 126.212)" fill="#FFC35E"/>
<path d="M62.0352 127.5C62.0352 126.5 62.7316 125.5 62.7316 125.5L71.5352 128.5C71.5352 128.5 71.5352 129 70.5352 130C69.5352 131 66.9329 130.466 65.5352 130C64.1374 129.534 62.0352 128.5 62.0352 127.5Z" fill="#F59E0B"/>
<ellipse cx="67.028" cy="127.166" rx="4.6916" ry="1.87664" transform="rotate(15.9222 67.028 127.166)" fill="#FFC35E"/>
<path d="M70.0352 127.5C70.0352 126.5 70.7316 125.5 70.7316 125.5L79.5352 128.5C79.5352 128.5 79.5352 129 78.5352 130C77.5352 131 74.9329 130.466 73.5352 130C72.1374 129.534 70.0352 128.5 70.0352 127.5Z" fill="#F59E0B"/>
<ellipse cx="75.028" cy="127.166" rx="4.6916" ry="1.87664" transform="rotate(15.9222 75.028 127.166)" fill="#FFC35E"/>
<path d="M78.0352 126.5C78.0352 125.5 78.7316 124.5 78.7316 124.5L87.5352 127.5C87.5352 127.5 87.5352 128 86.5352 129C85.5352 130 82.9329 129.466 81.5352 129C80.1374 128.534 78.0352 127.5 78.0352 126.5Z" fill="#F59E0B"/>
<ellipse cx="83.028" cy="126.166" rx="4.6916" ry="1.87664" transform="rotate(15.9222 83.028 126.166)" fill="#FFC35E"/>
<path d="M82.0352 126.5C82.0352 125.5 82.7316 124.5 82.7316 124.5L91.5352 127.5C91.5352 127.5 91.5352 128 90.5352 129C89.5352 130 86.9329 129.466 85.5352 129C84.1374 128.534 82.0352 127.5 82.0352 126.5Z" fill="#F59E0B"/>
<ellipse cx="87.028" cy="126.166" rx="4.6916" ry="1.87664" transform="rotate(15.9222 87.028 126.166)" fill="#FFC35E"/>
<path d="M58.0613 123.803C57.9858 122.806 58.6046 121.756 58.6046 121.756L67.6098 124.082C67.6098 124.082 67.6476 124.58 66.726 125.653C65.8045 126.726 63.1693 126.39 61.7403 126.031C60.3113 125.672 58.1369 124.8 58.0613 123.803Z" fill="#F59E0B"/>
<ellipse cx="63.0159" cy="123.092" rx="4.6916" ry="1.87664" transform="rotate(11.5868 63.0159 123.092)" fill="#FFC35E"/>
<path d="M78.1668 123.553C77.8353 122.609 78.161 121.435 78.161 121.435L87.4613 121.348C87.4613 121.348 87.627 121.82 87.0149 123.094C86.4029 124.369 83.7707 124.728 82.2975 124.752C80.8244 124.775 78.4982 124.496 78.1668 123.553Z" fill="#F59E0B"/>
<ellipse cx="82.7682" cy="121.583" rx="4.6916" ry="1.87664" transform="rotate(-3.43371 82.7682 121.583)" fill="#FFC35E"/>
<path d="M109.702 78.7178C109.702 78.7178 96.5 114.5 59.5 108" stroke="#02517B" stroke-width="1.78451" stroke-linecap="round"/>
<path d="M59.9037 108.307C61.3771 104.988 56.6702 98.9578 54.6054 99.4319C52.5405 99.9061 55.9403 102.541 55.1451 103.811C54.3498 105.08 49.7085 100.96 48.2736 102.283C47.2165 103.258 49.09 104.616 51.0141 105.603C49.3465 104.997 47.3837 104.637 46.8863 105.707C46.1033 107.39 48.332 108.119 50.363 108.477C45.2861 107.91 45.5804 110.492 47.5156 111.151C51.0529 112.358 58.0619 112.456 59.9037 108.307Z" fill="white" stroke="#02517B" stroke-width="1.78451" stroke-linecap="round"/>
<path d="M30.9994 81.7178C30.9994 81.7178 43 117.5 79.5 110" stroke="#02517B" stroke-width="1.78451" stroke-linecap="round"/>
<path d="M78.7955 109.307C77.3221 105.988 82.029 99.9578 84.0939 100.432C86.1587 100.906 82.7589 103.541 83.5542 104.811C84.3494 106.08 88.9907 101.96 90.4256 103.283C91.4827 104.258 89.6092 105.616 87.6851 106.603C89.3527 105.997 91.3155 105.637 91.8129 106.707C92.5959 108.39 90.3672 109.119 88.3363 109.477C93.4131 108.91 93.1188 111.492 91.1837 112.151C87.6463 113.358 80.6373 113.456 78.7955 109.307Z" fill="white" stroke="#02517B" stroke-width="1.78451" stroke-linecap="round"/>
</svg>
