<svg width="26" height="26" viewBox="0 0 26 26" fill="none" xmlns="http://www.w3.org/2000/svg">
<path fill-rule="evenodd" clip-rule="evenodd" d="M8.20798 17.792L2 24H10.9966C10.9966 24 11.2011 20.7784 8.44074 18.017C8.36384 17.9401 8.28622 17.8651 8.20798 17.792ZM5.84564 16.1544L2 20V15C2 15 3.81135 15.1258 5.84564 16.1544Z" fill="#EF475B"/>
<path fill-rule="evenodd" clip-rule="evenodd" d="M8.71231 13.2877C5.51436 11.5 2 11.5 2 11.5V7.5C2 7.5 6.80156 7.5 11.3255 10.6745L8.71231 13.2877ZM11 15C14.5 18.5 14.5 24 14.5 24H18.5C18.5 24 18.5 17.5 13.5 12.5L11 15Z" fill="#EF475B"/>
<path fill-rule="evenodd" clip-rule="evenodd" d="M13.0782 8.92183C7.44444 4.44444 2 4.83333 2 4.83333V1C2 1 9.35225 1 15.9054 6.09458L13.0782 8.92183ZM15.1753 10.8247C21.1667 16.9966 21.1667 24 21.1667 24H25C25 24 25 14.9394 18.0303 7.9697L15.1753 10.8247Z" fill="#EF475B"/>
<path d="M2 24L24 2" stroke="#EF475B" stroke-width="3"/>
</svg>
