<svg width="24" height="24" viewBox="0 0 24 24" fill="none" xmlns="http://www.w3.org/2000/svg">
<path d="M22.7552 1.24648C22.8328 1.32388 22.8944 1.41584 22.9364 1.51707C22.9784 1.61831 23 1.72684 23 1.83644C23 1.94605 22.9784 2.05458 22.9364 2.15582C22.8944 2.25705 22.8328 2.34901 22.7552 2.42641L17.4921 7.68612C17.1412 7.25315 16.7457 6.85823 16.3122 6.50785L21.5753 1.24481C21.6527 1.16721 21.7446 1.10564 21.8459 1.06363C21.9471 1.02162 22.0556 1 22.1652 1C22.2748 1 22.3834 1.02162 22.4846 1.06363C22.5858 1.10564 22.6778 1.16721 22.7552 1.24481V1.24648ZM7.08772 8.31942L6.43609 8.92772L15.0939 17.5856L15.7539 16.9256C16.3261 16.3571 16.7802 15.6811 17.09 14.9365C17.3999 14.1918 17.5594 13.3932 17.5594 12.5867C17.5594 11.7801 17.3999 10.9815 17.09 10.2369C16.7802 9.49223 16.3261 8.81622 15.7539 8.24776C13.3324 5.82622 9.47925 5.93955 7.08772 8.31942ZM1.48803 11.4109L4.97617 9.82434L14.1757 19.0238L12.5924 22.5136C12.5367 22.6365 12.452 22.744 12.3455 22.8269C12.2391 22.9098 12.1141 22.9657 11.9813 22.9896C11.8485 23.0135 11.7119 23.0049 11.5832 22.9643C11.4545 22.9238 11.3376 22.8526 11.2425 22.757L8.74263 20.2571L10.1585 17.7572L7.4927 19.0072L6.24277 17.7572L3.7429 15.2574L4.30486 13.5037L2.49297 14.0074L1.24304 12.7575C1.14811 12.6622 1.07765 12.5454 1.03767 12.417C0.997695 12.2886 0.989386 12.1525 1.01346 12.0202C1.03753 11.8878 1.09326 11.7633 1.1759 11.6572C1.25854 11.5512 1.36563 11.4666 1.48803 11.4109Z" fill="#0EA5E9"/>
</svg>
