<svg width="24" height="24" viewBox="0 0 24 24" fill="black" xmlns="http://www.w3.org/2000/svg">
<path d="M18.507 17.939C20.0563 16.2864 20.831 14.3067 20.831 12C20.831 10.1753 20.3146 8.52269 19.2817 7.04225C18.2833 5.56182 16.9577 4.49452 15.3052 3.84038V4.30516C15.3052 4.89045 15.0814 5.40689 14.6338 5.85446C14.1862 6.26761 13.6698 6.47418 13.0845 6.47418H10.9155V8.69484C10.9155 9.00469 10.795 9.26291 10.554 9.46948C10.3474 9.67606 10.0892 9.77934 9.77934 9.77934H7.61033V12H14.2207C14.5305 12 14.7887 12.1033 14.9953 12.3099C15.2019 12.5164 15.3052 12.7746 15.3052 13.0845V16.3897H16.3897C17.4225 16.3897 18.1283 16.9061 18.507 17.939ZM10.9155 20.7277V18.6103C10.3302 18.6103 9.81377 18.3865 9.3662 17.939C8.91862 17.4914 8.69484 16.975 8.69484 16.3897V15.3052L3.42723 10.0376C3.25509 10.7261 3.16901 11.3803 3.16901 12C3.16901 14.2379 3.90923 16.1831 5.38967 17.8357C6.90454 19.4883 8.74648 20.4523 10.9155 20.7277ZM4.20188 4.25352C6.37089 2.08451 8.97027 1 12 1C15.0297 1 17.6119 2.08451 19.7465 4.25352C21.9155 6.38811 23 8.97027 23 12C23 15.0297 21.9155 17.6291 19.7465 19.7981C17.6119 21.9327 15.0297 23 12 23C8.97027 23 6.37089 21.9327 4.20188 19.7981C2.06729 17.6291 1 15.0297 1 12C1 8.97027 2.06729 6.38811 4.20188 4.25352Z" fill="#0B3954B2"/>
</svg>
