<svg width="24" height="24" viewBox="0 0 24 24" fill="none" xmlns="http://www.w3.org/2000/svg">
<path d="M11.945 18.6C12.33 18.6 12.6556 18.4669 12.9218 18.2007C13.1873 17.9352 13.32 17.61 13.32 17.225C13.32 16.84 13.1873 16.5148 12.9218 16.2493C12.6556 15.9831 12.33 15.85 11.945 15.85C11.56 15.85 11.2344 15.9831 10.9682 16.2493C10.7027 16.5148 10.57 16.84 10.57 17.225C10.57 17.61 10.7027 17.9352 10.9682 18.2007C11.2344 18.4669 11.56 18.6 11.945 18.6ZM10.955 14.365H12.99C12.99 13.76 13.0589 13.2833 13.1968 12.935C13.3339 12.5867 13.7233 12.11 14.365 11.505C14.8417 11.0283 15.2175 10.5744 15.4925 10.1432C15.7675 9.71273 15.905 9.195 15.905 8.59C15.905 7.56333 15.5292 6.775 14.7775 6.225C14.0258 5.675 13.1367 5.4 12.11 5.4C11.065 5.4 10.2173 5.675 9.5668 6.225C8.9156 6.775 8.46167 7.435 8.205 8.205L10.02 8.92C10.1117 8.59 10.3181 8.2325 10.6393 7.8475C10.9598 7.4625 11.45 7.27 12.11 7.27C12.6967 7.27 13.1367 7.43023 13.43 7.7507C13.7233 8.0719 13.87 8.425 13.87 8.81C13.87 9.17667 13.76 9.52023 13.54 9.8407C13.32 10.1619 13.045 10.46 12.715 10.735C11.9083 11.45 11.4133 11.9908 11.23 12.3575C11.0467 12.7242 10.955 13.3933 10.955 14.365ZM12 23C10.4783 23 9.04833 22.7111 7.71 22.1332C6.37167 21.5561 5.2075 20.7725 4.2175 19.7825C3.2275 18.7925 2.44393 17.6283 1.8668 16.29C1.28893 14.9517 1 13.5217 1 12C1 10.4783 1.28893 9.04833 1.8668 7.71C2.44393 6.37167 3.2275 5.2075 4.2175 4.2175C5.2075 3.2275 6.37167 2.44357 7.71 1.8657C9.04833 1.28857 10.4783 1 12 1C13.5217 1 14.9517 1.28857 16.29 1.8657C17.6283 2.44357 18.7925 3.2275 19.7825 4.2175C20.7725 5.2075 21.5561 6.37167 22.1332 7.71C22.7111 9.04833 23 10.4783 23 12C23 13.5217 22.7111 14.9517 22.1332 16.29C21.5561 17.6283 20.7725 18.7925 19.7825 19.7825C18.7925 20.7725 17.6283 21.5561 16.29 22.1332C14.9517 22.7111 13.5217 23 12 23ZM12 20.8C14.4567 20.8 16.5375 19.9475 18.2425 18.2425C19.9475 16.5375 20.8 14.4567 20.8 12C20.8 9.54333 19.9475 7.4625 18.2425 5.7575C16.5375 4.0525 14.4567 3.2 12 3.2C9.54333 3.2 7.4625 4.0525 5.7575 5.7575C4.0525 7.4625 3.2 9.54333 3.2 12C3.2 14.4567 4.0525 16.5375 5.7575 18.2425C7.4625 19.9475 9.54333 20.8 12 20.8Z" fill="#0EA5E9"/>
</svg>
