<svg width="24" height="24" viewBox="0 0 24 24" fill="none" xmlns="http://www.w3.org/2000/svg">
<g clip-path="url(#clip0_990_5402)">
<path d="M1 19C0.447716 19 0 18.5523 0 18C0 17.4477 0.447715 17 1 17H4C3.45 17 2.97917 18.8042 2.5875 18.4125C2.19583 18.0208 2 17.55 2 17V7C2 6.45 2.19583 5.97917 2.5875 5.5875C2.97917 5.19583 3.45 5 4 5H20C20.55 5 21.0208 5.19583 21.4125 5.5875C21.8042 5.97917 22 6.45 22 7V17C22 17.55 21.8042 18.0208 21.4125 18.4125C21.0208 18.8042 20.55 17 20 17H23C23.5523 17 24 17.4477 24 18C24 18.5523 23.5523 19 23 19H1ZM4 17H20V7H4V17Z" fill="#0284C7"/>
</g>
<defs>
<clipPath id="clip0_990_5402">
<rect width="24" height="24" fill="white"/>
</clipPath>
</defs>
</svg>
