<svg width="24" height="24" viewBox="0 0 24 24" fill="none" xmlns="http://www.w3.org/2000/svg">
<path d="M10.9 17.5H13.1V10.9H10.9V17.5ZM12 8.7C12.3117 8.7 12.5731 8.5944 12.7843 8.3832C12.9948 8.17273 13.1 7.91167 13.1 7.6C13.1 7.28833 12.9948 7.0269 12.7843 6.8157C12.5731 6.60523 12.3117 6.5 12 6.5C11.6883 6.5 11.4273 6.60523 11.2168 6.8157C11.0056 7.0269 10.9 7.28833 10.9 7.6C10.9 7.91167 11.0056 8.17273 11.2168 8.3832C11.4273 8.5944 11.6883 8.7 12 8.7ZM12 23C9.45166 22.3583 7.3481 20.8961 5.6893 18.6132C4.02976 16.3311 3.2 13.7967 3.2 11.01V4.3L12 1L20.8 4.3V11.01C20.8 13.7967 19.9706 16.3311 18.3118 18.6132C16.6523 20.8961 14.5483 22.3583 12 23Z" fill="#0EA5E9"/>
</svg>
