<svg width="20" height="20" viewBox="0 0 20 20" fill="none" xmlns="http://www.w3.org/2000/svg">
<path d="M10 16.6667C8.1389 16.6667 6.56251 16.0208 5.27084 14.7292C3.97918 13.4375 3.33334 11.8611 3.33334 9.99999C3.33334 8.13888 3.97918 6.56249 5.27084 5.27083C6.56251 3.97916 8.1389 3.33333 10 3.33333C10.9583 3.33333 11.875 3.53124 12.75 3.92708C13.625 4.32291 14.375 4.88888 15 5.62499V3.33333H16.6667V9.16666H10.8333V7.49999H14.3333C13.8889 6.72222 13.2813 6.11111 12.5104 5.66666C11.7396 5.22222 10.9028 4.99999 10 4.99999C8.61112 4.99999 7.43057 5.48611 6.45834 6.45833C5.48612 7.43055 5.00001 8.61111 5.00001 9.99999C5.00001 11.3889 5.48612 12.5694 6.45834 13.5417C7.43057 14.5139 8.61112 15 10 15C11.0695 15 12.0347 14.6944 12.8958 14.0833C13.757 13.4722 14.3611 12.6667 14.7083 11.6667H16.4583C16.0695 13.1389 15.2778 14.3403 14.0833 15.2708C12.8889 16.2014 11.5278 16.6667 10 16.6667Z" fill="#666666"/>
</svg>
