<svg width="355" height="328" viewBox="0 0 355 328" fill="none" xmlns="http://www.w3.org/2000/svg">
<path d="M159.464 327.687C152.785 327.687 146.363 298.493 146.363 283.605L169.658 283.607C170.298 298.425 166.505 327.687 159.464 327.687Z" fill="#02517B"/>
<path d="M203.571 327.687C210.25 327.687 216.672 298.493 216.672 283.605L193.377 283.607C192.737 298.425 196.53 327.687 203.571 327.687Z" fill="#02517B"/>
<path d="M126.884 263.903C126.884 263.903 117.347 101.585 132.013 99.5125C146.678 97.4397 150.699 126.579 150.699 126.579L211.891 126.579C213.728 112.419 221.084 98.8388 229.849 99.9766C238.614 101.114 230.639 261.022 230.639 261.022C238.055 261.984 253.094 265.839 253.707 273.042C255.145 289.925 104.734 287.569 102.797 277.193C101.039 267.785 126.884 263.903 126.884 263.903Z" fill="#02517B"/>
<path d="M225.668 108.642C223.052 110.728 218.627 115.683 217.453 126.245" stroke="#06283C" stroke-width="1.87768" stroke-linecap="round"/>
<path d="M136.48 107.469C139.096 109.555 143.521 115.684 143.521 125.072" stroke="#06283C" stroke-width="1.87768" stroke-linecap="round"/>
<path d="M221.52 179.597C224.064 167.615 221.597 152.931 214.19 147.198C198.139 134.776 151.321 143.107 143.011 146.151C132.624 149.955 133.556 178.001 139.627 186.401C145.441 194.445 217.522 198.425 221.52 179.597Z" fill="#EF6C1E"/>
<path d="M158.098 151.263C159.83 150.1 164.811 149.981 167.448 152.103" stroke="#02517B" stroke-width="1.87768" stroke-linecap="round"/>
<path d="M195.721 151.243C193.984 150.087 189.002 149.986 186.373 152.119" stroke="#02517B" stroke-width="1.87768" stroke-linecap="round"/>
<path d="M188.418 176.998C183.724 180.519 175.509 182.866 166.677 175.272" stroke="#02517B" stroke-width="2.34709" stroke-linecap="round"/>
<path d="M126.225 190.53C126.225 190.53 131.11 226.91 80.6469 222.216" stroke="#02517B" stroke-width="2.34709" stroke-linecap="round"/>
<path d="M126.225 190.53C126.225 190.53 131.11 226.91 80.6469 222.216" stroke="#02517B" stroke-width="2.34709" stroke-linecap="round"/>
<path d="M183.842 160.91C183.842 160.91 189.393 163.652 195.729 162.872C202.064 162.093 206.95 159.436 206.784 158.087C206.618 156.737 201.233 155.345 194.898 156.125C188.563 156.904 183.842 160.91 183.842 160.91Z" fill="white"/>
<path fill-rule="evenodd" clip-rule="evenodd" d="M190.59 162.917C192.211 163.144 194.028 163.224 195.913 162.992C196.3 162.944 196.681 162.89 197.055 162.829C197.348 162.175 197.447 161.427 197.294 160.671C196.905 158.743 195.026 157.495 193.098 157.885C191.17 158.274 189.922 160.153 190.311 162.081C190.371 162.377 190.466 162.657 190.59 162.917Z" fill="#02517B"/>
<path d="M150.994 157.892C150.994 157.892 155.647 161.977 161.968 162.863C168.29 163.748 173.697 162.447 173.886 161.1C174.074 159.753 169.233 157.015 162.912 156.129C156.59 155.244 150.994 157.892 150.994 157.892Z" fill="white"/>
<path fill-rule="evenodd" clip-rule="evenodd" d="M160.282 162.571C160.82 162.696 161.373 162.801 161.94 162.881C163.083 163.041 164.197 163.13 165.256 163.159C165.835 162.612 166.216 161.852 166.27 160.993C166.382 159.195 165.016 157.647 163.218 157.534C161.42 157.422 159.872 158.788 159.76 160.586C159.714 161.315 159.911 162.003 160.282 162.571Z" fill="#02517B"/>
<path d="M71.6075 228.828C81.4412 229.232 82.1664 221.22 81.598 218.77C81.0297 216.32 78.1027 210.853 76.1134 211.074C74.1241 211.295 74.4746 213.092 75.2944 215.916C76.1141 218.74 64.2316 211.983 63.0029 214.706C61.7741 217.428 69.5585 218.337 69.5585 219.144C69.5585 219.951 60.0761 217.53 59.6664 220.758C59.2567 223.986 69.1484 222.776 69.1484 223.986C69.1484 225.197 60.5446 223.179 59.6664 225.197C58.7881 227.214 61.7738 228.425 71.6075 228.828Z" fill="white" stroke="#02517B" stroke-width="2.34709" stroke-linecap="round"/>
<path d="M228.64 190.53C228.64 190.53 223.756 226.91 274.218 222.216" stroke="#02517B" stroke-width="2.34709" stroke-linecap="round"/>
<path d="M283.258 228.828C273.424 229.232 272.699 221.22 273.267 218.77C273.836 216.32 276.763 210.853 278.752 211.074C280.741 211.295 280.391 213.092 279.571 215.916C278.751 218.74 290.634 211.983 291.862 214.706C293.091 217.428 285.307 218.337 285.307 219.144C285.307 219.951 294.789 217.53 295.199 220.758C295.609 223.986 285.717 222.776 285.717 223.986C285.717 225.197 294.321 223.179 295.199 225.197C296.077 227.214 293.091 228.425 283.258 228.828Z" fill="white" stroke="#02517B" stroke-width="2.34709" stroke-linecap="round"/>
<circle cx="44.5658" cy="181.204" r="25.5658" stroke="#0EA5E9" stroke-width="2.37822" stroke-linecap="round"/>
<path d="M36.834 189.528L39.8068 182.344M51.6978 188.934L48.6384 182.344M39.8068 182.344L43.9686 172.286L48.6384 182.344M39.8068 182.344C41.5326 183.318 45.7151 184.683 48.6384 182.344" stroke="#0EA5E9" stroke-width="2.37822" stroke-linecap="round"/>
<circle cx="176.556" cy="32.5658" r="25.5658" stroke="#0EA5E9" stroke-width="2.37822" stroke-linecap="round"/>
<circle cx="309.566" cy="175.566" r="25.5658" stroke="#0EA5E9" stroke-width="2.37822" stroke-linecap="round"/>
<path d="M298.268 169.62H310.456M322.644 169.62H316.55M310.456 169.62V165.458M310.456 169.62H316.55M316.55 169.62C315.609 175.367 310.634 186.981 298.268 187.457M320.861 187.457C316.897 187.06 308.256 184.365 305.402 176.755" stroke="#0EA5E9" stroke-width="2.37822" stroke-linecap="round"/>
<path d="M168.826 21.2686L181.312 25.4304C177.15 26.6195 168.945 30.5436 169.421 36.727C170.015 44.4562 180.717 43.2671 184.285 41.4834" stroke="#0EA5E9" stroke-width="2.37822" stroke-linecap="round" stroke-linejoin="round"/>
<circle cx="177.15" cy="33.7545" r="1.18911" fill="#0EA5E9"/>
<circle cx="181.906" cy="33.7545" r="1.18911" fill="#0EA5E9"/>
<circle cx="179.529" cy="37.3219" r="1.18911" fill="#0EA5E9"/>
<circle cx="41" cy="3" r="1" fill="#D9D9D9"/>
<circle cx="45" cy="3" r="1" fill="#D9D9D9"/>
<circle cx="43" cy="6" r="1" fill="#D9D9D9"/>
</svg>
